<?xml version="1.0" encoding="utf-8"?>
<!-- Generator: Adobe Illustrator 16.0.0, SVG Export Plug-In . SVG Version: 6.00 Build 0)  -->
<!DOCTYPE svg PUBLIC "-//W3C//DTD SVG 1.1//EN" "http://www.w3.org/Graphics/SVG/1.1/DTD/svg11.dtd">
<svg version="1.1" id="圖層_1" xmlns="http://www.w3.org/2000/svg" xmlns:xlink="http://www.w3.org/1999/xlink" x="0px" y="0px"
	 width="800px" height="500px" viewBox="0 0 800 500" enable-background="new 0 0 800 500" xml:space="preserve">
<circle fill="#5C77FF" cx="7.732" cy="7.732" r="7.732"/>
<circle fill="#5C77FF" cx="42.607" cy="7.732" r="7.732"/>
<circle fill="#5C77FF" cx="77.481" cy="7.732" r="7.732"/>
<circle fill="#5C77FF" cx="112.356" cy="7.732" r="7.732"/>
<circle fill="#5C77FF" cx="147.23" cy="7.732" r="7.732"/>
<circle fill="#5C77FF" cx="182.104" cy="7.732" r="7.732"/>
<circle fill="#5C77FF" cx="216.979" cy="7.732" r="7.732"/>
<circle fill="#5C77FF" cx="251.853" cy="7.732" r="7.732"/>
<circle fill="#5C77FF" cx="286.728" cy="7.732" r="7.732"/>
<circle fill="#5C77FF" cx="321.602" cy="7.732" r="7.732"/>
<circle fill="#5C77FF" cx="356.476" cy="7.732" r="7.732"/>
<circle fill="#5C77FF" cx="391.351" cy="7.732" r="7.732"/>
<circle fill="#5C77FF" cx="426.226" cy="7.732" r="7.732"/>
<circle fill="#5C77FF" cx="461.1" cy="7.732" r="7.732"/>
<circle fill="#5C77FF" cx="7.732" cy="42.607" r="7.732"/>
<circle fill="#5C77FF" cx="42.607" cy="42.607" r="7.732"/>
<circle fill="#5C77FF" cx="77.481" cy="42.607" r="7.732"/>
<circle fill="#5C77FF" cx="112.356" cy="42.607" r="7.732"/>
<circle fill="#5C77FF" cx="147.23" cy="42.607" r="7.732"/>
<circle fill="#5C77FF" cx="182.104" cy="42.607" r="7.732"/>
<circle fill="#5C77FF" cx="216.979" cy="42.607" r="7.732"/>
<circle fill="#5C77FF" cx="251.853" cy="42.607" r="7.732"/>
<circle fill="#5C77FF" cx="286.728" cy="42.607" r="7.732"/>
<circle fill="#5C77FF" cx="321.602" cy="42.607" r="7.732"/>
<circle fill="#5C77FF" cx="356.476" cy="42.607" r="7.732"/>
<circle fill="#5C77FF" cx="391.351" cy="42.607" r="7.732"/>
<circle fill="#5C77FF" cx="426.226" cy="42.607" r="7.732"/>
<circle fill="#5C77FF" cx="461.1" cy="42.607" r="7.732"/>
<circle fill="#5C77FF" cx="7.732" cy="77.481" r="7.732"/>
<circle fill="#5C77FF" cx="42.607" cy="77.481" r="7.732"/>
<circle fill="#5C77FF" cx="77.481" cy="77.481" r="7.732"/>
<circle fill="#5C77FF" cx="112.356" cy="77.481" r="7.732"/>
<circle fill="#5C77FF" cx="147.23" cy="77.481" r="7.732"/>
<circle fill="#5C77FF" cx="182.104" cy="77.481" r="7.732"/>
<circle fill="#5C77FF" cx="216.979" cy="77.481" r="7.732"/>
<circle fill="#5C77FF" cx="251.853" cy="77.481" r="7.732"/>
<circle fill="#5C77FF" cx="286.728" cy="77.481" r="7.732"/>
<circle fill="#5C77FF" cx="321.602" cy="77.481" r="7.732"/>
<circle fill="#5C77FF" cx="356.476" cy="77.481" r="7.732"/>
<circle fill="#5C77FF" cx="391.351" cy="77.481" r="7.732"/>
<circle fill="#5C77FF" cx="426.226" cy="77.481" r="7.732"/>
<circle fill="#5C77FF" cx="461.1" cy="77.481" r="7.732"/>
<circle fill="#5C77FF" cx="7.732" cy="112.356" r="7.732"/>
<circle fill="#5C77FF" cx="42.607" cy="112.356" r="7.732"/>
<circle fill="#5C77FF" cx="77.481" cy="112.356" r="7.732"/>
<circle fill="#5C77FF" cx="112.356" cy="112.356" r="7.732"/>
<circle fill="#5C77FF" cx="147.23" cy="112.356" r="7.732"/>
<circle fill="#5C77FF" cx="182.104" cy="112.356" r="7.732"/>
<circle fill="#5C77FF" cx="216.979" cy="112.356" r="7.732"/>
<circle fill="#5C77FF" cx="251.853" cy="112.356" r="7.732"/>
<circle fill="#5C77FF" cx="286.728" cy="112.356" r="7.732"/>
<circle fill="#5C77FF" cx="321.602" cy="112.356" r="7.732"/>
<circle fill="#5C77FF" cx="356.476" cy="112.356" r="7.732"/>
<circle fill="#5C77FF" cx="391.351" cy="112.356" r="7.732"/>
<circle fill="#5C77FF" cx="426.226" cy="112.356" r="7.732"/>
<circle fill="#5C77FF" cx="461.1" cy="112.356" r="7.732"/>
<circle fill="#5C77FF" cx="7.732" cy="147.23" r="7.732"/>
<circle fill="#5C77FF" cx="42.607" cy="147.23" r="7.732"/>
<circle fill="#5C77FF" cx="77.481" cy="147.23" r="7.732"/>
<circle fill="#5C77FF" cx="112.356" cy="147.23" r="7.732"/>
<circle fill="#5C77FF" cx="147.23" cy="147.23" r="7.732"/>
<circle fill="#5C77FF" cx="182.104" cy="147.23" r="7.732"/>
<circle fill="#5C77FF" cx="216.979" cy="147.23" r="7.732"/>
<circle fill="#5C77FF" cx="251.853" cy="147.23" r="7.732"/>
<circle fill="#5C77FF" cx="286.728" cy="147.23" r="7.732"/>
<circle fill="#5C77FF" cx="321.602" cy="147.23" r="7.732"/>
<circle fill="#5C77FF" cx="356.476" cy="147.23" r="7.732"/>
<circle fill="#5C77FF" cx="391.351" cy="147.23" r="7.732"/>
<circle fill="#5C77FF" cx="426.226" cy="147.23" r="7.732"/>
<circle fill="#5C77FF" cx="461.1" cy="147.23" r="7.732"/>
<circle fill="#5C77FF" cx="7.732" cy="182.104" r="7.732"/>
<circle fill="#5C77FF" cx="42.607" cy="182.104" r="7.732"/>
<circle fill="#5C77FF" cx="77.481" cy="182.104" r="7.732"/>
<circle fill="#5C77FF" cx="112.356" cy="182.104" r="7.732"/>
<circle fill="#5C77FF" cx="147.23" cy="182.104" r="7.732"/>
<circle fill="#5C77FF" cx="182.104" cy="182.104" r="7.732"/>
<circle fill="#5C77FF" cx="216.979" cy="182.104" r="7.732"/>
<circle fill="#5C77FF" cx="251.853" cy="182.104" r="7.732"/>
<circle fill="#5C77FF" cx="286.728" cy="182.104" r="7.732"/>
<circle fill="#5C77FF" cx="321.602" cy="182.104" r="7.732"/>
<circle fill="#5C77FF" cx="356.476" cy="182.104" r="7.732"/>
<circle fill="#5C77FF" cx="391.351" cy="182.104" r="7.732"/>
<circle fill="#5C77FF" cx="426.226" cy="182.104" r="7.732"/>
<circle fill="#5C77FF" cx="461.1" cy="182.104" r="7.732"/>
<circle fill="#5C77FF" cx="7.732" cy="216.979" r="7.732"/>
<circle fill="#5C77FF" cx="42.607" cy="216.979" r="7.732"/>
<circle fill="#5C77FF" cx="77.481" cy="216.979" r="7.732"/>
<circle fill="#5C77FF" cx="112.356" cy="216.979" r="7.732"/>
<circle fill="#5C77FF" cx="147.23" cy="216.979" r="7.732"/>
<circle fill="#5C77FF" cx="182.104" cy="216.979" r="7.732"/>
<circle fill="#5C77FF" cx="216.979" cy="216.979" r="7.732"/>
<circle fill="#5C77FF" cx="251.853" cy="216.979" r="7.732"/>
<circle fill="#5C77FF" cx="286.728" cy="216.979" r="7.732"/>
<circle fill="#5C77FF" cx="321.602" cy="216.979" r="7.732"/>
<circle fill="#5C77FF" cx="356.476" cy="216.979" r="7.732"/>
<circle fill="#5C77FF" cx="391.351" cy="216.979" r="7.732"/>
<circle fill="#5C77FF" cx="426.226" cy="216.979" r="7.732"/>
<circle fill="#5C77FF" cx="461.1" cy="216.979" r="7.732"/>
<circle fill="#5C77FF" cx="7.732" cy="251.854" r="7.732"/>
<circle fill="#5C77FF" cx="42.607" cy="251.854" r="7.732"/>
<circle fill="#5C77FF" cx="77.481" cy="251.854" r="7.732"/>
<circle fill="#5C77FF" cx="112.356" cy="251.854" r="7.732"/>
<circle fill="#5C77FF" cx="147.23" cy="251.854" r="7.732"/>
<circle fill="#5C77FF" cx="182.104" cy="251.854" r="7.732"/>
<circle fill="#5C77FF" cx="216.979" cy="251.854" r="7.732"/>
<circle fill="#5C77FF" cx="251.853" cy="251.854" r="7.732"/>
<circle fill="#5C77FF" cx="286.728" cy="251.854" r="7.732"/>
<circle fill="#5C77FF" cx="321.602" cy="251.854" r="7.732"/>
<circle fill="#5C77FF" cx="356.476" cy="251.854" r="7.732"/>
<circle fill="#5C77FF" cx="391.351" cy="251.854" r="7.732"/>
<circle fill="#5C77FF" cx="426.226" cy="251.854" r="7.732"/>
<circle fill="#5C77FF" cx="461.1" cy="251.854" r="7.732"/>
<circle fill="#5C77FF" cx="7.732" cy="286.728" r="7.732"/>
<circle fill="#5C77FF" cx="42.607" cy="286.728" r="7.732"/>
<circle fill="#5C77FF" cx="77.481" cy="286.728" r="7.732"/>
<circle fill="#5C77FF" cx="112.356" cy="286.728" r="7.732"/>
<circle fill="#5C77FF" cx="147.23" cy="286.728" r="7.732"/>
<circle fill="#5C77FF" cx="182.104" cy="286.728" r="7.732"/>
<circle fill="#5C77FF" cx="216.979" cy="286.728" r="7.732"/>
<circle fill="#5C77FF" cx="251.853" cy="286.728" r="7.732"/>
<circle fill="#5C77FF" cx="286.728" cy="286.728" r="7.732"/>
<circle fill="#5C77FF" cx="321.602" cy="286.728" r="7.732"/>
<circle fill="#5C77FF" cx="356.476" cy="286.728" r="7.732"/>
<circle fill="#5C77FF" cx="391.351" cy="286.728" r="7.732"/>
<circle fill="#5C77FF" cx="426.226" cy="286.728" r="7.732"/>
<circle fill="#5C77FF" cx="461.1" cy="286.728" r="7.732"/>
</svg>
