<?xml version="1.0" encoding="utf-8"?>
<!-- Generator: Adobe Illustrator 16.0.0, SVG Export Plug-In . SVG Version: 6.00 Build 0)  -->
<!DOCTYPE svg PUBLIC "-//W3C//DTD SVG 1.1//EN" "http://www.w3.org/Graphics/SVG/1.1/DTD/svg11.dtd">
<svg version="1.1" id="圖層_1" xmlns="http://www.w3.org/2000/svg" xmlns:xlink="http://www.w3.org/1999/xlink" x="0px" y="0px"
	 width="319.014px" height="69.146px" viewBox="0 0 319.014 69.146" enable-background="new 0 0 319.014 69.146"
	 xml:space="preserve">
<g>
	<path fill="#FFFFFF" d="M3.794,47.001c0-0.679,0.028-1.345,0.081-1.995c0-0.623,0.04-1.262,0.121-1.912
		c0.053-1.354,0.32-2.67,0.801-3.944c0.427-1.276,1.161-2.469,2.206-3.58c0.989-1.11,2.394-1.992,4.209-2.645
		c-1.31-0.623-2.378-1.343-3.206-2.155c-0.884-0.786-1.59-1.655-2.126-2.604c-0.989-2.008-1.511-3.838-1.563-5.492v-4.517
		c-0.053-1.22,0.053-2.766,0.321-4.638c0.214-1.846,0.842-3.648,1.884-5.411c1.094-1.899,2.845-3.459,5.251-4.682
		c2.403-1.219,5.771-1.855,10.102-1.91c4.384,0.055,7.805,0.691,10.264,1.91c2.404,1.222,4.129,2.781,5.171,4.679
		c1.043,1.763,1.671,3.563,1.884,5.408c0.16,1.87,0.242,3.417,0.242,4.637v4.513c0.053,1.654-0.45,3.458-1.504,5.408
		c-1.112,2.009-3.024,3.621-5.733,4.841c1.843,0.543,3.293,1.288,4.351,2.236c1.03,0.949,1.803,2.008,2.318,3.172
		c0.775,2.439,1.122,5.327,1.04,8.661v5.491C39.8,63.29,33.788,68.849,21.87,69.146C9.952,68.849,3.927,63.302,3.794,52.503V47.001z
		 M18.107,23.152c0,1.683,0.394,2.794,1.175,3.337c0.697,0.624,1.554,0.936,2.57,0.936c1.016,0,1.901-0.312,2.656-0.936
		c0.668-0.543,1.029-1.654,1.089-3.337v-6.062c-0.06-1.736-0.421-2.902-1.089-3.5c-0.755-0.515-1.641-0.773-2.656-0.773
		c-1.017,0-1.873,0.257-2.57,0.773c-0.782,0.597-1.175,1.764-1.175,3.5V23.152z M18.107,53.604c0,1.658,0.394,2.771,1.175,3.344
		c0.697,0.599,1.554,0.896,2.57,0.896c1.016,0,1.901-0.297,2.656-0.896c0.668-0.572,1.029-1.686,1.089-3.344V43.004
		c-0.06-1.739-0.421-2.907-1.089-3.506c-0.755-0.516-1.641-0.774-2.656-0.774c-1.017,0-1.873,0.257-2.57,0.774
		c-0.782,0.599-1.175,1.767-1.175,3.506V53.604z"/>
	<path fill="#FFFFFF" d="M45.437,18.152C45.49,7.278,51.516,1.734,63.513,1.516C75.43,1.734,81.443,7.278,81.549,18.15v34.323
		c-0.105,10.816-6.117,16.376-18.035,16.673C51.596,68.849,45.57,63.305,45.437,52.51V18.152z M59.751,53.611
		c0,1.655,0.393,2.769,1.175,3.337c0.697,0.599,1.555,0.895,2.57,0.895c1.019,0,1.902-0.296,2.657-0.895
		c0.668-0.568,1.029-1.682,1.088-3.337V17.091c-0.059-1.736-0.42-2.902-1.088-3.501c-0.755-0.517-1.64-0.773-2.657-0.773
		c-1.017,0-1.873,0.257-2.57,0.773c-0.782,0.599-1.175,1.765-1.175,3.501V53.611z"/>
	<path fill="#FFFFFF" d="M88.63,43.068c0-1.684,0.486-2.865,1.457-3.549c0.9-0.637,2.126-0.956,3.68-0.956
		c1.527,0,2.755,0.319,3.68,0.956c0.899,0.685,1.362,1.868,1.385,3.552v6.521c-0.023,1.622-0.485,2.782-1.385,3.479
		c-0.926,0.708-2.152,1.05-3.68,1.026c-1.552,0.024-2.777-0.318-3.68-1.026c-0.971-0.696-1.457-1.856-1.457-3.479V43.068z
		 M92.628,49.591c0,0.352,0.064,0.635,0.193,0.849c0.129,0.276,0.444,0.415,0.945,0.415c0.477,0,0.78-0.139,0.907-0.415
		c0.104-0.214,0.155-0.498,0.155-0.849v-6.521c0-0.397-0.052-0.71-0.155-0.939c-0.128-0.215-0.431-0.322-0.907-0.322
		c-0.502,0-0.817,0.107-0.945,0.322c-0.13,0.23-0.193,0.542-0.193,0.939V49.591z M103.319,38.077h3.33L99.18,69.003H95.63
		L103.319,38.077z M103.75,57.491c0-1.665,0.487-2.838,1.46-3.521c0.89-0.646,2.112-0.97,3.667-0.97
		c1.531,0,2.758,0.324,3.688,0.974c0.899,0.684,1.364,1.856,1.387,3.526v6.534c-0.024,1.619-0.487,2.771-1.387,3.455
		c-0.928,0.696-2.155,1.046-3.688,1.046c-1.555,0-2.776-0.348-3.667-1.042c-0.974-0.684-1.46-1.832-1.46-3.449V57.491z
		 M107.748,64.045c0,0.34,0.064,0.621,0.191,0.852c0.139,0.265,0.453,0.396,0.938,0.396c0.473,0,0.779-0.132,0.919-0.396
		c0.103-0.229,0.152-0.512,0.152-0.852v-6.554c0-0.386-0.05-0.694-0.152-0.921c-0.14-0.218-0.447-0.326-0.919-0.326
		c-0.484,0-0.798,0.108-0.938,0.326c-0.128,0.227-0.191,0.535-0.191,0.921V64.045z"/>
	<path fill="#FFFFFF" d="M158.647,44.002c-0.496,0.794-1.058,1.586-1.677,2.38c-0.646,0.794-1.354,1.523-2.128,2.188
		c-1.465,1.482-3.378,2.229-5.735,2.229c-1.368,0-2.685-0.27-3.953-0.809c-1.266-0.461-2.533-1.065-3.8-1.809
		c-1.242-0.798-2.571-1.478-3.988-2.04c-1.417-0.591-3.02-0.888-4.808-0.888c-1.69,0.053-3.009,0.654-3.951,1.811
		c-1.021,1.154-1.839,2.502-2.46,4.041l-2.758-10.252c0.819-1.714,2-3.25,3.54-4.607c1.516-1.381,3.517-2.098,5.999-2.148
		c1.342,0,2.745,0.243,4.211,0.731c1.368,0.463,2.797,1.065,4.286,1.811c1.467,0.691,2.882,1.319,4.249,1.887
		c1.343,0.744,2.509,1.116,3.504,1.116c1.539,0,2.845-0.656,3.913-1.966c1.068-1.18,2.013-2.476,2.831-3.887L158.647,44.002z"/>
	<path fill="#FFFFFF" d="M169.528,9.568c2.391-0.108,4.767-0.718,7.13-1.83c1.182-0.542,2.167-1.262,2.955-2.155
		c0.813-0.84,1.444-1.844,1.891-3.009h12.02v65.473h-13.819V18.84h-10.175L169.528,9.568L169.528,9.568z"/>
	<path fill="#FFFFFF" d="M208.855,18.152c0.053-10.874,6.079-16.418,18.076-16.636c11.918,0.218,17.93,5.762,18.035,16.634v34.323
		c-0.105,10.816-6.117,16.376-18.035,16.673c-11.918-0.297-17.942-5.841-18.076-16.636V18.152z M223.169,53.611
		c0,1.655,0.393,2.769,1.176,3.337c0.697,0.599,1.554,0.895,2.569,0.895c1.017,0,1.902-0.296,2.657-0.895
		c0.669-0.568,1.029-1.682,1.089-3.337V17.091c-0.06-1.736-0.42-2.902-1.089-3.501c-0.755-0.517-1.641-0.773-2.657-0.773
		c-1.016,0-1.872,0.257-2.569,0.773c-0.783,0.599-1.176,1.765-1.176,3.501V53.611z"/>
	<path fill="#FFFFFF" d="M250.498,18.152c0.053-10.874,6.079-16.418,18.076-16.636c11.917,0.218,17.93,5.762,18.035,16.634v34.323
		c-0.105,10.816-6.118,16.376-18.035,16.673c-11.919-0.297-17.942-5.841-18.076-16.636V18.152z M264.813,53.611
		c0,1.655,0.392,2.769,1.175,3.337c0.697,0.599,1.554,0.895,2.57,0.895c1.016,0,1.901-0.296,2.656-0.895
		c0.667-0.568,1.029-1.682,1.09-3.337V17.091c-0.061-1.736-0.423-2.902-1.09-3.501c-0.755-0.517-1.641-0.773-2.656-0.773
		c-1.017,0-1.873,0.257-2.57,0.773c-0.783,0.599-1.175,1.765-1.175,3.501V53.611z"/>
	<path fill="#FFFFFF" d="M293.692,43.068c0-1.684,0.484-2.865,1.456-3.549c0.9-0.637,2.127-0.956,3.679-0.956
		c1.529,0,2.755,0.319,3.682,0.956c0.898,0.685,1.361,1.868,1.385,3.552v6.521c-0.024,1.622-0.485,2.782-1.385,3.479
		c-0.927,0.708-2.151,1.05-3.682,1.026c-1.551,0.024-2.776-0.318-3.679-1.026c-0.972-0.696-1.456-1.856-1.456-3.479V43.068z
		 M297.69,49.591c0,0.352,0.064,0.635,0.192,0.849c0.129,0.276,0.443,0.415,0.943,0.415c0.479,0,0.781-0.139,0.908-0.415
		c0.104-0.214,0.155-0.498,0.155-0.849v-6.521c0-0.397-0.052-0.71-0.155-0.939c-0.128-0.215-0.431-0.322-0.908-0.322
		c-0.501,0-0.815,0.107-0.943,0.322c-0.13,0.23-0.192,0.542-0.192,0.939V49.591z M308.381,38.077h3.329l-7.469,30.926h-3.551
		L308.381,38.077z M308.812,57.491c0-1.665,0.486-2.838,1.46-3.521c0.888-0.646,2.112-0.97,3.668-0.97
		c1.529,0,2.758,0.324,3.687,0.974c0.9,0.684,1.364,1.856,1.388,3.526v6.534c-0.024,1.619-0.486,2.771-1.388,3.455
		c-0.929,0.696-2.156,1.046-3.687,1.046c-1.556,0-2.778-0.348-3.668-1.042c-0.974-0.684-1.46-1.832-1.46-3.449V57.491z
		 M312.809,64.045c0,0.34,0.063,0.621,0.191,0.852c0.14,0.265,0.452,0.396,0.938,0.396c0.472,0,0.779-0.132,0.919-0.396
		c0.104-0.229,0.152-0.512,0.152-0.852v-6.554c0-0.386-0.05-0.694-0.152-0.921c-0.14-0.218-0.447-0.326-0.919-0.326
		c-0.486,0-0.799,0.108-0.938,0.326c-0.129,0.227-0.191,0.535-0.191,0.921V64.045z"/>
	<path fill="#0081C3" d="M0,45.483c0-0.677,0.026-1.343,0.08-1.994c0-0.623,0.04-1.261,0.121-1.911
		c0.053-1.354,0.32-2.67,0.801-3.945c0.427-1.275,1.163-2.469,2.206-3.58c0.99-1.11,2.395-1.992,4.211-2.645
		c-1.312-0.623-2.38-1.342-3.207-2.156c-0.883-0.785-1.59-1.653-2.125-2.603c-0.99-2.008-1.512-3.838-1.564-5.492v-4.516
		c-0.053-1.221,0.053-2.767,0.319-4.638c0.215-1.845,0.843-3.647,1.885-5.411c1.097-1.898,2.846-3.459,5.252-4.68
		c2.404-1.22,5.77-1.856,10.103-1.913c4.383,0.057,7.804,0.692,10.264,1.911c2.403,1.22,4.128,2.78,5.171,4.678
		c1.043,1.764,1.671,3.564,1.884,5.409c0.16,1.87,0.241,3.417,0.241,4.636v4.515c0.053,1.654-0.449,3.457-1.504,5.409
		c-1.112,2.008-3.023,3.62-5.732,4.84c1.842,0.543,3.293,1.289,4.35,2.236c1.032,0.948,1.804,2.009,2.319,3.173
		c0.775,2.438,1.121,5.326,1.041,8.66v5.491c-0.106,10.816-6.119,16.376-18.036,16.674C6.158,67.333,0.134,61.785,0,50.986V45.483z
		 M14.314,21.635c0,1.684,0.393,2.796,1.175,3.338c0.698,0.624,1.553,0.937,2.569,0.937c1.016,0,1.902-0.313,2.657-0.937
		c0.667-0.542,1.029-1.654,1.089-3.338v-6.061c-0.06-1.737-0.422-2.903-1.089-3.5c-0.755-0.515-1.642-0.774-2.657-0.774
		c-1.017,0-1.872,0.258-2.569,0.774c-0.783,0.597-1.175,1.763-1.175,3.5V21.635z M14.314,52.088c0,1.659,0.393,2.772,1.175,3.345
		c0.698,0.598,1.553,0.896,2.569,0.896c1.016,0,1.902-0.299,2.657-0.896c0.667-0.571,1.029-1.686,1.089-3.345v-10.6
		c-0.06-1.742-0.422-2.908-1.089-3.506c-0.755-0.519-1.642-0.775-2.657-0.775c-1.017,0-1.872,0.257-2.569,0.775
		c-0.783,0.598-1.175,1.764-1.175,3.506V52.088z"/>
	<path fill="#0081C3" d="M41.644,16.635C41.697,5.762,47.722,0.218,59.719,0c11.917,0.218,17.93,5.763,18.035,16.633v34.324
		c-0.105,10.816-6.118,16.376-18.035,16.672c-11.917-0.296-17.943-5.841-18.076-16.636L41.644,16.635L41.644,16.635z M55.958,52.094
		c0,1.655,0.393,2.769,1.175,3.339c0.696,0.598,1.553,0.895,2.569,0.895c1.019,0,1.903-0.298,2.659-0.895
		c0.667-0.57,1.029-1.684,1.088-3.339V15.577c-0.06-1.737-0.421-2.903-1.088-3.501c-0.755-0.517-1.641-0.774-2.659-0.774
		c-1.017,0-1.873,0.258-2.569,0.774c-0.782,0.598-1.175,1.764-1.175,3.501V52.094z"/>
	<path fill="#0081C3" d="M84.836,41.552c0-1.683,0.485-2.864,1.457-3.551c0.9-0.634,2.127-0.954,3.681-0.954
		c1.526,0,2.754,0.32,3.679,0.956c0.9,0.686,1.362,1.867,1.386,3.551v6.523c-0.024,1.621-0.484,2.78-1.386,3.479
		c-0.924,0.709-2.152,1.05-3.679,1.026c-1.552,0.024-2.778-0.317-3.681-1.026c-0.971-0.697-1.457-1.856-1.457-3.479V41.552z
		 M88.835,48.078c0,0.349,0.064,0.63,0.192,0.846c0.13,0.279,0.444,0.415,0.946,0.415c0.477,0,0.778-0.136,0.907-0.415
		c0.104-0.216,0.155-0.498,0.155-0.846v-6.525c0-0.396-0.052-0.71-0.155-0.938c-0.13-0.215-0.431-0.323-0.907-0.323
		c-0.503,0-0.817,0.108-0.946,0.323c-0.129,0.229-0.192,0.542-0.192,0.938V48.078z M99.524,36.561h3.33l-7.47,30.927h-3.55
		L99.524,36.561z M99.955,55.974c0-1.663,0.487-2.836,1.46-3.52c0.89-0.646,2.114-0.97,3.669-0.97c1.53,0,2.758,0.324,3.686,0.973
		c0.901,0.683,1.365,1.857,1.389,3.527v6.534c-0.025,1.619-0.487,2.771-1.389,3.455c-0.928,0.695-2.155,1.046-3.686,1.046
		c-1.555,0-2.777-0.35-3.669-1.043c-0.974-0.684-1.46-1.831-1.46-3.448V55.974z M103.955,62.529c0,0.339,0.064,0.619,0.19,0.85
		c0.14,0.267,0.454,0.397,0.938,0.397c0.471,0,0.778-0.132,0.919-0.397c0.103-0.229,0.152-0.511,0.152-0.85v-6.556
		c0-0.386-0.05-0.692-0.152-0.922c-0.142-0.217-0.448-0.324-0.919-0.324c-0.485,0-0.798,0.107-0.938,0.324
		c-0.127,0.229-0.19,0.536-0.19,0.922V62.529z"/>
	<path fill="#0081C3" d="M154.854,42.485c-0.498,0.795-1.058,1.587-1.68,2.38c-0.646,0.794-1.354,1.523-2.125,2.188
		c-1.466,1.483-3.38,2.229-5.737,2.229c-1.367,0-2.685-0.27-3.951-0.809c-1.269-0.464-2.534-1.065-3.801-1.811
		c-1.243-0.796-2.572-1.476-3.989-2.039c-1.415-0.591-3.019-0.887-4.807-0.887c-1.691,0.052-3.009,0.654-3.952,1.81
		c-1.02,1.155-1.839,2.502-2.458,4.041l-2.761-10.252c0.821-1.716,2-3.25,3.54-4.605c1.518-1.382,3.518-2.1,6.001-2.15
		c1.343,0,2.745,0.244,4.212,0.732c1.366,0.462,2.796,1.064,4.285,1.809c1.467,0.693,2.881,1.32,4.248,1.888
		c1.343,0.742,2.51,1.116,3.505,1.116c1.538,0,2.844-0.656,3.912-1.965c1.068-1.181,2.014-2.476,2.832-3.888L154.854,42.485z"/>
	<path fill="#0081C3" d="M165.735,8.052c2.39-0.107,4.766-0.718,7.13-1.829c1.182-0.542,2.168-1.263,2.954-2.155
		c0.813-0.839,1.444-1.844,1.891-3.009h12.021v65.474h-13.82V17.324h-10.175L165.735,8.052L165.735,8.052z"/>
	<path fill="#0081C3" d="M205.062,16.635C205.115,5.762,211.14,0.218,223.138,0c11.916,0.218,17.93,5.763,18.034,16.633v34.324
		c-0.104,10.816-6.118,16.376-18.034,16.672c-11.921-0.296-17.944-5.841-18.076-16.636V16.635z M219.375,52.094
		c0,1.655,0.394,2.769,1.175,3.339c0.697,0.598,1.555,0.895,2.569,0.895c1.018,0,1.903-0.298,2.659-0.895
		c0.667-0.57,1.029-1.684,1.088-3.339V15.577c-0.059-1.737-0.421-2.903-1.088-3.501c-0.756-0.517-1.644-0.774-2.659-0.774
		s-1.872,0.258-2.569,0.774c-0.781,0.598-1.175,1.764-1.175,3.501V52.094z"/>
	<path fill="#0081C3" d="M246.704,16.635C246.758,5.762,252.783,0.218,264.78,0c11.918,0.218,17.931,5.763,18.037,16.633v34.324
		c-0.106,10.816-6.119,16.376-18.037,16.672c-11.918-0.296-17.942-5.841-18.075-16.636L246.704,16.635L246.704,16.635z
		 M261.019,52.094c0,1.655,0.393,2.769,1.174,3.339c0.697,0.598,1.554,0.895,2.57,0.895c1.016,0,1.902-0.298,2.658-0.895
		c0.667-0.57,1.028-1.684,1.089-3.339V15.577c-0.061-1.737-0.422-2.903-1.089-3.501c-0.756-0.517-1.643-0.774-2.658-0.774
		c-1.017,0-1.873,0.258-2.57,0.774c-0.781,0.598-1.174,1.764-1.174,3.501V52.094z"/>
	<path fill="#0081C3" d="M289.897,41.552c0-1.683,0.484-2.864,1.457-3.551c0.899-0.634,2.127-0.954,3.68-0.954
		c1.527,0,2.754,0.32,3.68,0.956c0.899,0.686,1.361,1.867,1.386,3.551v6.523c-0.025,1.621-0.485,2.78-1.386,3.479
		c-0.926,0.709-2.151,1.05-3.68,1.026c-1.552,0.024-2.778-0.317-3.68-1.026c-0.973-0.697-1.457-1.856-1.457-3.479V41.552z
		 M293.896,48.078c0,0.349,0.063,0.63,0.19,0.846c0.13,0.279,0.444,0.415,0.946,0.415c0.478,0,0.779-0.136,0.908-0.415
		c0.102-0.216,0.153-0.498,0.153-0.846v-6.525c0-0.396-0.053-0.71-0.153-0.938c-0.13-0.215-0.433-0.323-0.908-0.323
		c-0.503,0-0.818,0.108-0.946,0.323c-0.128,0.229-0.19,0.542-0.19,0.938V48.078z M304.587,36.561h3.329l-7.469,30.927h-3.55
		L304.587,36.561z M305.018,55.974c0-1.663,0.487-2.836,1.461-3.52c0.889-0.646,2.113-0.97,3.668-0.97
		c1.53,0,2.759,0.324,3.686,0.973c0.901,0.683,1.364,1.857,1.39,3.527v6.534c-0.025,1.619-0.487,2.771-1.39,3.455
		c-0.927,0.695-2.154,1.046-3.686,1.046c-1.555,0-2.778-0.35-3.668-1.043c-0.974-0.684-1.461-1.831-1.461-3.448V55.974z
		 M309.016,62.529c0,0.339,0.063,0.619,0.189,0.85c0.141,0.267,0.454,0.397,0.939,0.397c0.471,0,0.778-0.132,0.919-0.397
		c0.103-0.229,0.151-0.511,0.151-0.85v-6.556c0-0.386-0.05-0.692-0.151-0.922c-0.141-0.217-0.448-0.324-0.919-0.324
		c-0.485,0-0.798,0.107-0.939,0.324c-0.128,0.229-0.189,0.536-0.189,0.922V62.529z"/>
</g>
</svg>
