<?xml version="1.0" encoding="utf-8"?>
<!-- Generator: Adobe Illustrator 16.0.0, SVG Export Plug-In . SVG Version: 6.00 Build 0)  -->
<!DOCTYPE svg PUBLIC "-//W3C//DTD SVG 1.1//EN" "http://www.w3.org/Graphics/SVG/1.1/DTD/svg11.dtd">
<svg version="1.1" id="圖層_1" xmlns="http://www.w3.org/2000/svg" xmlns:xlink="http://www.w3.org/1999/xlink" x="0px" y="0px"
	 width="38px" height="38px" viewBox="0 0 38 38" enable-background="new 0 0 38 38" xml:space="preserve">
<title>Group 77 Copy</title>
<desc>Created with Sketch.</desc>
<g id="Page-1">
	<g id="Group-77-Copy" transform="translate(1.000000, 1.000000)">
		<g id="Group-56-Copy-2">
			<circle id="Oval" fill="none" stroke="#F8F9FA" cx="18" cy="18" r="18"/>
		</g>
		<path id="_xE00B_-copy" fill="#F8F9FA" d="M19.748,11.125c-0.234,0-0.688,0.12-1.362,0.36s-1.011,0.935-1.011,2.083v2.619h-2.25
			v1.688h2.25v8.438h1.688v-8.438h2.443l0.404-1.688h-2.848v-2.672l0.097-0.343c0.064-0.229,0.296-0.343,0.694-0.343h1.459v-1.688
			h-1.459l-0.026-0.009C19.81,11.128,19.783,11.125,19.748,11.125z M19.748,10c0.023,0,0.047,0.003,0.07,0.009
			s0.047,0.009,0.07,0.009h1.441c0.305,0,0.565,0.108,0.782,0.325s0.325,0.483,0.325,0.8c0,0.012,0,0.021,0,0.026s0,0.015,0,0.026
			v1.635c0,0.305-0.111,0.568-0.334,0.791s-0.486,0.334-0.791,0.334h-1.125v1.107h1.723c0.176,0,0.343,0.038,0.501,0.114
			s0.29,0.19,0.396,0.343c0.105,0.141,0.176,0.296,0.211,0.466s0.023,0.343-0.035,0.519l-0.387,1.688
			c-0.07,0.234-0.205,0.428-0.404,0.58S21.764,19,21.506,19h-1.318v7.295c0,0.316-0.111,0.583-0.334,0.8s-0.486,0.325-0.791,0.325
			h-1.688c-0.316,0-0.583-0.108-0.8-0.325s-0.325-0.483-0.325-0.8V19h-1.125c-0.305,0-0.568-0.111-0.791-0.334S14,18.18,14,17.875
			v-1.688c0-0.152,0.029-0.296,0.088-0.431s0.141-0.255,0.246-0.36s0.226-0.188,0.36-0.246s0.278-0.088,0.431-0.088h1.125v-1.494
			c0-0.867,0.17-1.538,0.51-2.013s0.686-0.817,1.037-1.028c0.375-0.223,0.744-0.366,1.107-0.431S19.549,10,19.748,10z"/>
	</g>
</g>
</svg>
