<?xml version="1.0" encoding="utf-8"?>
<!-- Generator: Adobe Illustrator 16.0.0, SVG Export Plug-In . SVG Version: 6.00 Build 0)  -->
<!DOCTYPE svg PUBLIC "-//W3C//DTD SVG 1.1//EN" "http://www.w3.org/Graphics/SVG/1.1/DTD/svg11.dtd">
<svg version="1.1" id="圖層_1" xmlns="http://www.w3.org/2000/svg" xmlns:xlink="http://www.w3.org/1999/xlink" x="0px" y="0px"
	 width="75.117px" height="48.516px" viewBox="0 0 75.117 48.516" enable-background="new 0 0 75.117 48.516" xml:space="preserve">
<path fill="#EB4842" d="M70.677,48.516H4.44c-2.452,0-4.44-1.987-4.44-4.439V4.44C0,1.988,1.988,0,4.44,0h66.237
	c2.452,0,4.44,1.988,4.44,4.44v39.637C75.117,46.529,73.129,48.516,70.677,48.516"/>
<path fill="#1C3251" d="M36.307,24.258H0V4.329C0,1.938,1.938,0,4.329,0h31.978V24.258z"/>
<polygon fill="#F3F6ED" points="18.208,1.782 18.693,3.462 19.178,5.144 18.208,5.144 17.238,5.144 17.724,3.462 "/>
<polygon fill="#F3F6ED" points="13.008,3.066 14.268,4.279 15.529,5.493 14.689,5.977 13.848,6.462 13.428,4.764 "/>
<polygon fill="#F3F6ED" points="9.146,6.779 10.843,7.199 12.542,7.619 12.057,8.459 11.571,9.3 10.358,8.04 "/>
<polygon fill="#F3F6ED" points="7.657,11.925 9.338,11.44 11.019,10.954 11.019,11.925 11.019,12.895 9.338,12.409 "/>
<polygon fill="#F3F6ED" points="8.941,17.125 10.154,15.864 11.367,14.604 11.853,15.444 12.337,16.286 10.639,16.706 "/>
<polygon fill="#F3F6ED" points="12.654,20.988 13.074,19.29 13.495,17.591 14.335,18.077 15.175,18.562 13.915,19.775 "/>
<polygon fill="#F3F6ED" points="17.8,22.476 17.315,20.795 16.829,19.115 17.8,19.115 18.77,19.115 18.285,20.795 "/>
<polygon fill="#F3F6ED" points="23.001,21.192 21.74,19.979 20.48,18.766 21.32,18.281 22.161,17.795 22.581,19.494 "/>
<polygon fill="#F3F6ED" points="26.863,17.479 25.165,17.059 23.467,16.639 23.951,15.798 24.437,14.958 25.65,16.219 "/>
<polygon fill="#F3F6ED" points="28.352,12.333 26.67,12.818 24.99,13.303 24.99,12.333 24.99,11.362 26.67,11.848 "/>
<polygon fill="#F3F6ED" points="27.067,7.132 25.854,8.393 24.641,9.653 24.156,8.813 23.671,7.973 25.369,7.552 "/>
<polygon fill="#F3F6ED" points="23.355,3.27 22.935,4.968 22.514,6.666 21.674,6.181 20.834,5.697 22.094,4.483 "/>
<path fill="#F3F6ED" d="M23.592,11.168c0.637,3.879-2.669,7.185-6.547,6.548c-2.349-0.385-4.243-2.279-4.628-4.628
	c-0.636-3.878,2.669-7.183,6.547-6.547C21.312,6.926,23.207,8.82,23.592,11.168"/>
</svg>
