<?xml version="1.0" encoding="utf-8"?>
<!-- Generator: Adobe Illustrator 16.0.0, SVG Export Plug-In . SVG Version: 6.00 Build 0)  -->
<!DOCTYPE svg PUBLIC "-//W3C//DTD SVG 1.1//EN" "http://www.w3.org/Graphics/SVG/1.1/DTD/svg11.dtd">
<svg version="1.1" id="圖層_1" xmlns="http://www.w3.org/2000/svg" xmlns:xlink="http://www.w3.org/1999/xlink" x="0px" y="0px"
	 width="324.348px" height="318.832px" viewBox="-1.038 -2.27 324.348 318.832"
	 enable-background="new -1.038 -2.27 324.348 318.832" xml:space="preserve">
<path fill="#0083C2" d="M121.268,151.363l-10.762-18.959l-8.198,18.959H71.907l21.177-49.191L74.982,70.234v3.244H61.658v43.555
	l18.446-4.271v16.569L0,147.092v-16.397l4.271-0.854V41.538h21.862v83.522l5.807-1.368V19.676H1.539V3.962h76.687v15.714H61.657
	v38.087h8.2L92.572,1.4h30.232l-10.418,26.135h39.796v15.884h-4.101l-24.253,57.048l30.745,50.899L121.268,151.363L121.268,151.363z
	 M105.896,43.418l-7.174,17.079h-23.74v4.442h27.841l3.585,5.465l11.272-26.986H105.896z"/>
<path fill="#0083C2" d="M206.153,28.558v50.214l16.396-44.75h31.599l-18.276,50.046h7.003v67.293h-30.401V89.194h-6.319v37.915
	l-5.808,24.254h-31.768l6.491-28.182V12.16h60.976l-3.59-11.614h35.016l3.245,11.614h51.411v16.397H206.153z M255.343,126.77
	l-8.37-50.218h27.329l8.199,50.218H255.343z M315.977,70.232v81.131h-51.239l-8.54-16.056h28.866V70.232h-36.893V53.665h36.893
	V33.682h30.915v19.984h6.661v16.567H315.977z"/>
<path fill="none" stroke="#FFFFFF" stroke-width="1.3417" stroke-miterlimit="10" d="M117.682,43.348l-11.273,26.987l-3.584-5.466
	H74.982v-4.44h23.741l7.176-17.08H117.682L117.682,43.348z M154.572,151.293l-30.74-50.897l24.252-57.048h4.099V27.464h-39.794
	l10.416-26.131H92.572L69.858,57.694h-8.199V19.607h16.57V3.894H1.539v15.713h30.402v104.016l-5.807,1.369V41.47H4.273v88.301
	L0,130.625v16.396l80.104-17.762v-16.568l-18.445,4.271V73.408h13.323v-3.245l18.104,31.938l-21.178,49.191h30.401l8.196-18.959
	l10.762,18.959H154.572L154.572,151.293z"/>
<path fill="none" stroke="#FFFFFF" stroke-width="1.3417" stroke-miterlimit="10" d="M282.501,126.697l-8.197-50.215h-27.331
	l8.37,50.215H282.501z M322.127,28.489V12.091h-51.408l-3.247-11.613h-35.016l3.588,11.613H175.07V123.11l-6.488,28.183h31.769
	l5.807-24.251V89.123h6.321v62.17h30.399V84h-7.001l18.275-50.045h-31.6l-16.396,44.75V28.489H322.127L322.127,28.489z
	 M322.638,70.163V53.597h-6.662V33.612h-30.914v19.985h-36.892v16.567h36.892v65.073h-28.864l8.54,16.056h51.236v-81.13H322.638z"/>
<line fill="none" stroke="#FFFFFF" stroke-width="1.3417" stroke-linecap="round" stroke-miterlimit="10" x1="1.499" y1="11.977" x2="19.611" y2="11.977"/>
<line fill="none" stroke="#FFFFFF" stroke-width="1.3417" stroke-linecap="round" stroke-miterlimit="10" x1="23.636" y1="11.977" x2="26.32" y2="11.977"/>
<line fill="none" stroke="#FFFFFF" stroke-width="1.3417" stroke-linecap="round" stroke-miterlimit="10" x1="0.309" y1="138.948" x2="53.976" y2="126.873"/>
<line fill="none" stroke="#FFFFFF" stroke-width="1.3417" stroke-linecap="round" stroke-miterlimit="10" x1="57.678" y1="126.092" x2="73.11" y2="122.414"/>
<line fill="none" stroke="#FFFFFF" stroke-width="1.3417" stroke-linecap="round" stroke-miterlimit="10" x1="58.52" y1="11.977" x2="71.936" y2="11.977"/>
<line fill="none" stroke="#FFFFFF" stroke-width="1.3417" stroke-linecap="round" stroke-miterlimit="10" x1="58.52" y1="66.986" x2="68.582" y2="66.986"/>
<line fill="none" stroke="#FFFFFF" stroke-width="1.3417" stroke-linecap="round" stroke-miterlimit="10" x1="75.123" y1="143.153" x2="88.39" y2="143.153"/>
<line fill="none" stroke="#FFFFFF" stroke-width="1.3417" stroke-linecap="round" stroke-miterlimit="10" x1="69.506" y1="52.312" x2="92.725" y2="52.312"/>
<line fill="none" stroke="#FFFFFF" stroke-width="1.3417" stroke-linecap="round" stroke-miterlimit="10" x1="203.225" y1="19.356" x2="284.868" y2="19.356"/>
<line fill="none" stroke="#FFFFFF" stroke-width="1.3417" stroke-linecap="round" stroke-miterlimit="10" x1="103.215" y1="35.959" x2="114.824" y2="35.959"/>
<line fill="none" stroke="#FFFFFF" stroke-width="1.3417" stroke-linecap="round" stroke-miterlimit="10" x1="145.007" y1="35.959" x2="146.899" y2="35.959"/>
<line fill="none" stroke="#FFFFFF" stroke-width="1.3417" stroke-linecap="round" stroke-miterlimit="10" x1="91.013" y1="143.153" x2="96.548" y2="143.153"/>
<line fill="none" stroke="#FFFFFF" stroke-width="1.3417" stroke-linecap="round" stroke-miterlimit="10" x1="120.404" y1="143.153" x2="134.738" y2="143.153"/>
<line fill="none" stroke="#FFFFFF" stroke-width="1.3417" stroke-linecap="round" stroke-miterlimit="10" x1="137.568" y1="143.153" x2="143.548" y2="143.153"/>
<line fill="none" stroke="#FFFFFF" stroke-width="1.3417" stroke-linecap="round" stroke-miterlimit="10" x1="291.719" y1="19.356" x2="313.936" y2="19.356"/>
<line fill="none" stroke="#FFFFFF" stroke-width="1.3417" stroke-linecap="round" stroke-miterlimit="10" x1="170.045" y1="142.119" x2="193.19" y2="142.119"/>
<line fill="none" stroke="#FFFFFF" stroke-width="1.3417" stroke-linecap="round" stroke-miterlimit="10" x1="211.637" y1="142.119" x2="235.284" y2="142.119"/>
<line fill="none" stroke="#FFFFFF" stroke-width="1.3417" stroke-linecap="round" stroke-miterlimit="10" x1="263.46" y1="142.119" x2="295.464" y2="142.119"/>
<line fill="none" stroke="#FFFFFF" stroke-width="1.3417" stroke-linecap="round" stroke-miterlimit="10" x1="253.9" y1="118.64" x2="273.521" y2="118.64"/>
<line fill="none" stroke="#FFFFFF" stroke-width="1.3417" stroke-linecap="round" stroke-miterlimit="10" x1="301.22" y1="141.896" x2="308.179" y2="141.896"/>
<line fill="none" stroke="#FFFFFF" stroke-width="1.3417" stroke-linecap="round" stroke-miterlimit="10" x1="247.192" y1="63.129" x2="273.521" y2="63.129"/>
<line fill="none" stroke="#FFFFFF" stroke-width="1.3417" stroke-linecap="round" stroke-miterlimit="10" x1="278.05" y1="63.129" x2="280.901" y2="63.129"/>
<line fill="none" stroke="#FFFFFF" stroke-width="1.3417" stroke-linecap="round" stroke-miterlimit="10" x1="313.1" y1="63.129" x2="316.372" y2="63.129"/>
<line fill="none" stroke="#FFFFFF" stroke-width="1.3417" stroke-linecap="round" stroke-miterlimit="10" x1="202.331" y1="81.786" x2="207.99" y2="81.786"/>
<line fill="none" stroke="#FFFFFF" stroke-width="1.3417" stroke-linecap="round" stroke-miterlimit="10" x1="18.773" y1="40.823" x2="18.773" y2="105.223"/>
<line fill="none" stroke="#FFFFFF" stroke-width="1.3417" stroke-linecap="round" stroke-miterlimit="10" x1="18.773" y1="108.913" x2="18.773" y2="119.31"/>
<line fill="none" stroke="#FFFFFF" stroke-width="1.3417" stroke-linecap="round" stroke-miterlimit="10" x1="71.936" y1="1.747" x2="71.936" y2="7.449"/>
<line fill="none" stroke="#FFFFFF" stroke-width="1.3417" stroke-linecap="round" stroke-miterlimit="10" x1="54.494" y1="15.835" x2="54.494" y2="40.823"/>
<line fill="none" stroke="#FFFFFF" stroke-width="1.3417" stroke-linecap="round" stroke-miterlimit="10" x1="54.494" y1="45.183" x2="54.494" y2="50.886"/>
<line fill="none" stroke="#FFFFFF" stroke-width="1.3417" stroke-linecap="round" stroke-miterlimit="10" x1="54.494" y1="69.334" x2="54.494" y2="99.353"/>
<line fill="none" stroke="#FFFFFF" stroke-width="1.3417" stroke-linecap="round" stroke-miterlimit="10" x1="54.494" y1="104.049" x2="54.494" y2="111.763"/>
<line fill="none" stroke="#FFFFFF" stroke-width="1.3417" stroke-linecap="round" stroke-miterlimit="10" x1="71.936" y1="111.763" x2="71.936" y2="118.472"/>
<line fill="none" stroke="#FFFFFF" stroke-width="1.3417" stroke-linecap="round" stroke-miterlimit="10" x1="115.541" y1="-0.433" x2="106.485" y2="21.705"/>
<line fill="none" stroke="#FFFFFF" stroke-width="1.3417" stroke-linecap="round" stroke-miterlimit="10" x1="99.105" y1="37.804" x2="94.241" y2="48.035"/>
<line fill="none" stroke="#FFFFFF" stroke-width="1.3417" stroke-linecap="round" stroke-miterlimit="10" x1="145.953" y1="26.232" x2="145.953" y2="32.438"/>
<line fill="none" stroke="#FFFFFF" stroke-width="1.3417" stroke-linecap="round" stroke-miterlimit="10" x1="140.559" y1="39.482" x2="124.597" y2="76.377"/>
<line fill="none" stroke="#FFFFFF" stroke-width="1.3417" stroke-linecap="round" stroke-miterlimit="10" x1="123.255" y1="79.061" x2="117.721" y2="92.477"/>
<line fill="none" stroke="#FFFFFF" stroke-width="1.3417" stroke-linecap="round" stroke-miterlimit="10" x1="103.968" y1="127.528" x2="98.434" y2="138.897"/>
<line fill="none" stroke="#FFFFFF" stroke-width="1.3417" stroke-linecap="round" stroke-miterlimit="10" x1="261.111" y1="-1.599" x2="263.46" y2="8.121"/>
<line fill="none" stroke="#FFFFFF" stroke-width="1.3417" stroke-linecap="round" stroke-miterlimit="10" x1="313.939" y1="10.635" x2="313.939" y2="16.84"/>
<line fill="none" stroke="#FFFFFF" stroke-width="1.3417" stroke-linecap="round" stroke-miterlimit="10" x1="198.221" y1="24.053" x2="198.303" y2="121.475"/>
<line fill="none" stroke="#FFFFFF" stroke-width="1.3417" stroke-linecap="round" stroke-miterlimit="10" x1="197.718" y1="125.683" x2="194.699" y2="136.416"/>
<line fill="none" stroke="#FFFFFF" stroke-width="1.3417" stroke-linecap="round" stroke-miterlimit="10" x1="236.291" y1="83.42" x2="235.284" y2="125.683"/>
<line fill="none" stroke="#FFFFFF" stroke-width="1.3417" stroke-linecap="round" stroke-miterlimit="10" x1="235.284" y1="128.871" x2="235.284" y2="138.897"/>
<line fill="none" stroke="#FFFFFF" stroke-width="1.3417" stroke-linecap="round" stroke-miterlimit="10" x1="266.646" y1="75.708" x2="270.839" y2="102.204"/>
<line fill="none" stroke="#FFFFFF" stroke-width="1.3417" stroke-linecap="round" stroke-miterlimit="10" x1="271.174" y1="105.391" x2="272.683" y2="113.776"/>
<line fill="none" stroke="#FFFFFF" stroke-width="1.3417" stroke-linecap="round" stroke-miterlimit="10" x1="245.234" y1="32.438" x2="231.595" y2="68.551"/>
<line fill="none" stroke="#FFFFFF" stroke-width="1.3417" stroke-linecap="round" stroke-miterlimit="10" x1="230.253" y1="72.763" x2="228.464" y2="79.061"/>
<line fill="none" stroke="#FFFFFF" stroke-width="1.3417" stroke-linecap="round" stroke-miterlimit="10" x1="308.179" y1="32.438" x2="308.179" y2="48.202"/>
<line fill="none" stroke="#FFFFFF" stroke-width="1.3417" stroke-linecap="round" stroke-miterlimit="10" x1="308.179" y1="66.762" x2="308.179" y2="121.323"/>
<line fill="none" stroke="#FFFFFF" stroke-width="1.3417" stroke-linecap="round" stroke-miterlimit="10" x1="308.179" y1="125.683" x2="308.179" y2="136.53"/>
<line fill="none" stroke="#FFFFFF" stroke-width="1.3417" stroke-linecap="round" stroke-miterlimit="10" x1="316.455" y1="52.06" x2="316.287" y2="58.936"/>
<line fill="none" stroke="#FFFFFF" stroke-width="1.3417" stroke-linecap="round" stroke-miterlimit="10" x1="116.547" y1="98.514" x2="132.576" y2="125.683"/>
<line fill="none" stroke="#FFFFFF" stroke-width="1.3417" stroke-linecap="round" stroke-miterlimit="10" x1="134.738" y1="129.708" x2="140.746" y2="138.982"/>
<g>
	<path fill="#E22753" d="M52.611,251.229H40.141l2.905-27.497l-6.492,14.518v77.712H7.519v-64.563H0l24.085-52.776H2.393v-16.228
		h10.593l-3.076-17.248h31.77l3.246,17.248h9.394v16.57l-8.541,18.787h10.593L52.611,251.229z M42.534,296.66l-2.902-39.624h12.466
		l3.245,39.624H42.534z M119.395,195.55v10.76h31.254v109.652h-24.766l-5.635-15.882h7.686v-15.716h-8.54v31.597H90.187v-31.597
		h-8.539v31.597H59.102V206.309h31.085v-10.761H56.538v-16.228h33.648v-14.175h29.208v14.174h6.32l-1.369-11.614h22.889
		l1.707,11.614h4.271v16.228L119.395,195.55L119.395,195.55z M90.188,222.533h-8.54v15.03h8.54V222.533z M90.188,252.937h-8.54
		v15.542h8.54V252.937z M127.935,222.533h-8.54v15.03h8.54V222.533z M127.935,252.937h-8.54v15.542h8.54V252.937z"/>
	<path fill="#E22753" d="M290.019,315.277l-8.195-16.565h12.297v-91.548h-8.027v79.934l-12.812,28.18h-30.232l2.906-7.001
		l-73.956,5.977v-16.227l5.464-0.511V167.196h70.029v124.341l5.977-0.515l4.269-8.369v-75.491h-6.49v-16.911h6.49v-25.449h28.354
		v25.45h35.527v125.023H290.019L290.019,315.277z M218.969,184.104h-12.812v25.621h12.812V184.104z M218.969,225.95h-12.812v25.622
		h12.812V225.95z M218.969,268.138h-12.812v26.984l12.812-1.023V268.138z"/>
	<path fill="none" stroke="#FFFFFF" stroke-width="1.3417" stroke-miterlimit="10" d="M90.188,268.408h-8.54v-15.542h8.54V268.408z
		 M90.188,237.495h-8.54v-15.029h8.54V237.495z M127.932,268.408h-8.539v-15.542h8.539V268.408z M127.932,237.495h-8.539v-15.029
		h8.539V237.495z M55.345,296.591l-3.246-39.625H39.631l2.904,39.625H55.345z M56.368,217.683H45.781l8.538-18.788v-16.566h-9.395
		l-3.244-17.251H9.912l3.073,17.251H2.394v16.226h21.694L0.005,251.332H7.52v64.559h29.037v-77.712l6.49-14.517l-2.903,27.497h12.47
		L56.368,217.683z M153.213,195.479v-16.226h-4.273l-1.705-11.613h-22.886l1.366,11.613h-6.321v-14.175H90.188v14.174H56.542v16.227
		h33.646v10.759H59.102v109.653h22.546v-31.597h8.54v31.597h29.206v-31.597h8.539v15.714h-7.684l5.635,15.882h24.767V206.238h-31.26
		v-10.76H153.213z"/>
	<path fill="none" stroke="#FFFFFF" stroke-width="1.3417" stroke-miterlimit="10" d="M218.969,294.028l-12.812,1.025v-26.984
		h12.812V294.028z M218.969,251.501h-12.812v-25.619h12.812V251.501z M218.969,209.656h-12.812v-25.623h12.812V209.656z
		 M321.617,315.209V190.184h-35.526v-25.448h-28.35v25.448h-6.491v16.909h6.491v75.492l-4.271,8.37l-5.978,0.514V167.126h-70.026
		v130.318l-5.467,0.512v16.226l73.954-5.977l-2.904,7.003h30.233l12.808-28.183v-79.933h8.03v91.548h-12.299l8.197,16.568H321.617z"
		/>
	
		<line fill="none" stroke="#FFFFFF" stroke-width="1.3417" stroke-linecap="round" stroke-miterlimit="10" x1="1.214" y1="189.986" x2="19.997" y2="189.986"/>
	
		<line fill="none" stroke="#FFFFFF" stroke-width="1.3417" stroke-linecap="round" stroke-miterlimit="10" x1="56.39" y1="187.304" x2="85.571" y2="187.304"/>
	
		<line fill="none" stroke="#FFFFFF" stroke-width="1.3417" stroke-linecap="round" stroke-miterlimit="10" x1="115.926" y1="187.304" x2="146.281" y2="187.304"/>
	
		<line fill="none" stroke="#FFFFFF" stroke-width="1.3417" stroke-linecap="round" stroke-miterlimit="10" x1="77.185" y1="214.975" x2="85.571" y2="214.975"/>
	
		<line fill="none" stroke="#FFFFFF" stroke-width="1.3417" stroke-linecap="round" stroke-miterlimit="10" x1="114.92" y1="214.975" x2="123.472" y2="214.975"/>
	
		<line fill="none" stroke="#FFFFFF" stroke-width="1.3417" stroke-linecap="round" stroke-miterlimit="10" x1="77.185" y1="245.163" x2="85.571" y2="245.163"/>
	
		<line fill="none" stroke="#FFFFFF" stroke-width="1.3417" stroke-linecap="round" stroke-miterlimit="10" x1="115.926" y1="245.163" x2="123.472" y2="245.163"/>
	
		<line fill="none" stroke="#FFFFFF" stroke-width="1.3417" stroke-linecap="round" stroke-miterlimit="10" x1="77.185" y1="276.355" x2="85.571" y2="276.355"/>
	
		<line fill="none" stroke="#FFFFFF" stroke-width="1.3417" stroke-linecap="round" stroke-miterlimit="10" x1="114.92" y1="276.355" x2="123.472" y2="276.355"/>
	
		<line fill="none" stroke="#FFFFFF" stroke-width="1.3417" stroke-linecap="round" stroke-miterlimit="10" x1="5.574" y1="307.885" x2="23.687" y2="307.885"/>
	
		<line fill="none" stroke="#FFFFFF" stroke-width="1.3417" stroke-linecap="round" stroke-miterlimit="10" x1="26.202" y1="307.885" x2="31.1" y2="307.885"/>
	
		<line fill="none" stroke="#FFFFFF" stroke-width="1.3417" stroke-linecap="round" stroke-miterlimit="10" x1="40.457" y1="289.94" x2="49.682" y2="289.94"/>
	
		<line fill="none" stroke="#FFFFFF" stroke-width="1.3417" stroke-linecap="round" stroke-miterlimit="10" x1="38.277" y1="243.318" x2="46.997" y2="243.318"/>
	
		<line fill="none" stroke="#FFFFFF" stroke-width="1.3417" stroke-linecap="round" stroke-miterlimit="10" x1="56.724" y1="307.885" x2="69.637" y2="307.885"/>
	
		<line fill="none" stroke="#FFFFFF" stroke-width="1.3417" stroke-linecap="round" stroke-miterlimit="10" x1="72.49" y1="307.885" x2="75.844" y2="307.885"/>
	
		<line fill="none" stroke="#FFFFFF" stroke-width="1.3417" stroke-linecap="round" stroke-miterlimit="10" x1="88.59" y1="307.885" x2="105.528" y2="307.885"/>
	
		<line fill="none" stroke="#FFFFFF" stroke-width="1.3417" stroke-linecap="round" stroke-miterlimit="10" x1="108.882" y1="307.885" x2="114.082" y2="307.885"/>
	
		<line fill="none" stroke="#FFFFFF" stroke-width="1.3417" stroke-linecap="round" stroke-miterlimit="10" x1="123.472" y1="307.885" x2="137.728" y2="307.885"/>
	
		<line fill="none" stroke="#FFFFFF" stroke-width="1.3417" stroke-linecap="round" stroke-miterlimit="10" x1="139.908" y1="307.885" x2="144.605" y2="307.885"/>
	
		<line fill="none" stroke="#FFFFFF" stroke-width="1.3417" stroke-linecap="round" stroke-miterlimit="10" x1="245.452" y1="305.257" x2="267.59" y2="305.257"/>
	
		<line fill="none" stroke="#FFFFFF" stroke-width="1.3417" stroke-linecap="round" stroke-miterlimit="10" x1="288.608" y1="305.257" x2="314.099" y2="305.257"/>
	
		<line fill="none" stroke="#FFFFFF" stroke-width="1.3417" stroke-linecap="round" stroke-miterlimit="10" x1="170.989" y1="305.257" x2="229.574" y2="300.339"/>
	
		<line fill="none" stroke="#FFFFFF" stroke-width="1.3417" stroke-linecap="round" stroke-miterlimit="10" x1="234.719" y1="299.667" x2="245.452" y2="298.551"/>
	
		<line fill="none" stroke="#FFFFFF" stroke-width="1.3417" stroke-linecap="round" stroke-miterlimit="10" x1="203.189" y1="260.76" x2="214.816" y2="260.76"/>
	
		<line fill="none" stroke="#FFFFFF" stroke-width="1.3417" stroke-linecap="round" stroke-miterlimit="10" x1="203.189" y1="217.378" x2="213.7" y2="217.378"/>
	
		<line fill="none" stroke="#FFFFFF" stroke-width="1.3417" stroke-linecap="round" stroke-miterlimit="10" x1="249.029" y1="199.491" x2="253.053" y2="199.491"/>
	
		<line fill="none" stroke="#FFFFFF" stroke-width="1.3417" stroke-linecap="round" stroke-miterlimit="10" x1="282.796" y1="199.491" x2="288.608" y2="199.491"/>
	
		<line fill="none" stroke="#FFFFFF" stroke-width="1.3417" stroke-linecap="round" stroke-miterlimit="10" x1="142.257" y1="205.284" x2="142.257" y2="280.968"/>
	
		<line fill="none" stroke="#FFFFFF" stroke-width="1.3417" stroke-linecap="round" stroke-miterlimit="10" x1="142.257" y1="287.226" x2="142.257" y2="300.787"/>
	
		<line fill="none" stroke="#FFFFFF" stroke-width="1.3417" stroke-linecap="round" stroke-miterlimit="10" x1="32.462" y1="163.824" x2="35.704" y2="176.57"/>
	
		<line fill="none" stroke="#FFFFFF" stroke-width="1.3417" stroke-linecap="round" stroke-miterlimit="10" x1="46.437" y1="180.595" x2="46.535" y2="190.783"/>
	
		<line fill="none" stroke="#FFFFFF" stroke-width="1.3417" stroke-linecap="round" stroke-miterlimit="10" x1="46.116" y1="195.186" x2="30.115" y2="231.019"/>
	
		<line fill="none" stroke="#FFFFFF" stroke-width="1.3417" stroke-linecap="round" stroke-miterlimit="10" x1="29.556" y1="234.765" x2="29.891" y2="293.127"/>
	
		<line fill="none" stroke="#FFFFFF" stroke-width="1.3417" stroke-linecap="round" stroke-miterlimit="10" x1="29.725" y1="296.146" x2="29.725" y2="304.531"/>
	
		<line fill="none" stroke="#FFFFFF" stroke-width="1.3417" stroke-linecap="round" stroke-miterlimit="10" x1="49.682" y1="215.813" x2="47.221" y2="231.047"/>
	
		<line fill="none" stroke="#FFFFFF" stroke-width="1.3417" stroke-linecap="round" stroke-miterlimit="10" x1="46.997" y1="233.926" x2="46.494" y2="239.461"/>
	
		<line fill="none" stroke="#FFFFFF" stroke-width="1.3417" stroke-linecap="round" stroke-miterlimit="10" x1="45.07" y1="256.957" x2="46.995" y2="278.201"/>
	
		<line fill="none" stroke="#FFFFFF" stroke-width="1.3417" stroke-linecap="round" stroke-miterlimit="10" x1="47.192" y1="280.939" x2="47.723" y2="287.202"/>
	
		<line fill="none" stroke="#FFFFFF" stroke-width="1.3417" stroke-linecap="round" stroke-miterlimit="10" x1="111.398" y1="163.657" x2="111.398" y2="173.887"/>
	
		<line fill="none" stroke="#FFFFFF" stroke-width="1.3417" stroke-linecap="round" stroke-miterlimit="10" x1="146.281" y1="177.241" x2="146.281" y2="183.614"/>
	
		<line fill="none" stroke="#FFFFFF" stroke-width="1.3417" stroke-linecap="round" stroke-miterlimit="10" x1="140.58" y1="165.342" x2="142.089" y2="174.893"/>
	
		<line fill="none" stroke="#FFFFFF" stroke-width="1.3417" stroke-linecap="round" stroke-miterlimit="10" x1="112.74" y1="191.496" x2="112.74" y2="201.056"/>
	
		<line fill="none" stroke="#FFFFFF" stroke-width="1.3417" stroke-linecap="round" stroke-miterlimit="10" x1="112.74" y1="219.757" x2="112.74" y2="233.09"/>
	
		<line fill="none" stroke="#FFFFFF" stroke-width="1.3417" stroke-linecap="round" stroke-miterlimit="10" x1="112.74" y1="250.613" x2="112.74" y2="263.948"/>
	
		<line fill="none" stroke="#FFFFFF" stroke-width="1.3417" stroke-linecap="round" stroke-miterlimit="10" x1="74.838" y1="219.757" x2="74.838" y2="233.09"/>
	
		<line fill="none" stroke="#FFFFFF" stroke-width="1.3417" stroke-linecap="round" stroke-miterlimit="10" x1="74.838" y1="250.613" x2="74.838" y2="263.948"/>
	
		<line fill="none" stroke="#FFFFFF" stroke-width="1.3417" stroke-linecap="round" stroke-miterlimit="10" x1="112.74" y1="280.968" x2="112.74" y2="304.049"/>
	
		<line fill="none" stroke="#FFFFFF" stroke-width="1.3417" stroke-linecap="round" stroke-miterlimit="10" x1="74.166" y1="280.968" x2="74.166" y2="304.049"/>
	
		<line fill="none" stroke="#FFFFFF" stroke-width="1.3417" stroke-linecap="round" stroke-miterlimit="10" x1="199.387" y1="180.428" x2="199.387" y2="205.286"/>
	
		<line fill="none" stroke="#FFFFFF" stroke-width="1.3417" stroke-linecap="round" stroke-miterlimit="10" x1="199.387" y1="222.523" x2="199.387" y2="247.342"/>
	
		<line fill="none" stroke="#FFFFFF" stroke-width="1.3417" stroke-linecap="round" stroke-miterlimit="10" x1="199.387" y1="264.785" x2="199.387" y2="291.172"/>
	
		<line fill="none" stroke="#FFFFFF" stroke-width="1.3417" stroke-linecap="round" stroke-miterlimit="10" x1="238.295" y1="167.29" x2="238.295" y2="269.702"/>
	
		<line fill="none" stroke="#FFFFFF" stroke-width="1.3417" stroke-linecap="round" stroke-miterlimit="10" x1="238.295" y1="273.952" x2="238.295" y2="287.226"/>
	
		<line fill="none" stroke="#FFFFFF" stroke-width="1.3417" stroke-linecap="round" stroke-miterlimit="10" x1="277.652" y1="163.657" x2="277.652" y2="183.614"/>
	
		<line fill="none" stroke="#FFFFFF" stroke-width="1.3417" stroke-linecap="round" stroke-miterlimit="10" x1="277.652" y1="203.739" x2="277.652" y2="277.978"/>
	
		<line fill="none" stroke="#FFFFFF" stroke-width="1.3417" stroke-linecap="round" stroke-miterlimit="10" x1="276.309" y1="283.12" x2="269.37" y2="299.11"/>
	
		<line fill="none" stroke="#FFFFFF" stroke-width="1.3417" stroke-linecap="round" stroke-miterlimit="10" x1="314.099" y1="190.769" x2="314.099" y2="272.834"/>
	
		<line fill="none" stroke="#FFFFFF" stroke-width="1.3417" stroke-linecap="round" stroke-miterlimit="10" x1="314.099" y1="277.978" x2="314.099" y2="297.877"/>
</g>
</svg>
