<?xml version="1.0" encoding="utf-8"?>
<!-- Generator: Adobe Illustrator 16.0.0, SVG Export Plug-In . SVG Version: 6.00 Build 0)  -->
<!DOCTYPE svg PUBLIC "-//W3C//DTD SVG 1.1//EN" "http://www.w3.org/Graphics/SVG/1.1/DTD/svg11.dtd">
<svg version="1.1" id="圖層_1" xmlns="http://www.w3.org/2000/svg" xmlns:xlink="http://www.w3.org/1999/xlink" x="0px" y="0px"
	 width="38px" height="38px" viewBox="0 0 38 38" enable-background="new 0 0 38 38" xml:space="preserve">
<title>line (1) copy 2</title>
<desc>Created with Sketch.</desc>
<g id="Page-1">
	<g id="line-_x28_1_x29_-copy-2" transform="translate(1.000000, 1.000000)">
		<circle id="Oval" fill="none" stroke="#F8F9FA" cx="18" cy="18" r="18"/>
		<g id="Group-24" transform="translate(9.000000, 9.000000)">
			<path id="Shape" fill="none" stroke="#F8F9FA" d="M18.188,8.187c0.042-0.221,0.063-0.407,0.072-0.552
				c0.016-0.241-0.002-0.598-0.008-0.71C18.029,3.071,14.031,0,9.13,0C4.088,0,0,3.251,0,7.262c0,3.687,3.454,6.732,7.928,7.201
				c0.273,0.027,0.471,0.275,0.44,0.549l-0.19,1.714c-0.043,0.39,0.359,0.673,0.712,0.503c3.78-1.825,6.04-3.701,7.39-5.328
				c0.246-0.295,1.047-1.418,1.211-1.713C17.836,9.563,18.075,8.89,18.188,8.187z"/>
			<g id="Group" transform="translate(2.587912, 5.212912)">
				<path id="Shape_1_" fill="#F8F9FA" d="M0.934,3.526V0.467C0.934,0.209,0.725,0,0.467,0C0.209,0,0,0.209,0,0.467v3.526
					c0,0.258,0.209,0.468,0.467,0.468h1.868c0.258,0,0.467-0.21,0.467-0.468S2.593,3.526,2.335,3.526H0.934L0.934,3.526z"/>
				<path id="Shape_2_" fill="#F8F9FA" d="M3.998,4.461H3.793c-0.202,0-0.365-0.164-0.365-0.366v-3.73C3.429,0.164,3.592,0,3.793,0
					h0.204c0.202,0,0.365,0.164,0.365,0.365v3.73C4.363,4.297,4.199,4.461,3.998,4.461z"/>
				<path id="Shape_3_" fill="#F8F9FA" d="M7.852,0.467v2.154c0,0-1.865-2.433-1.894-2.465C5.869,0.056,5.737-0.005,5.592,0
					C5.338,0.01,5.143,0.232,5.143,0.486v3.507c0,0.258,0.209,0.468,0.467,0.468c0.258,0,0.467-0.21,0.467-0.468V1.852
					c0,0,1.894,2.455,1.921,2.48C8.081,4.41,8.191,4.459,8.314,4.46c0.26,0.003,0.471-0.227,0.471-0.486V0.467
					C8.785,0.209,8.576,0,8.318,0S7.852,0.209,7.852,0.467z"/>
				<path id="Shape_4_" fill="#F8F9FA" d="M12.23,0.467C12.23,0.209,12.021,0,11.764,0H9.895C9.638,0,9.429,0.209,9.429,0.467v3.526
					c0,0.258,0.209,0.468,0.467,0.468h1.868c0.258,0,0.467-0.21,0.467-0.468s-0.209-0.467-0.467-0.467h-1.4V2.697h1.4
					c0.258,0,0.467-0.209,0.467-0.467c0-0.258-0.209-0.467-0.467-0.467h-1.4V0.934h1.4C12.021,0.934,12.23,0.725,12.23,0.467z"/>
			</g>
		</g>
	</g>
</g>
</svg>
