<?xml version="1.0" encoding="utf-8"?>
<!-- Generator: Adobe Illustrator 16.0.0, SVG Export Plug-In . SVG Version: 6.00 Build 0)  -->
<!DOCTYPE svg PUBLIC "-//W3C//DTD SVG 1.1//EN" "http://www.w3.org/Graphics/SVG/1.1/DTD/svg11.dtd">
<svg version="1.1" id="e18ebc6e-17e0-463f-bef8-5e03a9b69a2f"
	 xmlns="http://www.w3.org/2000/svg" xmlns:xlink="http://www.w3.org/1999/xlink" x="0px" y="0px" width="941.404px"
	 height="435.42px" viewBox="0 0 941.404 435.42" enable-background="new 0 0 941.404 435.42" xml:space="preserve">
<title>online_test</title>
<path fill="#3F3D56" d="M84.494,414.523l-1.268-0.475c-0.278-0.104-27.992-10.724-40.975-34.8
	c-12.983-24.077-6.626-53.066-6.561-53.355l0.299-1.32l1.267,0.475c0.279,0.105,27.992,10.723,40.976,34.799
	c12.982,24.078,6.626,53.067,6.56,53.357L84.494,414.523z M44.33,378.128c10.977,20.357,32.877,30.792,38.426,33.174
	c1.056-5.947,4.364-29.996-6.603-50.334c-10.965-20.334-32.874-30.785-38.426-33.174C36.672,333.745,33.364,357.792,44.33,378.128z"
	/>
<path fill="#D0CDE1" d="M52.173,370.804c23.332,14.037,32.317,41.918,32.317,41.918s-28.842,5.123-52.173-8.914
	C8.985,389.771,0,361.89,0,361.89S28.842,356.767,52.173,370.804z"/>
<path fill="#3F3D56" d="M798.85,5.362H538.681V0H420.71v5.362H159.468c-9.719,0-17.599,7.879-17.599,17.599l0,0v356.252
	c0,9.72,7.88,17.599,17.599,17.599H798.85c9.72,0,17.599-7.879,17.599-17.599l0,0V22.961C816.449,13.241,808.57,5.362,798.85,5.362
	L798.85,5.362z"/>
<rect x="165.464" y="36.464" fill="#0083C2" width="627.392" height="353.913"/>
<circle fill="#0083C2" cx="478.623" cy="20.377" r="6.435"/>
<path fill="#3F3D56" d="M756.839,81.507h-29.74v-29.74h29.74V81.507z M728.391,80.214h27.153V53.06h-27.153V80.214z"/>
<path fill="#3F3D56" d="M834.065,383.942h-61.229v-4.412c0-0.482-0.392-0.875-0.875-0.875l0,0h-20.992
	c-0.483,0-0.875,0.393-0.875,0.875l0,0v4.412h-13.12v-4.412c0-0.482-0.393-0.875-0.875-0.875l0,0h-20.993
	c-0.483,0-0.875,0.393-0.875,0.875l0,0v4.412h-13.12v-4.412c0-0.482-0.392-0.875-0.875-0.875l0,0h-20.993
	c-0.482,0-0.874,0.393-0.874,0.875l0,0v4.412h-13.121v-4.412c0-0.482-0.392-0.875-0.874-0.875l0,0H643.38
	c-0.483,0-0.875,0.393-0.875,0.875l0,0v4.412h-13.12v-4.412c0-0.482-0.392-0.875-0.875-0.875l0,0h-20.993
	c-0.482,0-0.875,0.393-0.875,0.875l0,0v4.412h-13.12v-4.412c0-0.482-0.392-0.875-0.875-0.875l0,0h-20.992
	c-0.483,0-0.875,0.393-0.875,0.875l0,0v4.412h-13.121v-4.412c0-0.482-0.392-0.875-0.874-0.875l0,0H392.34
	c-0.483,0-0.875,0.393-0.875,0.875l0,0v4.412h-13.12v-4.412c0-0.482-0.392-0.875-0.875-0.875l0,0h-20.993
	c-0.483,0-0.875,0.393-0.875,0.875l0,0v4.412h-13.12v-4.412c0-0.482-0.392-0.875-0.875-0.875l0,0h-20.992
	c-0.483,0-0.875,0.393-0.875,0.875l0,0v4.412h-13.121v-4.412c0-0.482-0.392-0.875-0.874-0.875l0,0h-20.993
	c-0.483,0-0.875,0.393-0.875,0.875l0,0v4.412h-13.12v-4.412c0-0.482-0.392-0.875-0.875-0.875l0,0h-20.993
	c-0.483,0-0.875,0.393-0.875,0.875l0,0v4.412h-13.12v-4.412c0-0.482-0.392-0.875-0.875-0.875l0,0h-20.993
	c-0.482,0-0.874,0.393-0.874,0.875l0,0v4.412h-13.121v-4.412c0-0.482-0.392-0.875-0.874-0.875l0,0h-20.993
	c-0.483,0-0.875,0.393-0.875,0.875l0,0v4.412h-40.236c-11.594,0-20.993,9.398-20.993,20.992l0,0v9.492
	c0,11.595,9.399,20.993,20.993,20.993h698.015c11.594,0,20.992-9.398,20.993-20.993v-9.492
	C855.058,393.341,845.659,383.942,834.065,383.942L834.065,383.942z"/>
<rect x="28.712" y="413.884" fill="#3F3D56" width="912.692" height="2.785"/>
<path fill="#3F3D56" d="M754.072,233.671h-202v-115h202V233.671z M554.072,231.671h198v-111h-198V231.671z"/>
<path fill="#3F3D56" d="M384.072,256.671h-180v-112h180V256.671z M206.072,254.671h176v-108h-176V254.671z"/>
<path fill="#D0CDE1" d="M288.166,213.671l-0.172-2.236c-0.516-4.644,1.032-9.718,5.332-14.877c3.87-4.559,6.02-7.912,6.02-11.782
	c0-4.386-2.752-7.31-8.17-7.396c-3.099-0.013-6.128,0.917-8.686,2.666l-2.064-5.418c2.839-2.064,7.74-3.44,12.298-3.44
	c9.891,0,14.362,6.106,14.362,12.642c0,5.849-3.269,10.063-7.396,14.964c-3.783,4.472-5.159,8.256-4.901,12.642l0.086,2.236H288.166
	z M286.274,225.711c-0.186-2.802,1.937-5.224,4.738-5.407c0.14-0.01,0.28-0.014,0.421-0.011c3.011,0,5.074,2.235,5.074,5.418
	c0.116,2.825-2.08,5.211-4.906,5.327c-2.825,0.117-5.211-2.08-5.327-4.905C286.268,225.992,286.268,225.852,286.274,225.711z"/>
<path fill="#D0CDE1" d="M647.166,188.671l-0.172-2.236c-0.516-4.644,1.032-9.718,5.332-14.877c3.87-4.559,6.02-7.912,6.02-11.782
	c0-4.386-2.752-7.31-8.17-7.396c-3.099-0.013-6.128,0.917-8.686,2.666l-2.064-5.418c2.839-2.064,7.74-3.44,12.298-3.44
	c9.891,0,14.362,6.106,14.362,12.642c0,5.849-3.269,10.063-7.396,14.964c-3.783,4.472-5.159,8.256-4.901,12.642l0.086,2.236H647.166
	z M645.274,200.711c-0.185-2.802,1.937-5.223,4.738-5.408c0.141-0.009,0.281-0.013,0.421-0.01c3.011,0,5.074,2.235,5.074,5.418
	c0.117,2.826-2.079,5.211-4.905,5.328s-5.212-2.08-5.328-4.906C645.268,200.992,645.268,200.852,645.274,200.711z"/>
<circle fill="#2F2E41" cx="482.693" cy="260.849" r="86.292"/>
<polygon fill="#2F2E41" points="449.365,379.019 423.568,374.349 431.935,320.483 457.731,325.153 "/>
<rect x="479.135" y="331.783" transform="matrix(-0.984 -0.1781 0.1781 -0.984 913.3251 792.5399)" fill="#2F2E41" width="26.215" height="46.97"/>
<ellipse transform="matrix(-0.9802 -0.1979 0.1979 -0.9802 908.7612 848.6304)" fill="#2F2E41" cx="496.785" cy="378.906" rx="21.846" ry="8.192"/>
<ellipse transform="matrix(-0.9913 -0.1313 0.1313 -0.9913 832.0204 812.8087)" fill="#2F2E41" cx="442.813" cy="378.968" rx="21.846" ry="8.193"/>
<circle fill="#FFFFFF" cx="488.734" cy="239.741" r="29.492"/>
<circle fill="#3F3D56" cx="500.856" cy="229.17" r="9.831"/>
<path fill="#FFFFFF" d="M414.621,166.972c-1.298-31.947,26.235-59.006,61.498-60.438c35.262-1.433,64.898,23.304,66.196,55.251
	c1.298,31.946-23.214,39.205-58.476,40.637C448.578,203.855,415.919,198.918,414.621,166.972z"/>
<ellipse transform="matrix(-0.2234 -0.9747 0.9747 -0.2234 449.0712 848.0478)" fill="#2F2E41" cx="562.372" cy="245.127" rx="13.545" ry="43.146"/>
<ellipse transform="matrix(-0.2234 -0.9747 0.9747 -0.2234 214.4041 717.4105)" fill="#2F2E41" cx="392.984" cy="273.297" rx="13.545" ry="43.146"/>
<path fill="#FFFFFF" d="M458.993,294.855c-1.935,10.685,5.16,20.915,15.845,22.85c10.686,1.935,20.915-5.159,22.85-15.845
	s-6.327-14.467-17.012-16.4C469.99,283.525,460.927,284.171,458.993,294.855z"/>
<rect x="154.535" y="13.122" fill="#D0CDE1" width="141.887" height="134.968"/>
<rect x="170.658" y="29.246" fill="#FFFFFF" width="109.641" height="83.842"/>
<rect x="170.55" y="122.979" fill="#F2F2F2" width="59.637" height="3.139"/>
<rect x="170.55" y="132.396" fill="#F2F2F2" width="59.637" height="3.139"/>
<circle fill="#3F3D56" cx="190.167" cy="71.19" r="12.555"/>
<circle fill="#0083C2" cx="225.478" cy="71.19" r="12.555"/>
<circle fill="#E6E6E6" cx="260.79" cy="71.19" r="12.555"/>
<circle fill="#3F3D56" cx="225.478" cy="20.969" r="6.278"/>
<rect x="222.022" y="274.459" fill="#D0CDE1" width="141.887" height="134.968"/>
<rect x="238.145" y="290.583" fill="#FFFFFF" width="109.641" height="83.842"/>
<rect x="262.272" y="304.36" fill="#0083C2" width="38.437" height="38.438"/>
<path fill="#3F3D56" d="M276.986,313.973v46.673h46.674v-46.673H276.986z M321.635,358.622H279.01v-42.625h42.625V358.622z"/>
<rect x="238.037" y="382.747" fill="#F2F2F2" width="59.637" height="3.139"/>
<circle fill="#3F3D56" cx="292.966" cy="282.306" r="6.277"/>
<rect x="591.436" y="234.053" fill="#D0CDE1" width="141.888" height="134.968"/>
<rect x="607.56" y="250.177" fill="#FFFFFF" width="109.64" height="83.842"/>
<rect x="650.587" y="315.813" fill="#3F3D56" width="23.587" height="6.989"/>
<rect x="622.072" y="261.394" fill="#3F3D56" width="80.616" height="2.995"/>
<rect x="622.072" y="270.879" fill="#3F3D56" width="80.616" height="2.995"/>
<rect x="622.072" y="280.364" fill="#3F3D56" width="80.616" height="2.996"/>
<rect x="622.072" y="289.851" fill="#3F3D56" width="80.616" height="2.996"/>
<rect x="622.072" y="299.337" fill="#3F3D56" width="80.616" height="2.996"/>
<rect x="607.452" y="342.341" fill="#F2F2F2" width="59.637" height="3.139"/>
<rect x="607.452" y="350.188" fill="#F2F2F2" width="83.178" height="3.139"/>
<circle fill="#3F3D56" cx="662.381" cy="241.899" r="6.277"/>
</svg>
