<?xml version="1.0" encoding="utf-8"?>
<!-- Generator: Adobe Illustrator 16.0.0, SVG Export Plug-In . SVG Version: 6.00 Build 0)  -->
<!DOCTYPE svg PUBLIC "-//W3C//DTD SVG 1.1//EN" "http://www.w3.org/Graphics/SVG/1.1/DTD/svg11.dtd">
<svg version="1.1" id="ab6d4b78-a8f6-485a-afcf-f519a4f8db63"
	 xmlns="http://www.w3.org/2000/svg" xmlns:xlink="http://www.w3.org/1999/xlink" x="0px" y="0px" width="874.074px"
	 height="794.899px" viewBox="0 0 874.074 794.899" enable-background="new 0 0 874.074 794.899" xml:space="preserve">
<title>reminder</title>
<circle fill="#F8F9FA" cx="42.927" cy="681.979" r="13.686"/>
<rect x="230.719" y="658.953" fill="#FF6584" width="36" height="36"/>
<circle fill="#F8F9FA" cx="230.927" cy="682.979" r="13.686"/>
<polygon fill="#F1F1F1" points="236.741,0 156.336,125.51 329.073,59.15 "/>
<polygon fill="#F1F1F1" points="335.775,67.912 151.635,138.653 0,375.352 496.802,693.612 734.147,323.117 "/>
<polygon fill="#F8F9FA" points="633.944,200.247 634.64,200.964 624.626,176.833 529.768,270.217 508.139,322.339 "/>
<polygon fill="#F8F9FA" points="624.215,175.837 612.456,147.507 551.082,218.857 531.737,265.474 623.511,175.124 "/>
<polygon fill="#F8F9FA" points="611.269,145.82 612.026,146.473 596.573,109.235 553.542,212.932 "/>
<polygon fill="#F8F9FA" points="718.164,402.234 635.052,201.958 506.202,327.005 474.983,402.234 353.393,695.235 596.573,695.235 
	839.757,695.235 "/>
<line fill="none" stroke="#3F3D56" stroke-width="2" stroke-miterlimit="10" x1="7.808" y1="695.234" x2="868.341" y2="695.234"/>
<polygon fill="#3F3D56" points="647.51,510.235 563.073,620.65 563.073,664.898 673.283,510.235 "/>
<polygon fill="#3F3D56" points="611.229,510.235 563.073,568.354 563.073,617.358 644.991,510.235 "/>
<polygon fill="#3F3D56" points="608.635,510.235 563.073,510.235 563.073,565.219 "/>
<polygon fill="#3F3D56" points="675.738,510.235 563.073,668.344 563.073,695.235 843.073,695.235 843.073,510.235 "/>
<circle fill="#2F2E41" cx="795.074" cy="405.235" r="79"/>
<rect x="807.074" y="467.234" fill="#2F2E41" width="24" height="43"/>
<rect x="759.074" y="467.234" fill="#2F2E41" width="24" height="43"/>
<ellipse fill="#2F2E41" cx="811.074" cy="510.734" rx="20" ry="7.5"/>
<ellipse fill="#2F2E41" cx="763.074" cy="509.734" rx="20" ry="7.5"/>
<circle fill="#FFFFFF" cx="793.074" cy="385.234" r="27"/>
<circle fill="#3F3D56" cx="793.074" cy="385.234" r="9"/>
<path fill="#FF6584" d="M871.707,331.767c6.381-28.567-14.013-57.434-45.544-64.475c-31.53-7.041-62.266,10.41-68.645,38.978
	c-6.379,28.567,14.519,39.104,46.051,46.144C835.101,359.455,865.328,360.334,871.707,331.767z"/>
<line fill="none" stroke="#3F3D56" stroke-width="2" stroke-miterlimit="10" x1="178.073" y1="394.234" x2="178.073" y2="695.234"/>
<rect x="3.073" y="278.235" fill="#FF6584" width="350.001" height="232"/>
<rect x="43.073" y="336.235" fill="#F1F1F1" width="270.001" height="8"/>
<rect x="43.073" y="363.234" fill="#F1F1F1" width="270.001" height="8"/>
<rect x="43.073" y="390.234" fill="#F1F1F1" width="270.001" height="8"/>
<rect x="243.073" y="444.234" fill="#F1F1F1" width="70.001" height="8"/>
<ellipse fill="#3F3D56" cx="178.073" cy="278.235" rx="30" ry="16"/>
<g>
	<g>
		<path fill="#FFFFFF" d="M197.198,759.943h-11.013v6.893h-3.961v-6.893h-14.491v-3.67h5.088v-8.438h9.403v-3.864h-6.892
			c-1.32,2.286-2.866,4.347-4.379,5.86c-0.741-0.644-2.383-1.933-3.316-2.479c2.897-2.447,5.377-6.569,6.762-10.723l3.897,0.998
			c-0.29,0.901-0.645,1.771-1.063,2.641h18.195v3.703h-9.242v3.864h8.501v3.543h-8.501v4.895h11.013V759.943z M182.223,756.273
			v-4.895h-5.571v4.895H182.223z"/>
		<path fill="#FFFFFF" d="M207.799,751.443c-1.063-0.999-3.253-2.287-5.023-3.092l2.093-2.802c1.771,0.677,4.058,1.803,5.152,2.802
			L207.799,751.443z M203.323,764.484c1.192-2.479,2.898-6.569,4.154-10.336l3.091,1.995c-1.063,3.446-2.479,7.149-3.8,10.305
			L203.323,764.484z M223.288,747.353v1.546h8.759v14.62c0,1.514-0.257,2.222-1.224,2.705c-0.934,0.482-2.254,0.516-4.122,0.516
			c-0.096-0.869-0.483-2.029-0.837-2.802c0.999,0.032,2.061,0.032,2.383,0c0.322,0,0.451-0.098,0.451-0.419v-2.126
			c-0.419,0.355-0.837,0.773-1.063,1.095c-0.612-0.708-1.095-1.675-1.417-2.801c-0.418,1.126-1.063,2.125-1.996,2.898
			c-0.193-0.322-0.548-0.773-0.934-1.128v5.121h-3.349v-5.024c-0.354,0.322-0.708,0.677-0.902,0.967
			c-0.58-0.709-0.998-1.61-1.353-2.673c-0.387,1.191-1.03,2.254-1.933,3.059c-0.225-0.354-0.644-0.836-1.03-1.191v5.024h-3.252
			v-17.841h8.47v-1.546h-4.541v-5.022h-4.379v-2.03l-2.029,2.77c-1.031-1.03-3.221-2.447-4.991-3.252l2.157-2.834
			c1.643,0.708,3.703,1.868,4.863,2.802v-0.772h4.379v-2.287h3.575v2.287h5.506v-2.287h3.736v2.287h4.412v3.317h-4.412v5.022
			H223.288z M218.716,753.149c0.064,2.802,0.418,5.216,1.224,6.763v-7.825h-5.217v8.887c1.095-1.255,1.514-3.025,1.643-4.7h0.676
			l-0.064-0.772h-1.449v-2.352H218.716z M218.973,744.165h5.506v-1.835h-5.506V744.165z M223.288,752.087v8.501
			c1.03-1.159,1.481-2.77,1.61-4.314h0.676l-0.064-0.772h-1.481v-2.352h3.188c0.097,3.027,0.515,5.538,1.481,7.085v-8.147H223.288z"
			/>
		<path fill="#FFFFFF" d="M239.847,760.17h5.12v-15.071h-4.315v-2.93c2.383-0.452,4.026-1.063,5.539-1.997h3.511v19.998h4.476v3.831
			h-14.331V760.17z"/>
		<path fill="#FFFFFF" d="M260.235,761.2l2.19-3.027c1.353,1.32,3.027,2.415,5.249,2.415c2.48,0,4.219-1.578,4.219-4.379
			c0-2.77-1.61-4.315-4.025-4.315c-1.417,0-2.189,0.354-3.575,1.256l-2.157-1.417l0.644-11.561h12.752v3.961h-8.663l-0.451,5.056
			c0.934-0.451,1.771-0.676,2.867-0.676c3.993,0,7.341,2.383,7.341,7.566c0,5.313-3.929,8.374-8.34,8.374
			C264.518,764.453,262.006,762.971,260.235,761.2z"/>
		<path fill="#FFFFFF" d="M310.121,753.311c-0.965,2.833-2.318,5.377-3.993,7.535c0.772,1.546,1.674,2.479,2.544,2.479
			c0.676,0,0.934-1.224,1.095-4.024c0.74,0.643,1.9,1.353,2.77,1.642c-0.483,4.572-1.61,5.7-4.09,5.7
			c-1.868,0-3.413-1.159-4.702-3.124c-1.353,1.32-2.801,2.415-4.38,3.349c-0.547-0.676-1.803-1.996-2.576-2.608
			c2.028-1.03,3.864-2.383,5.378-4.024c-0.87-2.383-1.514-5.347-1.9-8.566h-11.787v2.512c0,1.771-0.096,3.93-0.451,6.086
			c0.999-1.095,1.675-2.512,2.061-3.928l2.673,0.547c-0.58,2.028-1.643,4.025-2.898,5.313c-0.451-0.387-1.288-0.966-1.932-1.353
			c-0.418,2.222-1.159,4.38-2.319,6.055c-0.676-0.516-2.286-1.482-3.156-1.805c2.254-3.22,2.479-7.761,2.479-10.98v-5.571h15.007
			c-0.032-0.645-0.064-1.287-0.097-1.964h-16.488v-3.156h4.798v-5.281h3.542v5.281h4.637v-6.698h3.703v2.255h9.274v2.802h-9.274
			v1.642h11.979v3.156h-3.768c0.515,0.354,1.03,0.708,1.385,0.966l-1.063,0.998h3.091v3.124h-7.986
			c0.257,1.932,0.611,3.703,1.03,5.281c0.772-1.385,1.417-2.834,1.932-4.412L310.121,753.311z M300.589,756.981
			c-1.513,4.605-5.313,8.147-10.724,9.789c-0.354-0.611-1.095-1.642-1.61-2.156c2.511-0.677,4.637-1.771,6.247-3.188h-1.481v-5.925
			h-3.414v-2.609h9.693v2.609h-3.221v4.218c0.709-0.967,1.256-2.028,1.546-3.156L300.589,756.981z M303.294,746.58
			c0.033,0.677,0.065,1.319,0.097,1.964h3.156c-0.708-0.515-1.578-1.03-2.318-1.417l0.611-0.547H303.294z"/>
	</g>
	<g>
		<path fill="#FFFFFF" d="M674.309,743.488c-1.224,1.353-2.479,2.608-3.768,3.575c-0.418-0.709-1.513-2.384-2.189-3.092
			c2.641-1.803,5.185-4.638,6.666-7.633l3.316,1.095c-0.419,0.902-0.934,1.771-1.514,2.674h20.257v3.381H674.309z M668.964,765.418
			c1.16-1.514,2.705-4.089,3.607-6.278l3.703,0.965c-0.902,2.255-2.384,5.057-3.575,6.827L668.964,765.418z M694.114,750.991v4.091
			h3.864v3.413h-28.724v-3.413h4.411v-4.091h-3.446v-3.413h3.446v-2.898h3.413v2.898h2.189v-2.898h3.188v2.898h2.512v-2.898h3.188
			v2.898h2.415v-2.898h3.542v2.898h3.156v3.413H694.114z M677.079,755.082h2.189v-4.091h-2.189V755.082z M681.588,760.04
			c0.419,1.933,0.772,4.478,0.805,6.022l-3.768,0.547c0-1.545-0.226-4.186-0.612-6.183L681.588,760.04z M682.457,750.991v4.091
			h2.512v-4.091H682.457z M688.157,759.782c0.805,1.869,1.61,4.349,1.899,5.958l-3.831,0.741c-0.194-1.547-0.935-4.122-1.675-6.119
			L688.157,759.782z M690.572,750.991h-2.415v4.091h2.415V750.991z M694.597,758.882c1.353,1.931,2.994,4.604,3.768,6.344
			l-3.768,1.642c-0.645-1.675-2.189-4.476-3.511-6.568L694.597,758.882z"/>
		<path fill="#FFFFFF" d="M713.701,756.691c-0.064-0.387-0.161-0.87-0.258-1.385c-6.441,0.967-7.6,1.191-8.309,1.546
			c-0.193-0.676-0.772-2.382-1.191-3.349c0.806-0.193,1.514-0.902,2.512-2.094c0.386-0.45,1.127-1.384,2.029-2.673
			c-2.416,0.29-3.124,0.483-3.607,0.709c-0.192-0.677-0.739-2.286-1.127-3.156c0.644-0.193,1.191-0.805,1.836-1.771
			c0.677-0.934,2.705-4.508,3.832-7.922l3.316,1.386c-1.158,2.64-2.705,5.409-4.314,7.695l2.125-0.161
			c0.773-1.352,1.546-2.77,2.157-4.186l3.157,1.933c-1.805,3.316-4.155,6.763-6.569,9.596l3.381-0.419
			c-0.226-0.869-0.517-1.738-0.772-2.511l2.736-0.87c0.805,2.125,1.675,4.928,1.997,6.634L713.701,756.691z M708.323,758.365
			c-0.226,2.996-0.805,6.184-1.482,8.244c-0.675-0.386-2.188-0.837-2.994-1.095c0.772-1.931,1.16-4.927,1.353-7.632L708.323,758.365
			z M711.607,757.818c0.387,2.158,0.773,4.83,0.869,6.635l-2.93,0.579c-0.032-1.771-0.354-4.573-0.676-6.667L711.607,757.818z
			 M714.796,756.82c0.58,1.578,1.191,3.575,1.48,4.895l-2.704,0.967c-0.226-1.353-0.838-3.414-1.385-5.024L714.796,756.82z
			 M734.021,762.553v3.51H715.6v-3.51h7.278v-4.443h-5.797v-3.414H732.7v3.414h-5.958v4.443H734.021z M722.427,742.78
			c-0.966,1.675-2.061,3.478-3.091,4.991c1.353,1.771,2.641,3.768,3.316,5.152l-3.059,1.191c-0.71-1.675-2.127-4.058-3.8-6.279
			c1.319-1.932,2.64-4.283,3.381-5.828L722.427,742.78z M733.667,741.491h-17.357v-3.413h17.357V741.491z M725.068,753.987
			c-0.709-1.644-2.222-4.026-3.896-6.216c1.288-1.867,2.673-4.187,3.414-5.7l3.22,0.741c-0.966,1.643-2.094,3.445-3.092,4.926
			c1.32,1.708,2.706,3.672,3.381,4.992L725.068,753.987z M730.736,754.115c-0.772-1.675-2.416-4.089-4.25-6.279
			c1.353-1.9,2.769-4.283,3.541-5.828l3.284,0.772c-0.997,1.706-2.156,3.478-3.22,4.991c1.449,1.706,2.931,3.672,3.672,5.024
			L730.736,754.115z"/>
		<path fill="#FFFFFF" d="M739.211,763.904c0.612-1.867,1.095-4.83,1.32-6.955l1.9,0.677c-0.193,2.125-0.612,5.184-1.159,6.988
			L739.211,763.904z M758.469,757.432c-0.192,0.839-0.419,1.675-0.676,2.48c1.158,0.708,2.383,1.642,3.025,2.351l-1.867,2.479
			c-0.516-0.547-1.385-1.319-2.286-1.997c-0.772,1.611-1.707,2.995-2.769,4.091c-0.483-0.549-1.675-1.514-2.416-2.061
			c-0.097,0.32-0.192,0.547-0.322,0.708c-0.483,0.708-1.03,0.965-1.771,1.063c-0.644,0.129-1.644,0.16-2.674,0.129
			c-0.031-0.869-0.354-2.061-0.739-2.835c0.805,0.098,1.48,0.098,1.803,0.098c0.354,0,0.58-0.033,0.806-0.354
			c0.192-0.322,0.321-1.097,0.45-2.771l-1.128,0.42c-0.225-1.128-0.772-2.867-1.287-4.154l1.353-0.451
			c0.418,0.935,0.837,2.125,1.127,3.124c0.065-1.03,0.097-2.319,0.16-3.864h-8.404V737.95h11.143v3.124h-3.285v2.125h2.77v0.739
			c3.413-1.899,6.537-4.83,8.244-7.631l3.413,1.191c-0.192,0.354-0.419,0.676-0.645,0.998c1.933,1.706,4.735,3.413,7.214,4.347
			c-0.547,0.87-1.191,2.545-1.417,3.511c-0.998-0.516-1.997-1.095-2.994-1.771v2.125h-9.469v-1.609
			c-0.739,0.483-1.48,0.934-2.222,1.385c-0.45-0.612-1.417-1.643-2.125-2.223v1.771h-2.77v1.9h2.866v2.802h-2.866v2.028h3.574
			c0,0,0,0.837-0.032,1.225c-0.16,5.989-0.321,9.08-0.708,10.562c1.899-1.804,3.124-4.605,3.704-7.664L758.469,757.432z
			 M744.363,757.496c0.161,1.836,0.259,4.252,0.259,5.861l-1.675,0.193c0.063-1.61-0.033-4.058-0.161-5.925L744.363,757.496z
			 M743.816,741.074v2.125h1.997v-2.125H743.816z M745.813,746.032h-1.997v1.9h1.997V746.032z M743.816,752.763h1.997v-2.028h-1.997
			V752.763z M746.231,757.143c0.387,1.675,0.805,3.8,0.935,5.184l-1.61,0.322c-0.098-1.416-0.483-3.605-0.87-5.248L746.231,757.143z
			 M753.123,748.416h6.892v7.824h-6.892V748.416z M755.602,753.826h1.771v-3.027h-1.771V753.826z M764.168,743.811
			c-1.256-0.934-2.479-1.9-3.574-2.897c-0.901,1.03-1.964,1.995-3.092,2.897H764.168z M766.519,757.304
			c-0.227,1.288-0.516,2.544-0.901,3.735c1.353,0.901,2.897,2.028,3.735,2.834l-2.223,2.608c-0.611-0.676-1.707-1.578-2.802-2.416
			c-0.547,1.03-1.191,1.997-1.899,2.771c-0.548-0.58-1.965-1.644-2.77-2.126c1.868-1.836,2.963-4.767,3.446-7.986L766.519,757.304z
			 M761.045,748.416h7.148v7.824h-7.148V748.416z M763.524,753.826h2.029v-3.027h-2.029V753.826z"/>
	</g>
	<g>
		<path fill="#FFFFFF" d="M445.305,743.488c-1.223,1.353-2.479,2.608-3.767,3.575c-0.419-0.709-1.514-2.384-2.191-3.092
			c2.642-1.803,5.186-4.638,6.667-7.633l3.316,1.095c-0.418,0.902-0.934,1.771-1.514,2.674h20.256v3.381H445.305z M439.961,765.418
			c1.159-1.514,2.704-4.089,3.606-6.278l3.702,0.965c-0.9,2.255-2.383,5.057-3.574,6.827L439.961,765.418z M465.11,750.991v4.091
			h3.865v3.413H440.25v-3.413h4.411v-4.091h-3.444v-3.413h3.444v-2.898h3.414v2.898h2.19v-2.898h3.188v2.898h2.513v-2.898h3.187
			v2.898h2.416v-2.898h3.542v2.898h3.155v3.413H465.11z M448.075,755.082h2.19v-4.091h-2.19V755.082z M452.583,760.04
			c0.419,1.933,0.774,4.478,0.806,6.022l-3.768,0.547c0-1.545-0.225-4.186-0.612-6.183L452.583,760.04z M453.453,750.991v4.091
			h2.513v-4.091H453.453z M459.152,759.782c0.806,1.869,1.61,4.349,1.9,5.958l-3.832,0.741c-0.193-1.547-0.934-4.122-1.674-6.119
			L459.152,759.782z M461.568,750.991h-2.416v4.091h2.416V750.991z M465.594,758.882c1.353,1.931,2.994,4.604,3.768,6.344
			l-3.768,1.642c-0.645-1.675-2.189-4.476-3.511-6.568L465.594,758.882z"/>
		<path fill="#FFFFFF" d="M499.091,754.984c1.707,1.547,3.961,2.931,6.28,3.736c-0.838,0.676-1.997,2.028-2.545,2.963
			c-1.738-0.806-3.478-1.997-5.055-3.382v2.383h-5.861v2.094h10.497v3.155h-24.506v-3.155h10.112v-2.094h-5.7v-1.997
			c-1.577,1.321-3.316,2.48-5.121,3.285c-0.547-0.901-1.642-2.254-2.447-2.93c2.352-0.87,4.733-2.352,6.506-4.059h-6.215v-3.124
			h6.15v-9.596h-4.444v-3.092h4.444v-2.415h3.832v2.415h10.079v-2.415h3.929v2.415h4.412v3.092h-4.412v9.596h5.958v3.124H499.091z
			 M497.062,757.657c-0.869-0.837-1.643-1.738-2.318-2.673h-9.082c-0.644,0.935-1.448,1.836-2.286,2.673h4.638v-1.997h3.896v1.997
			H497.062z M485.018,742.265v1.418h10.079v-1.418H485.018z M485.018,747.738h10.079v-1.416h-10.079V747.738z M485.018,751.86
			h10.079v-1.448h-10.079V751.86z"/>
		<path fill="#FFFFFF" d="M515.295,762.906v2.384h-2.736v-10.66c-0.483,0.774-0.966,1.482-1.482,2.127
			c-0.128-0.967-0.805-3.253-1.287-4.283c1.965-2.674,3.284-6.603,4.122-10.853h-3.06v-3.479h9.725v3.479h-3.316
			c-0.451,2.189-1.031,4.411-1.739,6.505h4.767v14.78H515.295z M517.742,751.475h-2.447v8.083h2.447V751.475z M532.072,762.843
			c0.645,0.063,1.321,0.097,2.029,0.097c1.031,0,5.346,0,6.73-0.033c-0.419,0.741-0.869,2.286-1.03,3.221h-5.925
			c-4.026,0-7.053-0.74-9.146-3.768c-0.644,1.803-1.642,3.381-3.188,4.605l-2.544-2.416c2.577-1.932,3.511-5.345,3.865-9.37
			l3.188,0.547c-0.096,0.901-0.192,1.804-0.354,2.673c0.708,1.706,1.642,2.834,2.866,3.478v-7.503h-7.665v-3.091h16.456l0.548-0.161
			l2.479,0.772c-0.547,1.706-1.321,3.735-1.933,5.024l-2.897-0.967c0.161-0.419,0.354-0.999,0.547-1.578h-4.026v2.673h7.183v3.059
			h-7.183V762.843z M524.441,746.354c-0.869,1.417-1.836,2.77-2.835,3.703c-0.32-0.708-0.998-1.932-1.577-2.544
			c1.288-1.03,2.607-2.897,3.445-4.767h-2.35v-2.897h3.316v-3.059h2.962v3.059h2.674v2.897h-2.642
			c0.806,0.709,2.737,2.674,3.188,3.222l-1.804,2.253c-0.321-0.547-0.837-1.353-1.417-2.156v4.476h-2.962V746.354z M533.651,747.191
			c-0.773,1.256-1.675,2.383-2.609,3.157c-0.322-0.678-0.965-1.836-1.513-2.449c1.448-1.062,2.865-3.059,3.734-5.152h-2.544v-2.897
			h2.932v-3.059h2.995v3.059h3.542v2.897h-2.995c1.095,1.16,3.123,3.479,3.639,4.122l-2.094,2.577
			c-0.417-0.902-1.256-2.383-2.092-3.672v4.767h-2.995V747.191z"/>
	</g>
	<g>
		<path fill="#FFFFFF" d="M141.019,771.14h-38.776v-38.778h38.776V771.14z M105.821,767.561h31.62v-31.62h-31.62V767.561z"/>
	</g>
	<g>
		<polygon fill="#FFFFFF" points="119.338,767.324 106.302,746.339 109.342,744.45 119.667,761.071 148.008,724.636 
			150.833,726.832 		"/>
	</g>
	<g>
		<path fill="#FFFFFF" d="M421.95,771.14h-38.776v-38.778h38.776V771.14z M386.753,767.561h31.619v-31.62h-31.619V767.561z"/>
	</g>
	<g>
		<polygon fill="#FFFFFF" points="400.269,767.324 387.234,746.339 390.273,744.45 400.598,761.071 428.938,724.636 
			431.763,726.832 		"/>
	</g>
	<g>
		<path fill="#FFFFFF" d="M650.991,771.14h-38.778v-38.778h38.778V771.14z M615.793,767.561h31.619v-31.62h-31.619V767.561z"/>
	</g>
	<g>
		<polygon fill="#FFFFFF" points="629.308,767.324 616.273,746.339 619.312,744.45 629.638,761.071 657.978,724.636 
			660.802,726.832 		"/>
	</g>
</g>
</svg>
