<?xml version="1.0" encoding="utf-8"?>
<!-- Generator: Adobe Illustrator 16.0.0, SVG Export Plug-In . SVG Version: 6.00 Build 0)  -->
<!DOCTYPE svg PUBLIC "-//W3C//DTD SVG 1.1//EN" "http://www.w3.org/Graphics/SVG/1.1/DTD/svg11.dtd">
<svg version="1.1" id="ab6d4b78-a8f6-485a-afcf-f519a4f8db63"
	 xmlns="http://www.w3.org/2000/svg" xmlns:xlink="http://www.w3.org/1999/xlink" x="0px" y="0px" width="874.074px"
	 height="696.664px" viewBox="0 0 874.074 696.664" enable-background="new 0 0 874.074 696.664" xml:space="preserve">
<title>reminder</title>
<circle fill="#F8F9FA" cx="42.927" cy="681.979" r="13.686"/>
<rect x="230.719" y="658.953" fill="#FF6584" width="36" height="36"/>
<circle fill="#F8F9FA" cx="230.927" cy="682.979" r="13.686"/>
<polygon fill="#F1F1F1" points="236.741,0 156.336,125.51 329.073,59.15 "/>
<polygon fill="#F1F1F1" points="335.775,67.912 151.635,138.653 0,375.352 496.801,693.612 734.147,323.117 "/>
<polygon fill="#F8F9FA" points="633.944,200.247 634.64,200.964 624.626,176.833 529.768,270.217 508.139,322.339 "/>
<polygon fill="#F8F9FA" points="624.213,175.837 612.456,147.507 551.082,218.857 531.737,265.474 623.511,175.124 "/>
<polygon fill="#F8F9FA" points="611.269,145.82 612.026,146.473 596.573,109.235 553.542,212.932 "/>
<polygon fill="#F8F9FA" points="718.164,402.234 635.052,201.958 506.202,327.005 474.983,402.234 353.393,695.235 596.573,695.235 
	839.755,695.235 "/>
<line fill="none" stroke="#3F3D56" stroke-width="2" stroke-miterlimit="10" x1="7.808" y1="695.234" x2="868.339" y2="695.234"/>
<polygon fill="#3F3D56" points="647.509,510.235 563.073,620.65 563.073,664.898 673.283,510.235 "/>
<polygon fill="#3F3D56" points="611.229,510.235 563.073,568.354 563.073,617.358 644.991,510.235 "/>
<polygon fill="#3F3D56" points="608.633,510.235 563.073,510.235 563.073,565.219 "/>
<polygon fill="#3F3D56" points="675.738,510.235 563.073,668.344 563.073,695.235 843.073,695.235 843.073,510.235 "/>
<circle fill="#2F2E41" cx="795.074" cy="405.235" r="79"/>
<rect x="807.074" y="467.234" fill="#2F2E41" width="24" height="43"/>
<rect x="759.074" y="467.234" fill="#2F2E41" width="24" height="43"/>
<ellipse fill="#2F2E41" cx="811.074" cy="510.734" rx="20" ry="7.5"/>
<ellipse fill="#2F2E41" cx="763.074" cy="509.734" rx="20" ry="7.5"/>
<circle fill="#FFFFFF" cx="793.074" cy="385.234" r="27"/>
<circle fill="#3F3D56" cx="793.074" cy="385.234" r="9"/>
<path fill="#FF6584" d="M871.707,331.767c6.379-28.567-14.013-57.434-45.544-64.475c-31.532-7.041-62.266,10.41-68.645,38.978
	c-6.379,28.567,14.519,39.104,46.051,46.144C835.101,359.455,865.328,360.334,871.707,331.767z"/>
<line fill="none" stroke="#3F3D56" stroke-width="2" stroke-miterlimit="10" x1="178.073" y1="394.234" x2="178.073" y2="695.234"/>
<rect x="3.073" y="278.235" fill="#FF6584" width="350.001" height="232"/>
<rect x="43.073" y="336.235" fill="#F1F1F1" width="270.001" height="8"/>
<rect x="43.073" y="363.234" fill="#F1F1F1" width="270.001" height="8"/>
<rect x="43.073" y="390.234" fill="#F1F1F1" width="270.001" height="8"/>
<rect x="243.073" y="444.234" fill="#F1F1F1" width="70.001" height="8"/>
<ellipse fill="#3F3D56" cx="178.073" cy="278.235" rx="30" ry="16"/>
</svg>
