<?xml version="1.0" encoding="utf-8"?>
<!-- Generator: Adobe Illustrator 16.0.0, SVG Export Plug-In . SVG Version: 6.00 Build 0)  -->
<!DOCTYPE svg PUBLIC "-//W3C//DTD SVG 1.1//EN" "http://www.w3.org/Graphics/SVG/1.1/DTD/svg11.dtd">
<svg version="1.1" id="圖層_1" xmlns="http://www.w3.org/2000/svg" xmlns:xlink="http://www.w3.org/1999/xlink" x="0px" y="0px"
	 width="141.365px" height="141.365px" viewBox="0 0 141.365 141.365" enable-background="new 0 0 141.365 141.365"
	 xml:space="preserve">
<path fill="#E22753" d="M96.704,129.609L96.704,129.609c-5.126-4.99-13.739-2.403-15.268,4.585
	c-2.026,9.271-15.103,9.663-17.682,0.531c-1.945-6.886-10.697-8.951-15.515-3.663c-6.39,7.016-17.911,0.818-15.578-8.381
	c1.759-6.935-4.789-13.101-11.605-10.93c-9.041,2.879-15.919-8.248-9.3-15.048c4.99-5.125,2.402-13.739-4.586-15.267
	C-2.1,79.41-2.492,66.333,6.64,63.755c6.884-1.944,8.95-10.697,3.662-15.515c-7.015-6.391-0.816-17.91,8.382-15.578
	c6.934,1.759,13.1-4.788,10.929-11.605c-2.88-9.042,8.248-15.92,15.048-9.301C49.787,16.747,58.4,14.16,59.928,7.17
	c2.026-9.27,15.103-9.663,17.682-0.531c1.944,6.885,10.697,8.95,15.515,3.662c6.391-7.014,17.911-0.816,15.578,8.382
	c-1.758,6.935,4.789,13.1,11.604,10.929c9.043-2.88,15.92,8.249,9.301,15.048c-4.989,5.126-2.402,13.739,4.586,15.267
	c9.271,2.028,9.663,15.103,0.531,17.682c-6.885,1.944-8.951,10.697-3.664,15.515c7.016,6.391,0.817,17.911-8.381,15.578
	c-6.934-1.758-13.1,4.789-10.929,11.605C114.631,129.35,103.503,136.228,96.704,129.609"/>
<g>
	<g>
		<path fill="#FFFFFF" d="M43.042,80.944c-0.613,1.98-1.392,4.361-2.028,6.177c1.415,1.839,1.698,3.514,1.698,4.903
			c0,1.51-0.307,2.524-1.062,3.09c-0.354,0.283-0.802,0.424-1.32,0.519c-0.424,0.07-0.99,0.07-1.532,0.047
			c0-0.684-0.235-1.721-0.612-2.404c0.399,0.023,0.754,0.047,1.014,0.023c0.235,0,0.471-0.047,0.636-0.188
			c0.283-0.213,0.425-0.731,0.425-1.392c0-1.154-0.307-2.663-1.65-4.313c0.448-1.439,0.967-3.349,1.344-4.904h-2.287v18.554h-2.452
			V80.001h5.611l0.378-0.118L43.042,80.944z M55.749,93.062c-1.014,0.802-2.239,1.698-3.3,2.382c0.99,1.344,2.264,2.451,3.818,3.159
			c-0.612,0.543-1.461,1.65-1.862,2.428c-3.513-1.933-5.398-5.563-6.506-10.186h-1.415v6.626l3.277-0.73
			c-0.024,0.801,0.023,1.956,0.117,2.547c-4.598,1.179-5.47,1.532-6.036,1.886c-0.211-0.614-0.801-1.721-1.201-2.192
			c0.495-0.308,1.084-0.944,1.084-2.052V80.025h10.656v10.82h-4.079c0.26,0.921,0.566,1.77,0.943,2.571
			c0.967-0.731,2.004-1.604,2.688-2.334L55.749,93.062z M46.484,82.429v1.839h5.187v-1.839H46.484z M46.484,88.418h5.187v-1.887
			h-5.187V88.418z"/>
		<path fill="#FFFFFF" d="M57.534,96.953l1.627-2.192c1.037,1.014,2.311,1.791,3.89,1.791c1.769,0,2.972-0.872,2.972-2.428
			c0-1.722-1.015-2.783-4.811-2.783v-2.499c3.206,0,4.244-1.106,4.244-2.663c0-1.368-0.849-2.169-2.334-2.192
			c-1.25,0.023-2.264,0.612-3.301,1.557l-1.769-2.123c1.509-1.32,3.183-2.146,5.234-2.146c3.371,0,5.658,1.65,5.658,4.645
			c0,1.886-1.061,3.253-2.923,3.985v0.117c1.979,0.543,3.488,2.003,3.488,4.291c0,3.206-2.805,5.068-6.13,5.068
			C60.623,99.38,58.76,98.343,57.534,96.953z"/>
		<path fill="#FFFFFF" d="M71.839,90.257c0-6.036,2.358-8.983,5.919-8.983c3.536,0,5.894,2.971,5.894,8.983
			s-2.357,9.123-5.894,9.123C74.198,99.38,71.839,96.27,71.839,90.257z M80.375,90.257c0-4.88-1.131-6.296-2.616-6.296
			c-1.509,0-2.642,1.416-2.642,6.296c0,4.903,1.133,6.412,2.642,6.412C79.244,96.669,80.375,95.161,80.375,90.257z"/>
		<path fill="#FFFFFF" d="M104.891,101.102h-2.9v-1.038H93.15v1.038h-2.805v-7.309c-1.156,0.4-2.312,0.707-3.49,0.99
			c-0.259-0.755-0.919-1.957-1.438-2.594c2.853-0.565,5.681-1.51,8.204-2.758c-1.015-0.99-2.428-2.192-3.702-3.184
			c-0.659,0.425-1.367,0.849-2.121,1.202c-0.425-0.684-1.297-1.743-1.934-2.238c3.843-1.675,6.437-4.032,7.875-6.249l3.135,0.659
			c-0.424,0.591-0.849,1.181-1.319,1.77h6.884l0.472-0.142l1.933,1.155c-1.626,3.395-4.313,6.082-7.567,8.134h7.615V101.102z
			 M93.08,83.938c-0.308,0.261-0.59,0.495-0.896,0.731c1.368,0.989,2.994,2.263,4.032,3.254c1.744-1.133,3.253-2.477,4.408-3.985
			H93.08z M101.991,97.542v-4.455H93.15v4.455H101.991z"/>
	</g>
	<g>
		<path fill="#FFFFFF" d="M65.714,74.654h-5.438V73.25H48.141v1.368h-5.258V63.85c-1.62,0.541-3.276,1.008-4.97,1.405
			c-0.54-1.44-1.729-3.673-2.7-4.826c4.213-0.828,8.318-2.161,11.955-3.889c-1.368-1.404-3.313-3.061-4.933-4.394
			c-0.9,0.504-1.837,1.009-2.81,1.513c-0.756-1.296-2.412-3.313-3.601-4.213c5.941-2.449,9.831-5.87,12.027-9.254l5.906,1.26
			c-0.576,0.864-1.225,1.692-1.873,2.485h9.291l0.864-0.252l3.673,2.125c-2.341,4.934-5.941,8.895-10.371,11.992h10.371V74.654z
			 M46.485,49.23c1.836,1.333,4.069,3.097,5.546,4.537c2.232-1.512,4.177-3.205,5.689-5.113H47.205L46.485,49.23z M60.277,68.532
			v-6.014H48.141v6.014H60.277z"/>
		<path fill="#FFFFFF" d="M86.561,63.454h0.396V74.69h-4.537v-0.792h-3.637v0.792h-4.321V64.318
			c-0.324,0.144-0.685,0.252-1.009,0.36c-0.432-1.152-1.656-3.205-2.448-4.105c2.052-0.504,3.997-1.225,5.726-2.161l-1.297-0.756
			l2.881-2.989l2.125,1.116c0.504-0.468,0.973-1.008,1.404-1.548h-3.745c-1.044,1.404-2.305,2.701-3.925,3.817
			c-0.505-1.081-1.693-2.773-2.485-3.457c2.773-1.657,4.357-3.998,5.149-6.338l3.89,0.756c-0.181,0.504-0.36,0.973-0.54,1.44H84.4
			l0.252-0.036v-2.305h-9.038v2.701h-3.745v-6.806h6.302c-0.216-0.72-0.433-1.44-0.648-2.088l4.177-1.405
			c0.396,1.044,0.9,2.341,1.261,3.493h5.653v6.806h-2.809l1.837,1.296c-0.9,2.197-2.089,4.105-3.493,5.726
			c1.873,1.044,3.637,2.088,4.861,2.881L86.561,63.454z M84.904,63.454c-1.116-0.756-2.557-1.656-4.033-2.557
			c-1.332,1.008-2.772,1.873-4.285,2.557H84.904z M82.419,69.9v-2.449h-3.637V69.9H82.419z M100.821,67.271
			c1.837,1.152,4.069,2.665,5.33,3.781l-2.953,3.565c-1.297-1.332-4.105-3.421-6.086-4.753l2.269-2.593h-5.041l2.736,2.917
			c-2.232,1.693-5.474,3.493-7.958,4.646c-0.469-1.08-1.368-2.736-2.089-3.817c2.017-0.864,4.646-2.413,6.374-3.745H89.91V47.97
			h4.501c0.072-0.612,0.181-1.261,0.253-1.873h-5.546V41.74h16.385v4.357H99.38c-0.216,0.648-0.432,1.297-0.648,1.873h6.05v19.302
			H100.821z M99.884,51.895h-5.329v1.369h5.329V51.895z M94.555,58.305h5.329V56.9h-5.329V58.305z M94.555,63.346h5.329v-1.405
			h-5.329V63.346z"/>
	</g>
</g>
</svg>
