<?xml version="1.0" encoding="utf-8"?>
<!-- Generator: Adobe Illustrator 16.0.0, SVG Export Plug-In . SVG Version: 6.00 Build 0)  -->
<!DOCTYPE svg PUBLIC "-//W3C//DTD SVG 1.1//EN" "http://www.w3.org/Graphics/SVG/1.1/DTD/svg11.dtd">
<svg version="1.1" id="b4af97e3-409c-4914-b906-15bd03bcf69c"
	 xmlns="http://www.w3.org/2000/svg" xmlns:xlink="http://www.w3.org/1999/xlink" x="0px" y="0px" width="808.307px"
	 height="759.925px" viewBox="0 0 808.307 759.925" enable-background="new 0 0 808.307 759.925" xml:space="preserve">
<title>game_world</title>
<path fill="#FF6584" d="M469.692,496.679v263.246h338.615V496.679H469.692z M764.089,567.078h-26.226v-26.227h26.226V567.078z"/>
<rect x="0" y="496.679" fill="#FF6584" width="441.292" height="68.814"/>
<rect x="0" y="593.894" fill="#FF6584" width="441.292" height="68.814"/>
<rect x="0" y="691.109" fill="#FF6584" width="441.292" height="68.816"/>
<rect x="78.646" y="164.617" fill="#FF6584" width="21.847" height="28.4"/>
<rect x="638.999" y="386.355" fill="#FF6584" width="28.4" height="21.847"/>
<polygon fill="#0083C2" points="310.172,593.894 441.291,593.894 441.291,662.708 270.444,662.708 "/>
<polygon fill="#0083C2" points="254.038,691.109 441.291,691.109 441.291,759.925 214.311,759.925 "/>
<path fill="#FF6584" d="M324.274,338.242c-1.88-1.885-3.747-3.833-5.549-5.788l1.955-1.801c1.777,1.931,3.62,3.853,5.475,5.712
	L324.274,338.242z"/>
<path fill="#FF6584" d="M308.165,319.986c-3.335-4.283-6.529-8.756-9.493-13.294l2.224-1.454c2.926,4.478,6.076,8.891,9.366,13.115
	L308.165,319.986z M290.314,292.656c-2.579-4.771-4.99-9.71-7.166-14.679l2.435-1.066c2.146,4.903,4.524,9.775,7.068,14.481
	L290.314,292.656z M277.224,262.754c-1.754-5.123-3.318-10.389-4.651-15.655l2.577-0.652c1.313,5.196,2.857,10.393,4.588,15.447
	L277.224,262.754z M271.832,230.673l-2.62,0.441c-0.901-5.357-1.592-10.807-2.053-16.199l2.647-0.226
	C270.261,220.01,270.943,225.388,271.832,230.673L271.832,230.673z M269.099,198.595l-2.657,0.007
	c-0.014-5.423,0.199-10.914,0.633-16.318l2.649,0.212C269.294,187.828,269.085,193.245,269.099,198.595L269.099,198.595z
	 M271.681,166.504l-2.621-0.432c0.882-5.353,2-10.737,3.323-16.001l2.577,0.647C273.654,155.912,272.551,161.223,271.681,166.504
	L271.681,166.504z M627.434,89.61c-2.971-4.444-6.168-8.821-9.502-13.012l2.079-1.654c3.38,4.248,6.621,8.685,9.632,13.189
	L627.434,89.61z M279.533,135.259l-2.515-0.858c1.752-5.131,3.741-10.255,5.912-15.231l2.435,1.063
	C283.224,125.142,281.262,130.197,279.533,135.259L279.533,135.259z M607.386,64.414c-3.664-3.896-7.537-7.69-11.512-11.274
	l1.78-1.974c4.027,3.634,7.953,7.479,11.667,11.428L607.386,64.414z M292.412,105.735l-2.34-1.259
	c2.569-4.777,5.369-9.506,8.32-14.056l2.229,1.445C297.709,96.355,294.948,101.021,292.412,105.735z M583.477,42.846
	c-4.256-3.249-8.696-6.359-13.201-9.246l1.434-2.237c4.565,2.927,9.066,6.079,13.379,9.371L583.477,42.846z M309.938,78.716
	l-2.104-1.623c3.313-4.293,6.846-8.501,10.5-12.509l1.963,1.79C316.692,70.328,313.206,74.48,309.938,78.716L309.938,78.716z
	 M556.363,25.465c-4.728-2.51-9.618-4.854-14.533-6.967l1.049-2.441c4.982,2.142,9.938,4.518,14.73,7.062L556.363,25.465z
	 M331.632,54.925l-1.81-1.945c3.973-3.696,8.146-7.269,12.402-10.618l1.643,2.088C339.668,47.755,335.552,51.279,331.632,54.925z
	 M526.772,12.748c-5.081-1.704-10.29-3.214-15.479-4.489l0.634-2.581c5.261,1.292,10.54,2.824,15.69,4.55L526.772,12.748z
	 M356.924,35.022l-1.466-2.216c4.523-2.989,9.226-5.825,13.978-8.427l1.275,2.331C366.025,29.276,361.386,32.073,356.924,35.022z
	 M495.492,5.065c-5.283-0.841-10.669-1.471-16.009-1.872l0.199-2.649c5.412,0.406,10.872,1.043,16.228,1.896L495.492,5.065z
	 M385.151,19.563l-1.078-2.428c4.95-2.2,10.06-4.22,15.186-6.007l0.874,2.509C395.075,15.4,390.034,17.394,385.151,19.563z
	 M463.375,2.657c-5.34,0.043-10.755,0.311-16.094,0.796l-0.24-2.646c5.411-0.492,10.9-0.764,16.313-0.807L463.375,2.657z
	 M415.551,8.966l-0.666-2.572c5.242-1.357,10.63-2.519,15.965-3.446l0.456,2.618C426.036,6.48,420.725,7.627,415.551,8.966z"/>
<path fill="#FF6584" d="M639.616,110.545c-1.177-2.348-2.419-4.704-3.69-7.003l2.324-1.287c1.289,2.331,2.549,4.719,3.741,7.1
	L639.616,110.545z"/>
<path fill="#0083C2" d="M710.873,759.925l-124.141-215.01l-27.854-48.236l-64.315-111.416l-31.972-55.369l-31.972,55.369
	l-64.315,111.416l-27.854,48.236l-11.885,20.578h114.725v-68.814h28.4v263.246H710.873z M551.584,649.087
	c8.805,0,15.942,7.137,15.942,15.941s-7.138,15.941-15.942,15.943c-8.804,0-15.941-7.139-15.941-15.943l0,0
	C535.653,656.23,542.784,649.097,551.584,649.087L551.584,649.087z M459.63,439.679L441.742,420.5l19.179-17.888l17.888,19.178
	L459.63,439.679z"/>
<circle fill="#F2F2F2" cx="442.237" cy="273.92" r="13.285"/>
<path fill="#F2F2F2" d="M457.528,81.73c-71.085,13.693-117.609,82.419-103.916,153.504s82.419,117.61,153.504,103.917
	s117.61-82.419,103.917-153.504l0,0C597.339,114.562,528.613,68.037,457.528,81.73z M445.252,289.574
	c-8.646,1.665-17.004-3.993-18.67-12.639c-1.665-8.646,3.993-17.004,12.639-18.669s17.004,3.993,18.67,12.639l0,0
	C459.545,279.548,453.892,287.899,445.252,289.574z M533.58,173.257l-25.752,4.961l-4.961-25.752l25.753-4.96L533.58,173.257z"/>
<circle fill="#2F2E41" cx="207.586" cy="360.731" r="86.292"/>
<polygon fill="#2F2E41" points="174.258,478.9 148.461,474.23 156.828,420.367 182.624,425.037 "/>
<rect x="204.028" y="431.665" transform="matrix(-0.984 -0.1781 0.1781 -0.984 349.7532 941.6902)" fill="#2F2E41" width="26.215" height="46.97"/>
<ellipse transform="matrix(-0.7631 -0.6463 0.6463 -0.7631 70.5377 993.9924)" fill="#2F2E41" cx="217.45" cy="484.068" rx="21.846" ry="8.192"/>
<ellipse transform="matrix(-0.7631 -0.6463 0.6463 -0.7631 -17.5445 958.7068)" fill="#2F2E41" cx="166.933" cy="482.569" rx="21.846" ry="8.192"/>
<circle fill="#FFFFFF" cx="213.627" cy="339.623" r="29.492"/>
<circle fill="#2F2E41" cx="225.748" cy="329.052" r="9.831"/>
<path fill="#0083C2" d="M139.514,266.854c-1.298-31.947,26.235-59.005,61.497-60.438s64.899,23.304,66.197,55.251
	s-23.214,39.205-58.476,40.638C173.471,303.737,140.811,298.801,139.514,266.854z"/>
<ellipse transform="matrix(-0.2234 -0.9747 0.9747 -0.2234 15.1617 702.0995)" fill="#2F2E41" cx="287.265" cy="345.01" rx="13.545" ry="43.146"/>
<ellipse transform="matrix(-0.2234 -0.9747 0.9747 -0.2234 -219.5373 571.4445)" fill="#2F2E41" cx="117.877" cy="373.179" rx="13.545" ry="43.146"/>
<path fill="#FFFFFF" d="M183.886,394.738c-1.935,10.686,5.159,20.915,15.845,22.85c10.685,1.934,20.915-5.16,22.85-15.846
	c1.934-10.685-6.327-14.465-17.013-16.4C194.883,383.408,185.821,384.052,183.886,394.738z"/>
</svg>
