<?xml version="1.0" encoding="UTF-8"?>
<svg width="193px" height="33px" viewBox="0 0 193 33" version="1.1" xmlns="http://www.w3.org/2000/svg" xmlns:xlink="http://www.w3.org/1999/xlink">
    <!-- Generator: Sketch 51 (57462) - http://www.bohemiancoding.com/sketch -->
    <title>Group 41</title>
    <desc>Created with Sketch.</desc>
    <defs></defs>
    <g id="Page-1" stroke="none" stroke-width="1" fill="none" fill-rule="evenodd">
        <g id="Group-41" fill="#545454">
            <path d="M39.216,9.324 C39.216,10.8360076 39.0540016,12.1499944 38.73,13.266 C38.4059984,14.3820056 37.9580029,15.3039964 37.386,16.032 C36.8139971,16.7600036 36.1380039,17.3019982 35.358,17.658 C34.5779961,18.0140018 33.7360045,18.192 32.832,18.192 C31.9279955,18.192 31.0900039,18.0140018 30.318,17.658 C29.5459961,17.3019982 28.8760028,16.7600036 28.308,16.032 C27.7399972,15.3039964 27.2960016,14.3820056 26.976,13.266 C26.6559984,12.1499944 26.496,10.8360076 26.496,9.324 C26.496,7.8039924 26.6559984,6.48800556 26.976,5.376 C27.2960016,4.26399444 27.7399972,3.34400364 28.308,2.616 C28.8760028,1.88799636 29.5459961,1.34600178 30.318,0.99 C31.0900039,0.63399822 31.9279955,0.456 32.832,0.456 C33.7360045,0.456 34.5779961,0.63399822 35.358,0.99 C36.1380039,1.34600178 36.8139971,1.88799636 37.386,2.616 C37.9580029,3.34400364 38.4059984,4.26399444 38.73,5.376 C39.0540016,6.48800556 39.216,7.8039924 39.216,9.324 Z M36.156,9.324 C36.156,8.06799372 36.0640009,7.02800412 35.88,6.204 C35.6959991,5.37999588 35.4500015,4.72400244 35.142,4.236 C34.8339985,3.74799756 34.480002,3.40600098 34.08,3.21 C33.679998,3.01399902 33.2640022,2.916 32.832,2.916 C32.4079979,2.916 31.998002,3.01399902 31.602,3.21 C31.205998,3.40600098 30.8560015,3.74799756 30.552,4.236 C30.2479985,4.72400244 30.0060009,5.37999588 29.826,6.204 C29.6459991,7.02800412 29.556,8.06799372 29.556,9.324 C29.556,10.5800063 29.6459991,11.6199959 29.826,12.444 C30.0060009,13.2680041 30.2479985,13.9239976 30.552,14.412 C30.8560015,14.9000024 31.205998,15.241999 31.602,15.438 C31.998002,15.634001 32.4079979,15.732 32.832,15.732 C33.2640022,15.732 33.679998,15.634001 34.08,15.438 C34.480002,15.241999 34.8339985,14.9000024 35.142,14.412 C35.4500015,13.9239976 35.6959991,13.2680041 35.88,12.444 C36.0640009,11.6199959 36.156,10.5800063 36.156,9.324 Z M47.776,15.876 C48.2640024,15.876 48.6919982,15.8060007 49.06,15.666 C49.4280018,15.5259993 49.7379987,15.3320012 49.99,15.084 C50.2420013,14.8359988 50.4319994,14.5400017 50.56,14.196 C50.6880006,13.8519983 50.752,13.480002 50.752,13.08 C50.752,12.1279952 50.4880026,11.4080024 49.96,10.92 C49.4319974,10.4319976 48.7040046,10.188 47.776,10.188 C46.8479954,10.188 46.1200026,10.4319976 45.592,10.92 C45.0639974,11.4080024 44.8,12.1279952 44.8,13.08 C44.8,13.480002 44.8639994,13.8519983 44.992,14.196 C45.1200006,14.5400017 45.3099987,14.8359988 45.562,15.084 C45.8140013,15.3320012 46.1239982,15.5259993 46.492,15.666 C46.8600018,15.8060007 47.2879976,15.876 47.776,15.876 Z M47.776,2.688 C47.3359978,2.688 46.9560016,2.75599932 46.636,2.892 C46.3159984,3.02800068 46.0500011,3.20999886 45.838,3.438 C45.6259989,3.66600114 45.4700005,3.92799852 45.37,4.224 C45.2699995,4.52000148 45.22,4.83199836 45.22,5.16 C45.22,5.50400172 45.2619996,5.83799838 45.346,6.162 C45.4300004,6.48600162 45.571999,6.77399874 45.772,7.026 C45.972001,7.27800126 46.2359984,7.47999924 46.564,7.632 C46.8920016,7.78400076 47.2959976,7.86 47.776,7.86 C48.2560024,7.86 48.6599984,7.78400076 48.988,7.632 C49.3160016,7.47999924 49.579999,7.27800126 49.78,7.026 C49.980001,6.77399874 50.1219996,6.48600162 50.206,6.162 C50.2900004,5.83799838 50.332,5.50400172 50.332,5.16 C50.332,4.83199836 50.2800005,4.52000148 50.176,4.224 C50.0719995,3.92799852 49.916001,3.66600114 49.708,3.438 C49.499999,3.20999886 49.2360016,3.02800068 48.916,2.892 C48.5959984,2.75599932 48.2160022,2.688 47.776,2.688 Z M50.704,8.952 C51.7600053,9.29600172 52.5399975,9.82199646 53.044,10.53 C53.5480025,11.2380035 53.8,12.1039949 53.8,13.128 C53.8,13.8960038 53.6540015,14.5919969 53.362,15.216 C53.0699985,15.8400031 52.6600026,16.3719978 52.132,16.812 C51.6039974,17.2520022 50.9700037,17.5919988 50.23,17.832 C49.4899963,18.0720012 48.6720045,18.192 47.776,18.192 C46.8799955,18.192 46.0620037,18.0720012 45.322,17.832 C44.5819963,17.5919988 43.9480026,17.2520022 43.42,16.812 C42.8919974,16.3719978 42.4820015,15.8400031 42.19,15.216 C41.8979985,14.5919969 41.752,13.8960038 41.752,13.128 C41.752,12.1039949 42.0039975,11.2380035 42.508,10.53 C43.0120025,9.82199646 43.7919947,9.29600172 44.848,8.952 C44.0079958,8.59999824 43.3780021,8.10000324 42.958,7.452 C42.5379979,6.80399676 42.328,6.02400456 42.328,5.112 C42.328,4.45599672 42.4619987,3.84400284 42.73,3.276 C42.9980013,2.70799716 43.3719976,2.2140021 43.852,1.794 C44.3320024,1.3739979 44.9059967,1.04600118 45.574,0.81 C46.2420033,0.57399882 46.975996,0.456 47.776,0.456 C48.576004,0.456 49.3099967,0.57399882 49.978,0.81 C50.6460033,1.04600118 51.2199976,1.3739979 51.7,1.794 C52.1800024,2.2140021 52.5539987,2.70799716 52.822,3.276 C53.0900013,3.84400284 53.224,4.45599672 53.224,5.112 C53.224,6.02400456 53.0140021,6.80399676 52.594,7.452 C52.1739979,8.10000324 51.5440042,8.59999824 50.704,8.952 Z M69.056,9.324 C69.056,10.8360076 68.8940016,12.1499944 68.57,13.266 C68.2459984,14.3820056 67.7980029,15.3039964 67.226,16.032 C66.6539971,16.7600036 65.9780039,17.3019982 65.198,17.658 C64.4179961,18.0140018 63.5760045,18.192 62.672,18.192 C61.7679955,18.192 60.9300039,18.0140018 60.158,17.658 C59.3859961,17.3019982 58.7160028,16.7600036 58.148,16.032 C57.5799972,15.3039964 57.1360016,14.3820056 56.816,13.266 C56.4959984,12.1499944 56.336,10.8360076 56.336,9.324 C56.336,7.8039924 56.4959984,6.48800556 56.816,5.376 C57.1360016,4.26399444 57.5799972,3.34400364 58.148,2.616 C58.7160028,1.88799636 59.3859961,1.34600178 60.158,0.99 C60.9300039,0.63399822 61.7679955,0.456 62.672,0.456 C63.5760045,0.456 64.4179961,0.63399822 65.198,0.99 C65.9780039,1.34600178 66.6539971,1.88799636 67.226,2.616 C67.7980029,3.34400364 68.2459984,4.26399444 68.57,5.376 C68.8940016,6.48800556 69.056,7.8039924 69.056,9.324 Z M65.996,9.324 C65.996,8.06799372 65.9040009,7.02800412 65.72,6.204 C65.5359991,5.37999588 65.2900015,4.72400244 64.982,4.236 C64.6739985,3.74799756 64.320002,3.40600098 63.92,3.21 C63.519998,3.01399902 63.1040022,2.916 62.672,2.916 C62.2479979,2.916 61.838002,3.01399902 61.442,3.21 C61.045998,3.40600098 60.6960015,3.74799756 60.392,4.236 C60.0879985,4.72400244 59.8460009,5.37999588 59.666,6.204 C59.4859991,7.02800412 59.396,8.06799372 59.396,9.324 C59.396,10.5800063 59.4859991,11.6199959 59.666,12.444 C59.8460009,13.2680041 60.0879985,13.9239976 60.392,14.412 C60.6960015,14.9000024 61.045998,15.241999 61.442,15.438 C61.838002,15.634001 62.2479979,15.732 62.672,15.732 C63.1040022,15.732 63.519998,15.634001 63.92,15.438 C64.320002,15.241999 64.6739985,14.9000024 64.982,14.412 C65.2900015,13.9239976 65.5359991,13.2680041 65.72,12.444 C65.9040009,11.6199959 65.996,10.5800063 65.996,9.324 Z M83.976,9.324 C83.976,10.8360076 83.8140016,12.1499944 83.49,13.266 C83.1659984,14.3820056 82.7180029,15.3039964 82.146,16.032 C81.5739971,16.7600036 80.8980039,17.3019982 80.118,17.658 C79.3379961,18.0140018 78.4960045,18.192 77.592,18.192 C76.6879955,18.192 75.8500039,18.0140018 75.078,17.658 C74.3059961,17.3019982 73.6360028,16.7600036 73.068,16.032 C72.4999972,15.3039964 72.0560016,14.3820056 71.736,13.266 C71.4159984,12.1499944 71.256,10.8360076 71.256,9.324 C71.256,7.8039924 71.4159984,6.48800556 71.736,5.376 C72.0560016,4.26399444 72.4999972,3.34400364 73.068,2.616 C73.6360028,1.88799636 74.3059961,1.34600178 75.078,0.99 C75.8500039,0.63399822 76.6879955,0.456 77.592,0.456 C78.4960045,0.456 79.3379961,0.63399822 80.118,0.99 C80.8980039,1.34600178 81.5739971,1.88799636 82.146,2.616 C82.7180029,3.34400364 83.1659984,4.26399444 83.49,5.376 C83.8140016,6.48800556 83.976,7.8039924 83.976,9.324 Z M80.916,9.324 C80.916,8.06799372 80.8240009,7.02800412 80.64,6.204 C80.4559991,5.37999588 80.2100015,4.72400244 79.902,4.236 C79.5939985,3.74799756 79.240002,3.40600098 78.84,3.21 C78.439998,3.01399902 78.0240022,2.916 77.592,2.916 C77.1679979,2.916 76.758002,3.01399902 76.362,3.21 C75.965998,3.40600098 75.6160015,3.74799756 75.312,4.236 C75.0079985,4.72400244 74.7660009,5.37999588 74.586,6.204 C74.4059991,7.02800412 74.316,8.06799372 74.316,9.324 C74.316,10.5800063 74.4059991,11.6199959 74.586,12.444 C74.7660009,13.2680041 75.0079985,13.9239976 75.312,14.412 C75.6160015,14.9000024 75.965998,15.241999 76.362,15.438 C76.758002,15.634001 77.1679979,15.732 77.592,15.732 C78.0240022,15.732 78.439998,15.634001 78.84,15.438 C79.240002,15.241999 79.5939985,14.9000024 79.902,14.412 C80.2100015,13.9239976 80.4559991,13.2680041 80.64,12.444 C80.8240009,11.6199959 80.916,10.5800063 80.916,9.324 Z M86.944,9.516 L93.16,9.516 L93.16,11.988 L86.944,11.988 L86.944,9.516 Z M102.488,15.876 C102.976002,15.876 103.403998,15.8060007 103.772,15.666 C104.140002,15.5259993 104.449999,15.3320012 104.702,15.084 C104.954001,14.8359988 105.143999,14.5400017 105.272,14.196 C105.400001,13.8519983 105.464,13.480002 105.464,13.08 C105.464,12.1279952 105.200003,11.4080024 104.672,10.92 C104.143997,10.4319976 103.416005,10.188 102.488,10.188 C101.559995,10.188 100.832003,10.4319976 100.304,10.92 C99.7759974,11.4080024 99.512,12.1279952 99.512,13.08 C99.512,13.480002 99.5759994,13.8519983 99.704,14.196 C99.8320006,14.5400017 100.021999,14.8359988 100.274,15.084 C100.526001,15.3320012 100.835998,15.5259993 101.204,15.666 C101.572002,15.8060007 101.999998,15.876 102.488,15.876 Z M102.488,2.688 C102.047998,2.688 101.668002,2.75599932 101.348,2.892 C101.027998,3.02800068 100.762001,3.20999886 100.55,3.438 C100.337999,3.66600114 100.182,3.92799852 100.082,4.224 C99.9819995,4.52000148 99.932,4.83199836 99.932,5.16 C99.932,5.50400172 99.9739996,5.83799838 100.058,6.162 C100.142,6.48600162 100.283999,6.77399874 100.484,7.026 C100.684001,7.27800126 100.947998,7.47999924 101.276,7.632 C101.604002,7.78400076 102.007998,7.86 102.488,7.86 C102.968002,7.86 103.371998,7.78400076 103.7,7.632 C104.028002,7.47999924 104.291999,7.27800126 104.492,7.026 C104.692001,6.77399874 104.834,6.48600162 104.918,6.162 C105.002,5.83799838 105.044,5.50400172 105.044,5.16 C105.044,4.83199836 104.992001,4.52000148 104.888,4.224 C104.783999,3.92799852 104.628001,3.66600114 104.42,3.438 C104.211999,3.20999886 103.948002,3.02800068 103.628,2.892 C103.307998,2.75599932 102.928002,2.688 102.488,2.688 Z M105.416,8.952 C106.472005,9.29600172 107.251997,9.82199646 107.756,10.53 C108.260003,11.2380035 108.512,12.1039949 108.512,13.128 C108.512,13.8960038 108.366001,14.5919969 108.074,15.216 C107.781999,15.8400031 107.372003,16.3719978 106.844,16.812 C106.315997,17.2520022 105.682004,17.5919988 104.942,17.832 C104.201996,18.0720012 103.384004,18.192 102.488,18.192 C101.591996,18.192 100.774004,18.0720012 100.034,17.832 C99.2939963,17.5919988 98.6600026,17.2520022 98.132,16.812 C97.6039974,16.3719978 97.1940015,15.8400031 96.902,15.216 C96.6099985,14.5919969 96.464,13.8960038 96.464,13.128 C96.464,12.1039949 96.7159975,11.2380035 97.22,10.53 C97.7240025,9.82199646 98.5039947,9.29600172 99.56,8.952 C98.7199958,8.59999824 98.0900021,8.10000324 97.67,7.452 C97.2499979,6.80399676 97.04,6.02400456 97.04,5.112 C97.04,4.45599672 97.1739987,3.84400284 97.442,3.276 C97.7100013,2.70799716 98.0839976,2.2140021 98.564,1.794 C99.0440024,1.3739979 99.6179967,1.04600118 100.286,0.81 C100.954003,0.57399882 101.687996,0.456 102.488,0.456 C103.288004,0.456 104.021997,0.57399882 104.69,0.81 C105.358003,1.04600118 105.931998,1.3739979 106.412,1.794 C106.892002,2.2140021 107.265999,2.70799716 107.534,3.276 C107.802001,3.84400284 107.936,4.45599672 107.936,5.112 C107.936,6.02400456 107.726002,6.80399676 107.306,7.452 C106.885998,8.10000324 106.256004,8.59999824 105.416,8.952 Z M117.408,15.876 C117.896002,15.876 118.323998,15.8060007 118.692,15.666 C119.060002,15.5259993 119.369999,15.3320012 119.622,15.084 C119.874001,14.8359988 120.063999,14.5400017 120.192,14.196 C120.320001,13.8519983 120.384,13.480002 120.384,13.08 C120.384,12.1279952 120.120003,11.4080024 119.592,10.92 C119.063997,10.4319976 118.336005,10.188 117.408,10.188 C116.479995,10.188 115.752003,10.4319976 115.224,10.92 C114.695997,11.4080024 114.432,12.1279952 114.432,13.08 C114.432,13.480002 114.495999,13.8519983 114.624,14.196 C114.752001,14.5400017 114.941999,14.8359988 115.194,15.084 C115.446001,15.3320012 115.755998,15.5259993 116.124,15.666 C116.492002,15.8060007 116.919998,15.876 117.408,15.876 Z M117.408,2.688 C116.967998,2.688 116.588002,2.75599932 116.268,2.892 C115.947998,3.02800068 115.682001,3.20999886 115.47,3.438 C115.257999,3.66600114 115.102001,3.92799852 115.002,4.224 C114.901999,4.52000148 114.852,4.83199836 114.852,5.16 C114.852,5.50400172 114.894,5.83799838 114.978,6.162 C115.062,6.48600162 115.203999,6.77399874 115.404,7.026 C115.604001,7.27800126 115.867998,7.47999924 116.196,7.632 C116.524002,7.78400076 116.927998,7.86 117.408,7.86 C117.888002,7.86 118.291998,7.78400076 118.62,7.632 C118.948002,7.47999924 119.211999,7.27800126 119.412,7.026 C119.612001,6.77399874 119.754,6.48600162 119.838,6.162 C119.922,5.83799838 119.964,5.50400172 119.964,5.16 C119.964,4.83199836 119.912001,4.52000148 119.808,4.224 C119.703999,3.92799852 119.548001,3.66600114 119.34,3.438 C119.131999,3.20999886 118.868002,3.02800068 118.548,2.892 C118.227998,2.75599932 117.848002,2.688 117.408,2.688 Z M120.336,8.952 C121.392005,9.29600172 122.171997,9.82199646 122.676,10.53 C123.180003,11.2380035 123.432,12.1039949 123.432,13.128 C123.432,13.8960038 123.286001,14.5919969 122.994,15.216 C122.701999,15.8400031 122.292003,16.3719978 121.764,16.812 C121.235997,17.2520022 120.602004,17.5919988 119.862,17.832 C119.121996,18.0720012 118.304004,18.192 117.408,18.192 C116.511996,18.192 115.694004,18.0720012 114.954,17.832 C114.213996,17.5919988 113.580003,17.2520022 113.052,16.812 C112.523997,16.3719978 112.114001,15.8400031 111.822,15.216 C111.529999,14.5919969 111.384,13.8960038 111.384,13.128 C111.384,12.1039949 111.635997,11.2380035 112.14,10.53 C112.644003,9.82199646 113.423995,9.29600172 114.48,8.952 C113.639996,8.59999824 113.010002,8.10000324 112.59,7.452 C112.169998,6.80399676 111.96,6.02400456 111.96,5.112 C111.96,4.45599672 112.093999,3.84400284 112.362,3.276 C112.630001,2.70799716 113.003998,2.2140021 113.484,1.794 C113.964002,1.3739979 114.537997,1.04600118 115.206,0.81 C115.874003,0.57399882 116.607996,0.456 117.408,0.456 C118.208004,0.456 118.941997,0.57399882 119.61,0.81 C120.278003,1.04600118 120.851998,1.3739979 121.332,1.794 C121.812002,2.2140021 122.185999,2.70799716 122.454,3.276 C122.722001,3.84400284 122.856,4.45599672 122.856,5.112 C122.856,6.02400456 122.646002,6.80399676 122.226,7.452 C121.805998,8.10000324 121.176004,8.59999824 120.336,8.952 Z M130.24,6.948 C130.624002,6.8679996 130.991998,6.81000018 131.344,6.774 C131.696002,6.73799982 132.035998,6.72 132.364,6.72 C133.276005,6.72 134.079997,6.85599864 134.776,7.128 C135.472003,7.40000136 136.055998,7.7759976 136.528,8.256 C137.000002,8.7360024 137.355999,9.29799678 137.596,9.942 C137.836001,10.5860032 137.956,11.2799963 137.956,12.024 C137.956,12.9440046 137.794002,13.7839962 137.47,14.544 C137.145998,15.3040038 136.696003,15.9539973 136.12,16.494 C135.543997,17.0340027 134.862004,17.4519985 134.074,17.748 C133.285996,18.0440015 132.428005,18.192 131.5,18.192 C130.955997,18.192 130.440002,18.1360006 129.952,18.024 C129.463998,17.9119994 129.006002,17.7620009 128.578,17.574 C128.149998,17.3859991 127.754002,17.1700012 127.39,16.926 C127.025998,16.6819988 126.700001,16.4240014 126.412,16.152 L127.324,14.892 C127.516001,14.6199986 127.767998,14.484 128.08,14.484 C128.280001,14.484 128.483999,14.5479994 128.692,14.676 C128.900001,14.8040006 129.137999,14.9439992 129.406,15.096 C129.674001,15.2480008 129.989998,15.3879994 130.354,15.516 C130.718002,15.6440006 131.155997,15.708 131.668,15.708 C132.212003,15.708 132.691998,15.6200009 133.108,15.444 C133.524002,15.2679991 133.869999,15.0220016 134.146,14.706 C134.422001,14.3899984 134.629999,14.0140022 134.77,13.578 C134.910001,13.1419978 134.98,12.6680026 134.98,12.156 C134.98,11.2119953 134.706003,10.4740027 134.158,9.942 C133.609997,9.40999734 132.800005,9.144 131.728,9.144 C130.903996,9.144 130.060004,9.29599848 129.196,9.6 L127.348,9.072 L128.788,0.648 L137.356,0.648 L137.356,1.908 C137.356,2.33200212 137.224001,2.67599868 136.96,2.94 C136.695999,3.20400132 136.248003,3.336 135.616,3.336 L130.852,3.336 L130.24,6.948 Z M141.656,9.516 L147.872,9.516 L147.872,11.988 L141.656,11.988 L141.656,9.516 Z M162.012,15.24 C162.332002,15.24 162.585999,15.3299991 162.774,15.51 C162.962001,15.6900009 163.056,15.9279985 163.056,16.224 L163.056,18 L151.152,18 L151.152,17.016 C151.152,16.815999 151.194,16.6060011 151.278,16.386 C151.362,16.1659989 151.495999,15.9680009 151.68,15.792 L156.948,10.512 C157.388002,10.0639978 157.781998,9.63600204 158.13,9.228 C158.478002,8.81999796 158.767999,8.416002 159,8.016 C159.232001,7.615998 159.409999,7.21000206 159.534,6.798 C159.658001,6.38599794 159.72,5.95200228 159.72,5.496 C159.72,5.07999792 159.660001,4.71400158 159.54,4.398 C159.419999,4.08199842 159.250001,3.81600108 159.03,3.6 C158.809999,3.38399892 158.546002,3.22200054 158.238,3.114 C157.929998,3.00599946 157.584002,2.952 157.2,2.952 C156.847998,2.952 156.522001,3.0019995 156.222,3.102 C155.921998,3.2020005 155.656001,3.3419991 155.424,3.522 C155.191999,3.7020009 154.996001,3.9119988 154.836,4.152 C154.675999,4.3920012 154.556,4.65599856 154.476,4.944 C154.339999,5.31200184 154.164001,5.5559994 153.948,5.676 C153.731999,5.7960006 153.420002,5.82400032 153.012,5.76 L151.452,5.484 C151.572001,4.65199584 151.803998,3.92200314 152.148,3.294 C152.492002,2.66599686 152.921997,2.1420021 153.438,1.722 C153.954003,1.3019979 154.545997,0.98600106 155.214,0.774 C155.882003,0.56199894 156.599996,0.456 157.368,0.456 C158.168004,0.456 158.899997,0.57399882 159.564,0.81 C160.228003,1.04600118 160.795998,1.37999784 161.268,1.812 C161.740002,2.24400216 162.107999,2.76399696 162.372,3.372 C162.636001,3.98000304 162.768,4.65599628 162.768,5.4 C162.768,6.0400032 162.674001,6.63199728 162.486,7.176 C162.297999,7.72000272 162.046002,8.23999752 161.73,8.736 C161.413998,9.23200248 161.044002,9.71199768 160.62,10.176 C160.195998,10.6400023 159.752002,11.1119976 159.288,11.592 L155.376,15.588 C155.752002,15.4759994 156.125998,15.3900003 156.498,15.33 C156.870002,15.2699997 157.223998,15.24 157.56,15.24 L162.012,15.24 Z M176.932,15.24 C177.252002,15.24 177.505999,15.3299991 177.694,15.51 C177.882001,15.6900009 177.976,15.9279985 177.976,16.224 L177.976,18 L166.072,18 L166.072,17.016 C166.072,16.815999 166.114,16.6060011 166.198,16.386 C166.282,16.1659989 166.415999,15.9680009 166.6,15.792 L171.868,10.512 C172.308002,10.0639978 172.701998,9.63600204 173.05,9.228 C173.398002,8.81999796 173.687999,8.416002 173.92,8.016 C174.152001,7.615998 174.329999,7.21000206 174.454,6.798 C174.578001,6.38599794 174.64,5.95200228 174.64,5.496 C174.64,5.07999792 174.580001,4.71400158 174.46,4.398 C174.339999,4.08199842 174.170001,3.81600108 173.95,3.6 C173.729999,3.38399892 173.466002,3.22200054 173.158,3.114 C172.849998,3.00599946 172.504002,2.952 172.12,2.952 C171.767998,2.952 171.442002,3.0019995 171.142,3.102 C170.841999,3.2020005 170.576001,3.3419991 170.344,3.522 C170.111999,3.7020009 169.916001,3.9119988 169.756,4.152 C169.595999,4.3920012 169.476,4.65599856 169.396,4.944 C169.259999,5.31200184 169.084001,5.5559994 168.868,5.676 C168.651999,5.7960006 168.340002,5.82400032 167.932,5.76 L166.372,5.484 C166.492001,4.65199584 166.723998,3.92200314 167.068,3.294 C167.412002,2.66599686 167.841997,2.1420021 168.358,1.722 C168.874003,1.3019979 169.465997,0.98600106 170.134,0.774 C170.802003,0.56199894 171.519996,0.456 172.288,0.456 C173.088004,0.456 173.819997,0.57399882 174.484,0.81 C175.148003,1.04600118 175.715998,1.37999784 176.188,1.812 C176.660002,2.24400216 177.027999,2.76399696 177.292,3.372 C177.556001,3.98000304 177.688,4.65599628 177.688,5.4 C177.688,6.0400032 177.594001,6.63199728 177.406,7.176 C177.217999,7.72000272 176.966002,8.23999752 176.65,8.736 C176.333998,9.23200248 175.964002,9.71199768 175.54,10.176 C175.115998,10.6400023 174.672002,11.1119976 174.208,11.592 L170.296,15.588 C170.672002,15.4759994 171.045998,15.3900003 171.418,15.33 C171.790002,15.2699997 172.143998,15.24 172.48,15.24 L176.932,15.24 Z M191.852,15.24 C192.172002,15.24 192.425999,15.3299991 192.614,15.51 C192.802001,15.6900009 192.896,15.9279985 192.896,16.224 L192.896,18 L180.992,18 L180.992,17.016 C180.992,16.815999 181.034,16.6060011 181.118,16.386 C181.202,16.1659989 181.335999,15.9680009 181.52,15.792 L186.788,10.512 C187.228002,10.0639978 187.621998,9.63600204 187.97,9.228 C188.318002,8.81999796 188.607999,8.416002 188.84,8.016 C189.072001,7.615998 189.249999,7.21000206 189.374,6.798 C189.498001,6.38599794 189.56,5.95200228 189.56,5.496 C189.56,5.07999792 189.500001,4.71400158 189.38,4.398 C189.259999,4.08199842 189.090001,3.81600108 188.87,3.6 C188.649999,3.38399892 188.386002,3.22200054 188.078,3.114 C187.769998,3.00599946 187.424002,2.952 187.04,2.952 C186.687998,2.952 186.362002,3.0019995 186.062,3.102 C185.761999,3.2020005 185.496001,3.3419991 185.264,3.522 C185.031999,3.7020009 184.836001,3.9119988 184.676,4.152 C184.515999,4.3920012 184.396,4.65599856 184.316,4.944 C184.179999,5.31200184 184.004001,5.5559994 183.788,5.676 C183.571999,5.7960006 183.260002,5.82400032 182.852,5.76 L181.292,5.484 C181.412001,4.65199584 181.643998,3.92200314 181.988,3.294 C182.332002,2.66599686 182.761997,2.1420021 183.278,1.722 C183.794003,1.3019979 184.385997,0.98600106 185.054,0.774 C185.722003,0.56199894 186.439996,0.456 187.208,0.456 C188.008004,0.456 188.739997,0.57399882 189.404,0.81 C190.068003,1.04600118 190.635998,1.37999784 191.108,1.812 C191.580002,2.24400216 191.947999,2.76399696 192.212,3.372 C192.476001,3.98000304 192.608,4.65599628 192.608,5.4 C192.608,6.0400032 192.514001,6.63199728 192.326,7.176 C192.137999,7.72000272 191.886002,8.23999752 191.57,8.736 C191.253998,9.23200248 190.884002,9.71199768 190.46,10.176 C190.035998,10.6400023 189.592002,11.1119976 189.128,11.592 L185.216,15.588 C185.592002,15.4759994 185.965998,15.3900003 186.338,15.33 C186.710002,15.2699997 187.063998,15.24 187.4,15.24 L191.852,15.24 Z" id="0800-885-222"></path>
            <path d="M8.4,24.8 L8.4,32 L7.37,32 L7.37,27.065 C7.37,26.9849996 7.37249997,26.8975005 7.3775,26.8025 C7.38250002,26.7074995 7.38999995,26.6116672 7.4,26.515 L5.085,30.79 C4.99499955,30.9666676 4.8566676,31.055 4.67,31.055 L4.505,31.055 C4.31499905,31.055 4.1766671,30.9666676 4.09,30.79 L1.74,26.505 C1.75000005,26.6016672 1.75749997,26.6983329 1.7625,26.795 C1.76750003,26.8916672 1.77,26.9816662 1.77,27.065 L1.77,32 L0.74,32 L0.74,24.8 L1.615,24.8 C1.71833385,24.8 1.79833305,24.8091666 1.855,24.8275 C1.91166695,24.8458334 1.9633331,24.9016662 2.01,24.995 L4.32,29.18 C4.37000025,29.2766672 4.41749978,29.3758328 4.4625,29.4775 C4.50750023,29.5791672 4.54833315,29.6833328 4.585,29.79 C4.6250002,29.6833328 4.66749978,29.5775005 4.7125,29.4725 C4.75750023,29.3674995 4.80499975,29.2666672 4.855,29.17 L7.13,24.995 C7.1766669,24.9016662 7.22833305,24.8458334 7.285,24.8275 C7.34166695,24.8091666 7.42166615,24.8 7.525,24.8 L8.4,24.8 Z M12.96,26.82 C13.3366686,26.82 13.6774985,26.881666 13.9825,27.005 C14.2875015,27.1283339 14.5474989,27.3033322 14.7625,27.53 C14.9775011,27.7566678 15.1433327,28.031665 15.26,28.355 C15.3766673,28.678335 15.435,29.0416646 15.435,29.445 C15.435,29.8483353 15.3766673,30.2116651 15.26,30.535 C15.1433327,30.858335 14.9775011,31.1341655 14.7625,31.3625 C14.5474989,31.5908345 14.2875015,31.766666 13.9825,31.89 C13.6774985,32.0133339 13.3366686,32.075 12.96,32.075 C12.5799981,32.075 12.2375015,32.0133339 11.9325,31.89 C11.6274985,31.766666 11.3666678,31.5908345 11.15,31.3625 C10.9333323,31.1341655 10.7666672,30.858335 10.65,30.535 C10.5333327,30.2116651 10.475,29.8483353 10.475,29.445 C10.475,29.0416646 10.5333327,28.678335 10.65,28.355 C10.7666672,28.031665 10.9333323,27.7566678 11.15,27.53 C11.3666678,27.3033322 11.6274985,27.1283339 11.9325,27.005 C12.2375015,26.881666 12.5799981,26.82 12.96,26.82 Z M12.96,31.235 C13.4200023,31.235 13.7624989,31.0808349 13.9875,30.7725 C14.2125011,30.4641651 14.325,30.0233362 14.325,29.45 C14.325,28.8766638 14.2125011,28.4341682 13.9875,28.1225 C13.7624989,27.8108318 13.4200023,27.655 12.96,27.655 C12.493331,27.655 12.1466678,27.8108318 11.92,28.1225 C11.6933322,28.4341682 11.58,28.8766638 11.58,29.45 C11.58,30.0233362 11.6933322,30.4641651 11.92,30.7725 C12.1466678,31.0808349 12.493331,31.235 12.96,31.235 Z M18.47,27.575 C18.5800006,27.4616661 18.6941661,27.3591671 18.8125,27.2675 C18.9308339,27.1758329 19.056666,27.096667 19.19,27.03 C19.323334,26.963333 19.4649992,26.9116669 19.615,26.875 C19.7650008,26.8383331 19.9283324,26.82 20.105,26.82 C20.3850014,26.82 20.6308323,26.8666662 20.8425,26.96 C21.0541677,27.0533338 21.2324993,27.1849992 21.3775,27.355 C21.5225007,27.5250008 21.6316663,27.7291655 21.705,27.9675 C21.7783337,28.2058345 21.815,28.4683319 21.815,28.755 L21.815,32 L20.745,32 L20.745,28.755 C20.745,28.411665 20.6658341,28.145001 20.5075,27.955 C20.3491659,27.7649991 20.1083349,27.67 19.785,27.67 C19.5449988,27.67 19.322501,27.7249994 19.1175,27.835 C18.912499,27.9450006 18.7200009,28.0949991 18.54,28.285 L18.54,32 L17.465,32 L17.465,26.9 L18.115,26.9 C18.2616674,26.9 18.3549998,26.9683326 18.395,27.105 L18.47,27.575 Z M24.015,28.535 L26.55,28.535 L26.55,29.445 L24.015,29.445 L24.015,28.535 Z M32.765,26.03 C32.7283331,26.0900003 32.6900002,26.1341665 32.65,26.1625 C32.6099998,26.1908335 32.5600003,26.205 32.5,26.205 C32.4366663,26.205 32.3658337,26.1783336 32.2875,26.125 C32.2091663,26.0716664 32.1125006,26.0125003 31.9975,25.9475 C31.8824994,25.8824997 31.7466675,25.8225003 31.59,25.7675 C31.4333326,25.7124997 31.2466678,25.685 31.03,25.685 C30.829999,25.685 30.6541674,25.7099997 30.5025,25.76 C30.3508326,25.8100002 30.2233339,25.8799996 30.12,25.97 C30.0166661,26.0600005 29.9391669,26.1658327 29.8875,26.2875 C29.8358331,26.4091673 29.81,26.5416659 29.81,26.685 C29.81,26.8683342 29.8583328,27.0208327 29.955,27.1425 C30.0516671,27.2641673 30.1791659,27.3683329 30.3375,27.455 C30.4958341,27.5416671 30.6766656,27.6174997 30.88,27.6825 C31.0833343,27.7475003 31.2908323,27.8166663 31.5025,27.89 C31.7141677,27.9633337 31.9216656,28.0466662 32.125,28.14 C32.3283343,28.2333338 32.5091659,28.351666 32.6675,28.495 C32.8258341,28.638334 32.9533329,28.8133323 33.05,29.02 C33.1466671,29.2266677 33.195,29.4783319 33.195,29.775 C33.195,30.0950016 33.1400005,30.3949986 33.03,30.675 C32.9199994,30.9550014 32.7608344,31.1991656 32.5525,31.4075 C32.3441656,31.6158344 32.0875015,31.7799994 31.7825,31.9 C31.4774985,32.0200006 31.1300019,32.08 30.74,32.08 C30.5099989,32.08 30.2858344,32.0575002 30.0675,32.0125 C29.8491656,31.9674998 29.6408343,31.9041671 29.4425,31.8225 C29.2441657,31.7408329 29.0583342,31.6416672 28.885,31.525 C28.7116658,31.4083328 28.5566673,31.2783341 28.42,31.135 L28.76,30.575 C28.7900001,30.5283331 28.8283331,30.4916668 28.875,30.465 C28.9216669,30.4383332 28.973333,30.425 29.03,30.425 C29.106667,30.425 29.1916662,30.460833 29.285,30.5325 C29.3783338,30.604167 29.4908327,30.6824996 29.6225,30.7675 C29.7541673,30.8525004 29.9133324,30.930833 30.1,31.0025 C30.2866676,31.074167 30.5099987,31.11 30.77,31.11 C31.1933355,31.11 31.5208322,31.0066677 31.7525,30.8 C31.9841678,30.5933323 32.1,30.3083351 32.1,29.945 C32.1,29.7416656 32.0516671,29.575834 31.955,29.4475 C31.8583328,29.319166 31.7308341,29.2116671 31.5725,29.125 C31.4141659,29.0383329 31.2333343,28.9650003 31.03,28.905 C30.8266656,28.8449997 30.6200011,28.7808337 30.41,28.7125 C30.199999,28.6441663 29.9933344,28.5641671 29.79,28.4725 C29.5866656,28.3808329 29.4058341,28.2608341 29.2475,28.1125 C29.0891659,27.9641659 28.9616671,27.7808344 28.865,27.5625 C28.7683328,27.3441656 28.72,27.0716683 28.72,26.745 C28.72,26.4849987 28.7708328,26.2333346 28.8725,25.99 C28.9741672,25.7466655 29.122499,25.5308343 29.3175,25.3425 C29.512501,25.1541657 29.7533319,25.0033339 30.04,24.89 C30.3266681,24.7766661 30.6533315,24.72 31.02,24.72 C31.4333354,24.72 31.8124983,24.7849994 32.1575,24.915 C32.5025017,25.0450006 32.7999987,25.2299988 33.05,25.47 L32.765,26.03 Z M37.91,29.77 C37.5266647,29.7833334 37.2033346,29.8141664 36.94,29.8625 C36.6766653,29.9108336 36.4633341,29.9724996 36.3,30.0475 C36.1366659,30.1225004 36.019167,30.2116662 35.9475,30.315 C35.875833,30.4183338 35.84,30.5316661 35.84,30.655 C35.84,30.7750006 35.8591665,30.8774996 35.8975,30.9625 C35.9358335,31.0475004 35.9891663,31.1174997 36.0575,31.1725 C36.1258337,31.2275003 36.2058329,31.2674999 36.2975,31.2925 C36.3891671,31.3175001 36.4899995,31.33 36.6,31.33 C36.8800014,31.33 37.1208323,31.2775005 37.3225,31.1725 C37.5241677,31.0674995 37.719999,30.915001 37.91,30.715 L37.91,29.77 Z M35.06,27.61 C35.6366696,27.0733306 36.3233293,26.805 37.12,26.805 C37.4133348,26.805 37.6741655,26.8524995 37.9025,26.9475 C38.1308345,27.0425005 38.3224992,27.1766658 38.4775,27.35 C38.6325008,27.5233342 38.7508329,27.7291655 38.8325,27.9675 C38.9141671,28.2058345 38.955,28.4699986 38.955,28.76 L38.955,32 L38.475,32 C38.3716661,32 38.2933336,31.9841668 38.24,31.9525 C38.1866664,31.9208332 38.1416669,31.8566672 38.105,31.76 L38,31.345 C37.8699993,31.4616672 37.7416673,31.5658329 37.615,31.6575 C37.4883327,31.7491671 37.3575007,31.8266663 37.2225,31.89 C37.0874993,31.9533336 36.9425008,32.0008332 36.7875,32.0325 C36.6324992,32.0641668 36.4616676,32.08 36.275,32.08 C36.0683323,32.08 35.8758342,32.051667 35.6975,31.995 C35.5191658,31.9383331 35.3650007,31.8525006 35.235,31.7375 C35.1049994,31.6224994 35.0025004,31.4800008 34.9275,31.31 C34.8524996,31.1399992 34.815,30.9400012 34.815,30.71 C34.815,30.5133324 34.8674995,30.3216676 34.9725,30.135 C35.0775005,29.9483324 35.2508321,29.7808341 35.4925,29.6325 C35.7341679,29.4841659 36.052498,29.3616672 36.4475,29.265 C36.842502,29.1683329 37.3299971,29.1133334 37.91,29.1 L37.91,28.76 C37.91,28.3933315 37.8316675,28.1200009 37.675,27.94 C37.5183325,27.7599991 37.2883348,27.67 36.985,27.67 C36.7783323,27.67 36.6050007,27.6958331 36.465,27.7475 C36.3249993,27.7991669 36.2033339,27.8549997 36.1,27.915 C35.9966661,27.9750003 35.9050004,28.0308331 35.825,28.0825 C35.7449996,28.1341669 35.6600005,28.16 35.57,28.16 C35.4966663,28.16 35.4341669,28.1408335 35.3825,28.1025 C35.3308331,28.0641665 35.2883335,28.016667 35.255,27.96 L35.06,27.61 Z M42.775,32.08 C42.3516645,32.08 42.0258345,31.9608345 41.7975,31.7225 C41.5691655,31.4841655 41.455,31.1483355 41.455,30.715 L41.455,27.745 L40.895,27.745 C40.8349997,27.745 40.7833335,27.7258335 40.74,27.6875 C40.6966665,27.6491665 40.675,27.5916671 40.675,27.515 L40.675,27.08 L41.5,26.96 L41.735,25.485 C41.7516667,25.4283331 41.7799998,25.3825002 41.82,25.3475 C41.8600002,25.3124998 41.913333,25.295 41.98,25.295 L42.53,25.295 L42.53,26.97 L43.945,26.97 L43.945,27.745 L42.53,27.745 L42.53,30.64 C42.53,30.8233342 42.5749996,30.9633329 42.665,31.06 C42.7550004,31.1566672 42.8749992,31.205 43.025,31.205 C43.1083337,31.205 43.1799997,31.1941668 43.24,31.1725 C43.3000003,31.1508332 43.3516664,31.1275001 43.395,31.1025 C43.4383336,31.0774999 43.4758332,31.0541668 43.5075,31.0325 C43.5391668,31.0108332 43.5699998,31 43.6,31 C43.6600003,31 43.7083331,31.033333 43.745,31.1 L44.065,31.625 C43.8983325,31.7716674 43.7016678,31.8841663 43.475,31.9625 C43.2483322,32.0408337 43.0150012,32.08 42.775,32.08 Z M50.17,26.94 C50.17,27.3666688 50.2841655,27.6941655 50.5125,27.9225 C50.7408345,28.1508345 51.0599979,28.265 51.47,28.265 C51.6900011,28.265 51.8841658,28.2300004 52.0525,28.16 C52.2208342,28.0899997 52.3633328,27.9958339 52.48,27.8775 C52.5966672,27.7591661 52.6849997,27.6208341 52.745,27.4625 C52.8050003,27.3041659 52.835,27.1350009 52.835,26.955 C52.835,26.744999 52.8025003,26.5575008 52.7375,26.3925 C52.6724997,26.2274992 52.5808339,26.0866672 52.4625,25.97 C52.3441661,25.8533327 52.2033342,25.764167 52.04,25.7025 C51.8766658,25.640833 51.6983343,25.61 51.505,25.61 C51.3016656,25.61 51.1183342,25.643333 50.955,25.71 C50.7916658,25.776667 50.6516673,25.8691661 50.535,25.9875 C50.4183327,26.1058339 50.3283336,26.2458325 50.265,26.4075 C50.2016663,26.5691675 50.17,26.7466657 50.17,26.94 Z M52.015,29.175 C52.081667,29.0916663 52.143333,29.0125004 52.2,28.9375 C52.256667,28.8624996 52.3099997,28.786667 52.36,28.71 C52.1866658,28.833334 51.9933344,28.9274997 51.78,28.9925 C51.5666656,29.0575003 51.3400012,29.09 51.1,29.09 C50.8399987,29.09 50.5900012,29.0458338 50.35,28.9575 C50.1099988,28.8691662 49.8966676,28.7375009 49.71,28.5625 C49.5233324,28.3874991 49.3741672,28.1708346 49.2625,27.9125 C49.1508328,27.6541654 49.095,27.3566684 49.095,27.02 C49.095,26.7033317 49.1541661,26.4050014 49.2725,26.125 C49.3908339,25.8449986 49.5566656,25.6008344 49.77,25.3925 C49.9833344,25.1841656 50.2383319,25.0200006 50.535,24.9 C50.8316682,24.7799994 51.1599982,24.72 51.52,24.72 C51.8766685,24.72 52.1999986,24.7774994 52.49,24.8925 C52.7800014,25.0075006 53.0266656,25.1691656 53.23,25.3775 C53.4333343,25.5858344 53.5899995,25.8341652 53.7,26.1225 C53.8100006,26.4108348 53.865,26.7283316 53.865,27.075 C53.865,27.2916677 53.8458335,27.4966657 53.8075,27.69 C53.7691665,27.8833343 53.714167,28.0708324 53.6425,28.2525 C53.570833,28.4341676 53.4841672,28.6124991 53.3825,28.7875 C53.2808328,28.9625009 53.1666673,29.1399991 53.04,29.32 L51.345,31.75 C51.2949997,31.8233337 51.2208338,31.8833331 51.1225,31.93 C51.0241662,31.9766669 50.9133339,32 50.79,32 L49.805,32 L52.015,29.175 Z M56.005,31.38 C56.005,31.2833329 56.0224998,31.1925004 56.0575,31.1075 C56.0925002,31.0224996 56.140833,30.9483336 56.2025,30.885 C56.264167,30.8216663 56.3374996,30.7716668 56.4225,30.735 C56.5075004,30.6983331 56.5983329,30.68 56.695,30.68 C56.7916671,30.68 56.8824996,30.6983331 56.9675,30.735 C57.0525004,30.7716668 57.1266664,30.8216663 57.19,30.885 C57.2533337,30.9483336 57.3033332,31.0224996 57.34,31.1075 C57.3766668,31.1925004 57.395,31.2833329 57.395,31.38 C57.395,31.4800005 57.3766668,31.5716662 57.34,31.655 C57.3033332,31.7383337 57.2533337,31.8116664 57.19,31.875 C57.1266664,31.9383336 57.0525004,31.9874998 56.9675,32.0225 C56.8824996,32.0575002 56.7916671,32.075 56.695,32.075 C56.5983329,32.075 56.5075004,32.0575002 56.4225,32.0225 C56.3374996,31.9874998 56.264167,31.9383336 56.2025,31.875 C56.140833,31.8116664 56.0925002,31.7383337 56.0575,31.655 C56.0224998,31.5716662 56.005,31.4800005 56.005,31.38 Z M56.005,27.735 C56.005,27.6383328 56.0224998,27.5475004 56.0575,27.4625 C56.0925002,27.3774996 56.140833,27.3033337 56.2025,27.24 C56.264167,27.1766664 56.3374996,27.1266669 56.4225,27.09 C56.5075004,27.0533332 56.5983329,27.035 56.695,27.035 C56.7916671,27.035 56.8824996,27.0533332 56.9675,27.09 C57.0525004,27.1266669 57.1266664,27.1766664 57.19,27.24 C57.2533337,27.3033337 57.3033332,27.3774996 57.34,27.4625 C57.3766668,27.5475004 57.395,27.6383328 57.395,27.735 C57.395,27.8350005 57.3766668,27.9266663 57.34,28.01 C57.3033332,28.0933338 57.2533337,28.1666664 57.19,28.23 C57.1266664,28.2933337 57.0525004,28.3424998 56.9675,28.3775 C56.8824996,28.4125002 56.7916671,28.43 56.695,28.43 C56.5983329,28.43 56.5075004,28.4125002 56.4225,28.3775 C56.3374996,28.3424998 56.264167,28.2933337 56.2025,28.23 C56.140833,28.1666664 56.0925002,28.0933338 56.0575,28.01 C56.0224998,27.9266663 56.005,27.8350005 56.005,27.735 Z M64.495,28.4 C64.495,29.0300032 64.4275007,29.5749977 64.2925,30.035 C64.1574993,30.4950023 63.9716678,30.8766652 63.735,31.18 C63.4983321,31.4833348 63.2200016,31.7083326 62.9,31.855 C62.5799984,32.0016674 62.2350019,32.075 61.865,32.075 C61.4949981,32.075 61.1500016,32.0016674 60.83,31.855 C60.5099984,31.7083326 60.2325012,31.4833348 59.9975,31.18 C59.7624988,30.8766652 59.578334,30.4950023 59.445,30.035 C59.311666,29.5749977 59.245,29.0300032 59.245,28.4 C59.245,27.7699969 59.311666,27.224169 59.445,26.7625 C59.578334,26.300831 59.7624988,25.9191682 59.9975,25.6175 C60.2325012,25.3158318 60.5099984,25.0908341 60.83,24.9425 C61.1500016,24.7941659 61.4949981,24.72 61.865,24.72 C62.2350019,24.72 62.5799984,24.7941659 62.9,24.9425 C63.2200016,25.0908341 63.4983321,25.3158318 63.735,25.6175 C63.9716678,25.9191682 64.1574993,26.300831 64.2925,26.7625 C64.4275007,27.224169 64.495,27.7699969 64.495,28.4 Z M63.385,28.4 C63.385,27.866664 63.3425004,27.4225018 63.2575,27.0675 C63.1724996,26.7124982 63.0600007,26.4283344 62.92,26.215 C62.7799993,26.0016656 62.6183342,25.8500005 62.435,25.76 C62.2516658,25.6699996 62.0616676,25.625 61.865,25.625 C61.664999,25.625 61.4741676,25.6699996 61.2925,25.76 C61.1108324,25.8500005 60.9500007,26.0016656 60.81,26.215 C60.6699993,26.4283344 60.5583337,26.7124982 60.475,27.0675 C60.3916663,27.4225018 60.35,27.866664 60.35,28.4 C60.35,28.933336 60.3916663,29.3774982 60.475,29.7325 C60.5583337,30.0875018 60.6699993,30.3716656 60.81,30.585 C60.9500007,30.7983344 61.1108324,30.9499996 61.2925,31.04 C61.4741676,31.1300004 61.664999,31.175 61.865,31.175 C62.0616676,31.175 62.2516658,31.1300004 62.435,31.04 C62.6183342,30.9499996 62.7799993,30.7983344 62.92,30.585 C63.0600007,30.3716656 63.1724996,30.0875018 63.2575,29.7325 C63.3425004,29.3774982 63.385,28.933336 63.385,28.4 Z M71.295,28.4 C71.295,29.0300032 71.2275007,29.5749977 71.0925,30.035 C70.9574993,30.4950023 70.7716679,30.8766652 70.535,31.18 C70.2983322,31.4833348 70.0200016,31.7083326 69.7,31.855 C69.3799984,32.0016674 69.0350018,32.075 68.665,32.075 C68.2949982,32.075 67.9500016,32.0016674 67.63,31.855 C67.3099984,31.7083326 67.0325012,31.4833348 66.7975,31.18 C66.5624988,30.8766652 66.378334,30.4950023 66.245,30.035 C66.111666,29.5749977 66.045,29.0300032 66.045,28.4 C66.045,27.7699969 66.111666,27.224169 66.245,26.7625 C66.378334,26.300831 66.5624988,25.9191682 66.7975,25.6175 C67.0325012,25.3158318 67.3099984,25.0908341 67.63,24.9425 C67.9500016,24.7941659 68.2949982,24.72 68.665,24.72 C69.0350018,24.72 69.3799984,24.7941659 69.7,24.9425 C70.0200016,25.0908341 70.2983322,25.3158318 70.535,25.6175 C70.7716679,25.9191682 70.9574993,26.300831 71.0925,26.7625 C71.2275007,27.224169 71.295,27.7699969 71.295,28.4 Z M70.185,28.4 C70.185,27.866664 70.1425004,27.4225018 70.0575,27.0675 C69.9724996,26.7124982 69.8600007,26.4283344 69.72,26.215 C69.5799993,26.0016656 69.4183343,25.8500005 69.235,25.76 C69.0516657,25.6699996 68.8616677,25.625 68.665,25.625 C68.464999,25.625 68.2741676,25.6699996 68.0925,25.76 C67.9108324,25.8500005 67.7500007,26.0016656 67.61,26.215 C67.4699993,26.4283344 67.3583337,26.7124982 67.275,27.0675 C67.1916662,27.4225018 67.15,27.866664 67.15,28.4 C67.15,28.933336 67.1916662,29.3774982 67.275,29.7325 C67.3583337,30.0875018 67.4699993,30.3716656 67.61,30.585 C67.7500007,30.7983344 67.9108324,30.9499996 68.0925,31.04 C68.2741676,31.1300004 68.464999,31.175 68.665,31.175 C68.8616677,31.175 69.0516657,31.1300004 69.235,31.04 C69.4183343,30.9499996 69.5799993,30.7983344 69.72,30.585 C69.8600007,30.3716656 69.9724996,30.0875018 70.0575,29.7325 C70.1425004,29.3774982 70.185,28.933336 70.185,28.4 Z M73.165,28.535 L75.7,28.535 L75.7,29.445 L73.165,29.445 L73.165,28.535 Z M82.215,30.985 C82.3316673,30.985 82.423333,31.0191663 82.49,31.0875 C82.556667,31.1558337 82.59,31.2433328 82.59,31.35 L82.59,32 L77.72,32 L77.72,31.635 C77.72,31.5616663 77.7349998,31.4850004 77.765,31.405 C77.7950001,31.3249996 77.843333,31.251667 77.91,31.185 L80.15,28.94 C80.340001,28.7499991 80.5091659,28.5683342 80.6575,28.395 C80.8058341,28.2216658 80.9324995,28.0483342 81.0375,27.875 C81.1425005,27.7016658 81.2224997,27.5258342 81.2775,27.3475 C81.3325003,27.1691658 81.36,26.9816677 81.36,26.785 C81.36,26.5949991 81.3308336,26.4275007 81.2725,26.2825 C81.2141664,26.1374993 81.1341672,26.0175005 81.0325,25.9225 C80.9308328,25.8274995 80.8091674,25.7558336 80.6675,25.7075 C80.5258326,25.6591664 80.3700008,25.635 80.2,25.635 C80.0366658,25.635 79.885834,25.6583331 79.7475,25.705 C79.609166,25.7516669 79.4858339,25.8166662 79.3775,25.9 C79.2691661,25.9833338 79.179167,26.0824994 79.1075,26.1975 C79.035833,26.3125006 78.9833335,26.4383327 78.95,26.575 C78.8999998,26.7116674 78.8358337,26.8033331 78.7575,26.85 C78.6791663,26.8966669 78.5650007,26.9066668 78.415,26.88 L77.85,26.78 C77.9000002,26.4399983 77.994166,26.1416679 78.1325,25.885 C78.270834,25.628332 78.4449989,25.4141675 78.655,25.2425 C78.8650011,25.0708325 79.105832,24.9408338 79.3775,24.8525 C79.649168,24.7641662 79.9433317,24.72 80.26,24.72 C80.5800016,24.72 80.8741653,24.7674995 81.1425,24.8625 C81.4108347,24.9575005 81.642499,25.0924991 81.8375,25.2675 C82.032501,25.4425009 82.1849994,25.6549988 82.295,25.905 C82.4050005,26.1550013 82.46,26.4366651 82.46,26.75 C82.46,27.016668 82.4208337,27.2633322 82.3425,27.49 C82.2641663,27.7166678 82.158334,27.9333323 82.025,28.14 C81.891666,28.3466677 81.7358342,28.547499 81.5575,28.7425 C81.3791658,28.937501 81.1916676,29.134999 80.995,29.335 L79.255,31.115 C79.398334,31.0749998 79.5424993,31.0433335 79.6875,31.02 C79.8325007,30.9966665 79.9699993,30.985 80.1,30.985 L82.215,30.985 Z M89.015,30.985 C89.1316672,30.985 89.223333,31.0191663 89.29,31.0875 C89.356667,31.1558337 89.39,31.2433328 89.39,31.35 L89.39,32 L84.52,32 L84.52,31.635 C84.52,31.5616663 84.5349999,31.4850004 84.565,31.405 C84.5950002,31.3249996 84.643333,31.251667 84.71,31.185 L86.95,28.94 C87.1400009,28.7499991 87.3091659,28.5683342 87.4575,28.395 C87.6058341,28.2216658 87.7324995,28.0483342 87.8375,27.875 C87.9425005,27.7016658 88.0224997,27.5258342 88.0775,27.3475 C88.1325003,27.1691658 88.16,26.9816677 88.16,26.785 C88.16,26.5949991 88.1308336,26.4275007 88.0725,26.2825 C88.0141664,26.1374993 87.9341672,26.0175005 87.8325,25.9225 C87.7308328,25.8274995 87.6091674,25.7558336 87.4675,25.7075 C87.3258326,25.6591664 87.1700008,25.635 87,25.635 C86.8366658,25.635 86.685834,25.6583331 86.5475,25.705 C86.409166,25.7516669 86.2858339,25.8166662 86.1775,25.9 C86.0691661,25.9833338 85.979167,26.0824994 85.9075,26.1975 C85.835833,26.3125006 85.7833335,26.4383327 85.75,26.575 C85.6999997,26.7116674 85.6358337,26.8033331 85.5575,26.85 C85.4791663,26.8966669 85.3650008,26.9066668 85.215,26.88 L84.65,26.78 C84.7000002,26.4399983 84.794166,26.1416679 84.9325,25.885 C85.070834,25.628332 85.244999,25.4141675 85.455,25.2425 C85.665001,25.0708325 85.905832,24.9408338 86.1775,24.8525 C86.449168,24.7641662 86.7433317,24.72 87.06,24.72 C87.3800016,24.72 87.6741653,24.7674995 87.9425,24.8625 C88.2108347,24.9575005 88.442499,25.0924991 88.6375,25.2675 C88.832501,25.4425009 88.9849995,25.6549988 89.095,25.905 C89.2050006,26.1550013 89.26,26.4366651 89.26,26.75 C89.26,27.016668 89.2208337,27.2633322 89.1425,27.49 C89.0641663,27.7166678 88.958334,27.9333323 88.825,28.14 C88.691666,28.3466677 88.5358342,28.547499 88.3575,28.7425 C88.1791658,28.937501 87.9916676,29.134999 87.795,29.335 L86.055,31.115 C86.1983341,31.0749998 86.3424993,31.0433335 86.4875,31.02 C86.6325007,30.9966665 86.7699994,30.985 86.9,30.985 L89.015,30.985 Z M91.47,31.38 C91.47,31.2833329 91.4874998,31.1925004 91.5225,31.1075 C91.5575002,31.0224996 91.605833,30.9483336 91.6675,30.885 C91.729167,30.8216663 91.8024996,30.7716668 91.8875,30.735 C91.9725004,30.6983331 92.0633328,30.68 92.16,30.68 C92.2566671,30.68 92.3474996,30.6983331 92.4325,30.735 C92.5175004,30.7716668 92.5916663,30.8216663 92.655,30.885 C92.7183336,30.9483336 92.7683331,31.0224996 92.805,31.1075 C92.8416668,31.1925004 92.86,31.2833329 92.86,31.38 C92.86,31.4800005 92.8416668,31.5716662 92.805,31.655 C92.7683331,31.7383337 92.7183336,31.8116664 92.655,31.875 C92.5916663,31.9383336 92.5175004,31.9874998 92.4325,32.0225 C92.3474996,32.0575002 92.2566671,32.075 92.16,32.075 C92.0633328,32.075 91.9725004,32.0575002 91.8875,32.0225 C91.8024996,31.9874998 91.729167,31.9383336 91.6675,31.875 C91.605833,31.8116664 91.5575002,31.7383337 91.5225,31.655 C91.4874998,31.5716662 91.47,31.4800005 91.47,31.38 Z M91.47,27.735 C91.47,27.6383328 91.4874998,27.5475004 91.5225,27.4625 C91.5575002,27.3774996 91.605833,27.3033337 91.6675,27.24 C91.729167,27.1766664 91.8024996,27.1266669 91.8875,27.09 C91.9725004,27.0533332 92.0633328,27.035 92.16,27.035 C92.2566671,27.035 92.3474996,27.0533332 92.4325,27.09 C92.5175004,27.1266669 92.5916663,27.1766664 92.655,27.24 C92.7183336,27.3033337 92.7683331,27.3774996 92.805,27.4625 C92.8416668,27.5475004 92.86,27.6383328 92.86,27.735 C92.86,27.8350005 92.8416668,27.9266663 92.805,28.01 C92.7683331,28.0933338 92.7183336,28.1666664 92.655,28.23 C92.5916663,28.2933337 92.5175004,28.3424998 92.4325,28.3775 C92.3474996,28.4125002 92.2566671,28.43 92.16,28.43 C92.0633328,28.43 91.9725004,28.4125002 91.8875,28.3775 C91.8024996,28.3424998 91.729167,28.2933337 91.6675,28.23 C91.605833,28.1666664 91.5575002,28.0933338 91.5225,28.01 C91.4874998,27.9266663 91.47,27.8350005 91.47,27.735 Z M99.96,28.4 C99.96,29.0300032 99.8925007,29.5749977 99.7575,30.035 C99.6224993,30.4950023 99.4366679,30.8766652 99.2,31.18 C98.9633322,31.4833348 98.6850016,31.7083326 98.365,31.855 C98.0449984,32.0016674 97.7000018,32.075 97.33,32.075 C96.9599982,32.075 96.6150016,32.0016674 96.295,31.855 C95.9749984,31.7083326 95.6975012,31.4833348 95.4625,31.18 C95.2274988,30.8766652 95.043334,30.4950023 94.91,30.035 C94.776666,29.5749977 94.71,29.0300032 94.71,28.4 C94.71,27.7699969 94.776666,27.224169 94.91,26.7625 C95.043334,26.300831 95.2274988,25.9191682 95.4625,25.6175 C95.6975012,25.3158318 95.9749984,25.0908341 96.295,24.9425 C96.6150016,24.7941659 96.9599982,24.72 97.33,24.72 C97.7000018,24.72 98.0449984,24.7941659 98.365,24.9425 C98.6850016,25.0908341 98.9633322,25.3158318 99.2,25.6175 C99.4366679,25.9191682 99.6224993,26.300831 99.7575,26.7625 C99.8925007,27.224169 99.96,27.7699969 99.96,28.4 Z M98.85,28.4 C98.85,27.866664 98.8075004,27.4225018 98.7225,27.0675 C98.6374996,26.7124982 98.5250007,26.4283344 98.385,26.215 C98.2449993,26.0016656 98.0833343,25.8500005 97.9,25.76 C97.7166658,25.6699996 97.5266677,25.625 97.33,25.625 C97.129999,25.625 96.9391676,25.6699996 96.7575,25.76 C96.5758324,25.8500005 96.4150007,26.0016656 96.275,26.215 C96.1349993,26.4283344 96.0233337,26.7124982 95.94,27.0675 C95.8566662,27.4225018 95.815,27.866664 95.815,28.4 C95.815,28.933336 95.8566662,29.3774982 95.94,29.7325 C96.0233337,30.0875018 96.1349993,30.3716656 96.275,30.585 C96.4150007,30.7983344 96.5758324,30.9499996 96.7575,31.04 C96.9391676,31.1300004 97.129999,31.175 97.33,31.175 C97.5266677,31.175 97.7166658,31.1300004 97.9,31.04 C98.0833343,30.9499996 98.2449993,30.7983344 98.385,30.585 C98.5250007,30.3716656 98.6374996,30.0875018 98.7225,29.7325 C98.8075004,29.3774982 98.85,28.933336 98.85,28.4 Z M106.76,28.4 C106.76,29.0300032 106.692501,29.5749977 106.5575,30.035 C106.422499,30.4950023 106.236668,30.8766652 106,31.18 C105.763332,31.4833348 105.485002,31.7083326 105.165,31.855 C104.844998,32.0016674 104.500002,32.075 104.13,32.075 C103.759998,32.075 103.415002,32.0016674 103.095,31.855 C102.774998,31.7083326 102.497501,31.4833348 102.2625,31.18 C102.027499,30.8766652 101.843334,30.4950023 101.71,30.035 C101.576666,29.5749977 101.51,29.0300032 101.51,28.4 C101.51,27.7699969 101.576666,27.224169 101.71,26.7625 C101.843334,26.300831 102.027499,25.9191682 102.2625,25.6175 C102.497501,25.3158318 102.774998,25.0908341 103.095,24.9425 C103.415002,24.7941659 103.759998,24.72 104.13,24.72 C104.500002,24.72 104.844998,24.7941659 105.165,24.9425 C105.485002,25.0908341 105.763332,25.3158318 106,25.6175 C106.236668,25.9191682 106.422499,26.300831 106.5575,26.7625 C106.692501,27.224169 106.76,27.7699969 106.76,28.4 Z M105.65,28.4 C105.65,27.866664 105.6075,27.4225018 105.5225,27.0675 C105.4375,26.7124982 105.325001,26.4283344 105.185,26.215 C105.044999,26.0016656 104.883334,25.8500005 104.7,25.76 C104.516666,25.6699996 104.326668,25.625 104.13,25.625 C103.929999,25.625 103.739168,25.6699996 103.5575,25.76 C103.375832,25.8500005 103.215001,26.0016656 103.075,26.215 C102.934999,26.4283344 102.823334,26.7124982 102.74,27.0675 C102.656666,27.4225018 102.615,27.866664 102.615,28.4 C102.615,28.933336 102.656666,29.3774982 102.74,29.7325 C102.823334,30.0875018 102.934999,30.3716656 103.075,30.585 C103.215001,30.7983344 103.375832,30.9499996 103.5575,31.04 C103.739168,31.1300004 103.929999,31.175 104.13,31.175 C104.326668,31.175 104.516666,31.1300004 104.7,31.04 C104.883334,30.9499996 105.044999,30.7983344 105.185,30.585 C105.325001,30.3716656 105.4375,30.0875018 105.5225,29.7325 C105.6075,29.3774982 105.65,28.933336 105.65,28.4 Z M116.145,26.03 C116.108333,26.0900003 116.07,26.1341665 116.03,26.1625 C115.99,26.1908335 115.94,26.205 115.88,26.205 C115.816666,26.205 115.745834,26.1783336 115.6675,26.125 C115.589166,26.0716664 115.492501,26.0125003 115.3775,25.9475 C115.262499,25.8824997 115.126667,25.8225003 114.97,25.7675 C114.813333,25.7124997 114.626668,25.685 114.41,25.685 C114.209999,25.685 114.034167,25.7099997 113.8825,25.76 C113.730833,25.8100002 113.603334,25.8799996 113.5,25.97 C113.396666,26.0600005 113.319167,26.1658327 113.2675,26.2875 C113.215833,26.4091673 113.19,26.5416659 113.19,26.685 C113.19,26.8683342 113.238333,27.0208327 113.335,27.1425 C113.431667,27.2641673 113.559166,27.3683329 113.7175,27.455 C113.875834,27.5416671 114.056666,27.6174997 114.26,27.6825 C114.463334,27.7475003 114.670832,27.8166663 114.8825,27.89 C115.094168,27.9633337 115.301666,28.0466662 115.505,28.14 C115.708334,28.2333338 115.889166,28.351666 116.0475,28.495 C116.205834,28.638334 116.333333,28.8133323 116.43,29.02 C116.526667,29.2266677 116.575,29.4783319 116.575,29.775 C116.575,30.0950016 116.520001,30.3949986 116.41,30.675 C116.299999,30.9550014 116.140834,31.1991656 115.9325,31.4075 C115.724166,31.6158344 115.467502,31.7799994 115.1625,31.9 C114.857498,32.0200006 114.510002,32.08 114.12,32.08 C113.889999,32.08 113.665834,32.0575002 113.4475,32.0125 C113.229166,31.9674998 113.020834,31.9041671 112.8225,31.8225 C112.624166,31.7408329 112.438334,31.6416672 112.265,31.525 C112.091666,31.4083328 111.936667,31.2783341 111.8,31.135 L112.14,30.575 C112.17,30.5283331 112.208333,30.4916668 112.255,30.465 C112.301667,30.4383332 112.353333,30.425 112.41,30.425 C112.486667,30.425 112.571666,30.460833 112.665,30.5325 C112.758334,30.604167 112.870833,30.6824996 113.0025,30.7675 C113.134167,30.8525004 113.293332,30.930833 113.48,31.0025 C113.666668,31.074167 113.889999,31.11 114.15,31.11 C114.573335,31.11 114.900832,31.0066677 115.1325,30.8 C115.364168,30.5933323 115.48,30.3083351 115.48,29.945 C115.48,29.7416656 115.431667,29.575834 115.335,29.4475 C115.238333,29.319166 115.110834,29.2116671 114.9525,29.125 C114.794166,29.0383329 114.613334,28.9650003 114.41,28.905 C114.206666,28.8449997 114.000001,28.7808337 113.79,28.7125 C113.579999,28.6441663 113.373334,28.5641671 113.17,28.4725 C112.966666,28.3808329 112.785834,28.2608341 112.6275,28.1125 C112.469166,27.9641659 112.341667,27.7808344 112.245,27.5625 C112.148333,27.3441656 112.1,27.0716683 112.1,26.745 C112.1,26.4849987 112.150833,26.2333346 112.2525,25.99 C112.354167,25.7466655 112.502499,25.5308343 112.6975,25.3425 C112.892501,25.1541657 113.133332,25.0033339 113.42,24.89 C113.706668,24.7766661 114.033331,24.72 114.4,24.72 C114.813335,24.72 115.192498,24.7849994 115.5375,24.915 C115.882502,25.0450006 116.179999,25.2299988 116.43,25.47 L116.145,26.03 Z M122.84,26.9 L122.84,32 L122.19,32 C122.046666,32 121.955,31.9316673 121.915,31.795 L121.835,31.32 C121.728333,31.4333339 121.615834,31.5366662 121.4975,31.63 C121.379166,31.7233338 121.253334,31.803333 121.12,31.87 C120.986666,31.936667 120.844167,31.9883331 120.6925,32.025 C120.540833,32.0616668 120.378334,32.08 120.205,32.08 C119.924999,32.08 119.678334,32.0333338 119.465,31.94 C119.251666,31.8466662 119.072501,31.7150009 118.9275,31.545 C118.782499,31.3749991 118.673334,31.1708345 118.6,30.9325 C118.526666,30.6941655 118.49,30.4316681 118.49,30.145 L118.49,26.9 L119.565,26.9 L119.565,30.145 C119.565,30.4883351 119.644166,30.7549991 119.8025,30.945 C119.960834,31.135001 120.201665,31.23 120.525,31.23 C120.761668,31.23 120.982499,31.1758339 121.1875,31.0675 C121.392501,30.9591661 121.584999,30.810001 121.765,30.62 L121.765,26.9 L122.84,26.9 Z M126.155,27.575 C126.265001,27.4616661 126.379166,27.3591671 126.4975,27.2675 C126.615834,27.1758329 126.741666,27.096667 126.875,27.03 C127.008334,26.963333 127.149999,26.9116669 127.3,26.875 C127.450001,26.8383331 127.613332,26.82 127.79,26.82 C128.070001,26.82 128.315832,26.8666662 128.5275,26.96 C128.739168,27.0533338 128.917499,27.1849992 129.0625,27.355 C129.207501,27.5250008 129.316666,27.7291655 129.39,27.9675 C129.463334,28.2058345 129.5,28.4683319 129.5,28.755 L129.5,32 L128.43,32 L128.43,28.755 C128.43,28.411665 128.350834,28.145001 128.1925,27.955 C128.034166,27.7649991 127.793335,27.67 127.47,27.67 C127.229999,27.67 127.007501,27.7249994 126.8025,27.835 C126.597499,27.9450006 126.405001,28.0949991 126.225,28.285 L126.225,32 L125.15,32 L125.15,26.9 L125.8,26.9 C125.946667,26.9 126.04,26.9683326 126.08,27.105 L126.155,27.575 Z M136.135,26.94 C136.135,27.3666688 136.249166,27.6941655 136.4775,27.9225 C136.705834,28.1508345 137.024998,28.265 137.435,28.265 C137.655001,28.265 137.849166,28.2300004 138.0175,28.16 C138.185834,28.0899997 138.328333,27.9958339 138.445,27.8775 C138.561667,27.7591661 138.65,27.6208341 138.71,27.4625 C138.77,27.3041659 138.8,27.1350009 138.8,26.955 C138.8,26.744999 138.7675,26.5575008 138.7025,26.3925 C138.6375,26.2274992 138.545834,26.0866672 138.4275,25.97 C138.309166,25.8533327 138.168334,25.764167 138.005,25.7025 C137.841666,25.640833 137.663334,25.61 137.47,25.61 C137.266666,25.61 137.083334,25.643333 136.92,25.71 C136.756666,25.776667 136.616667,25.8691661 136.5,25.9875 C136.383333,26.1058339 136.293334,26.2458325 136.23,26.4075 C136.166666,26.5691675 136.135,26.7466657 136.135,26.94 Z M137.98,29.175 C138.046667,29.0916663 138.108333,29.0125004 138.165,28.9375 C138.221667,28.8624996 138.275,28.786667 138.325,28.71 C138.151666,28.833334 137.958334,28.9274997 137.745,28.9925 C137.531666,29.0575003 137.305001,29.09 137.065,29.09 C136.804999,29.09 136.555001,29.0458338 136.315,28.9575 C136.074999,28.8691662 135.861668,28.7375009 135.675,28.5625 C135.488332,28.3874991 135.339167,28.1708346 135.2275,27.9125 C135.115833,27.6541654 135.06,27.3566684 135.06,27.02 C135.06,26.7033317 135.119166,26.4050014 135.2375,26.125 C135.355834,25.8449986 135.521666,25.6008344 135.735,25.3925 C135.948334,25.1841656 136.203332,25.0200006 136.5,24.9 C136.796668,24.7799994 137.124998,24.72 137.485,24.72 C137.841668,24.72 138.164999,24.7774994 138.455,24.8925 C138.745001,25.0075006 138.991666,25.1691656 139.195,25.3775 C139.398334,25.5858344 139.554999,25.8341652 139.665,26.1225 C139.775001,26.4108348 139.83,26.7283316 139.83,27.075 C139.83,27.2916677 139.810834,27.4966657 139.7725,27.69 C139.734166,27.8833343 139.679167,28.0708324 139.6075,28.2525 C139.535833,28.4341676 139.449167,28.6124991 139.3475,28.7875 C139.245833,28.9625009 139.131667,29.1399991 139.005,29.32 L137.31,31.75 C137.26,31.8233337 137.185834,31.8833331 137.0875,31.93 C136.989166,31.9766669 136.878334,32 136.755,32 L135.77,32 L137.98,29.175 Z M141.97,31.38 C141.97,31.2833329 141.9875,31.1925004 142.0225,31.1075 C142.0575,31.0224996 142.105833,30.9483336 142.1675,30.885 C142.229167,30.8216663 142.3025,30.7716668 142.3875,30.735 C142.4725,30.6983331 142.563333,30.68 142.66,30.68 C142.756667,30.68 142.8475,30.6983331 142.9325,30.735 C143.0175,30.7716668 143.091666,30.8216663 143.155,30.885 C143.218334,30.9483336 143.268333,31.0224996 143.305,31.1075 C143.341667,31.1925004 143.36,31.2833329 143.36,31.38 C143.36,31.4800005 143.341667,31.5716662 143.305,31.655 C143.268333,31.7383337 143.218334,31.8116664 143.155,31.875 C143.091666,31.9383336 143.0175,31.9874998 142.9325,32.0225 C142.8475,32.0575002 142.756667,32.075 142.66,32.075 C142.563333,32.075 142.4725,32.0575002 142.3875,32.0225 C142.3025,31.9874998 142.229167,31.9383336 142.1675,31.875 C142.105833,31.8116664 142.0575,31.7383337 142.0225,31.655 C141.9875,31.5716662 141.97,31.4800005 141.97,31.38 Z M141.97,27.735 C141.97,27.6383328 141.9875,27.5475004 142.0225,27.4625 C142.0575,27.3774996 142.105833,27.3033337 142.1675,27.24 C142.229167,27.1766664 142.3025,27.1266669 142.3875,27.09 C142.4725,27.0533332 142.563333,27.035 142.66,27.035 C142.756667,27.035 142.8475,27.0533332 142.9325,27.09 C143.0175,27.1266669 143.091666,27.1766664 143.155,27.24 C143.218334,27.3033337 143.268333,27.3774996 143.305,27.4625 C143.341667,27.5475004 143.36,27.6383328 143.36,27.735 C143.36,27.8350005 143.341667,27.9266663 143.305,28.01 C143.268333,28.0933338 143.218334,28.1666664 143.155,28.23 C143.091666,28.2933337 143.0175,28.3424998 142.9325,28.3775 C142.8475,28.4125002 142.756667,28.43 142.66,28.43 C142.563333,28.43 142.4725,28.4125002 142.3875,28.3775 C142.3025,28.3424998 142.229167,28.2933337 142.1675,28.23 C142.105833,28.1666664 142.0575,28.0933338 142.0225,28.01 C141.9875,27.9266663 141.97,27.8350005 141.97,27.735 Z M150.46,28.4 C150.46,29.0300032 150.392501,29.5749977 150.2575,30.035 C150.122499,30.4950023 149.936668,30.8766652 149.7,31.18 C149.463332,31.4833348 149.185002,31.7083326 148.865,31.855 C148.544998,32.0016674 148.200002,32.075 147.83,32.075 C147.459998,32.075 147.115002,32.0016674 146.795,31.855 C146.474998,31.7083326 146.197501,31.4833348 145.9625,31.18 C145.727499,30.8766652 145.543334,30.4950023 145.41,30.035 C145.276666,29.5749977 145.21,29.0300032 145.21,28.4 C145.21,27.7699969 145.276666,27.224169 145.41,26.7625 C145.543334,26.300831 145.727499,25.9191682 145.9625,25.6175 C146.197501,25.3158318 146.474998,25.0908341 146.795,24.9425 C147.115002,24.7941659 147.459998,24.72 147.83,24.72 C148.200002,24.72 148.544998,24.7941659 148.865,24.9425 C149.185002,25.0908341 149.463332,25.3158318 149.7,25.6175 C149.936668,25.9191682 150.122499,26.300831 150.2575,26.7625 C150.392501,27.224169 150.46,27.7699969 150.46,28.4 Z M149.35,28.4 C149.35,27.866664 149.3075,27.4225018 149.2225,27.0675 C149.1375,26.7124982 149.025001,26.4283344 148.885,26.215 C148.744999,26.0016656 148.583334,25.8500005 148.4,25.76 C148.216666,25.6699996 148.026668,25.625 147.83,25.625 C147.629999,25.625 147.439168,25.6699996 147.2575,25.76 C147.075832,25.8500005 146.915001,26.0016656 146.775,26.215 C146.634999,26.4283344 146.523334,26.7124982 146.44,27.0675 C146.356666,27.4225018 146.315,27.866664 146.315,28.4 C146.315,28.933336 146.356666,29.3774982 146.44,29.7325 C146.523334,30.0875018 146.634999,30.3716656 146.775,30.585 C146.915001,30.7983344 147.075832,30.9499996 147.2575,31.04 C147.439168,31.1300004 147.629999,31.175 147.83,31.175 C148.026668,31.175 148.216666,31.1300004 148.4,31.04 C148.583334,30.9499996 148.744999,30.7983344 148.885,30.585 C149.025001,30.3716656 149.1375,30.0875018 149.2225,29.7325 C149.3075,29.3774982 149.35,28.933336 149.35,28.4 Z M157.26,28.4 C157.26,29.0300032 157.192501,29.5749977 157.0575,30.035 C156.922499,30.4950023 156.736668,30.8766652 156.5,31.18 C156.263332,31.4833348 155.985002,31.7083326 155.665,31.855 C155.344998,32.0016674 155.000002,32.075 154.63,32.075 C154.259998,32.075 153.915002,32.0016674 153.595,31.855 C153.274998,31.7083326 152.997501,31.4833348 152.7625,31.18 C152.527499,30.8766652 152.343334,30.4950023 152.21,30.035 C152.076666,29.5749977 152.01,29.0300032 152.01,28.4 C152.01,27.7699969 152.076666,27.224169 152.21,26.7625 C152.343334,26.300831 152.527499,25.9191682 152.7625,25.6175 C152.997501,25.3158318 153.274998,25.0908341 153.595,24.9425 C153.915002,24.7941659 154.259998,24.72 154.63,24.72 C155.000002,24.72 155.344998,24.7941659 155.665,24.9425 C155.985002,25.0908341 156.263332,25.3158318 156.5,25.6175 C156.736668,25.9191682 156.922499,26.300831 157.0575,26.7625 C157.192501,27.224169 157.26,27.7699969 157.26,28.4 Z M156.15,28.4 C156.15,27.866664 156.1075,27.4225018 156.0225,27.0675 C155.9375,26.7124982 155.825001,26.4283344 155.685,26.215 C155.544999,26.0016656 155.383334,25.8500005 155.2,25.76 C155.016666,25.6699996 154.826668,25.625 154.63,25.625 C154.429999,25.625 154.239168,25.6699996 154.0575,25.76 C153.875832,25.8500005 153.715001,26.0016656 153.575,26.215 C153.434999,26.4283344 153.323334,26.7124982 153.24,27.0675 C153.156666,27.4225018 153.115,27.866664 153.115,28.4 C153.115,28.933336 153.156666,29.3774982 153.24,29.7325 C153.323334,30.0875018 153.434999,30.3716656 153.575,30.585 C153.715001,30.7983344 153.875832,30.9499996 154.0575,31.04 C154.239168,31.1300004 154.429999,31.175 154.63,31.175 C154.826668,31.175 155.016666,31.1300004 155.2,31.04 C155.383334,30.9499996 155.544999,30.7983344 155.685,30.585 C155.825001,30.3716656 155.9375,30.0875018 156.0225,29.7325 C156.1075,29.3774982 156.15,28.933336 156.15,28.4 Z M159.13,28.535 L161.665,28.535 L161.665,29.445 L159.13,29.445 L159.13,28.535 Z M168.395,31.185 L168.395,32 L164.47,32 L164.47,31.185 L165.97,31.185 L165.97,26.675 C165.97,26.5149992 165.975,26.3516675 165.985,26.185 L164.83,27.16 C164.78,27.2000002 164.729167,27.2258333 164.6775,27.2375 C164.625833,27.2491667 164.5775,27.2500001 164.5325,27.24 C164.4875,27.23 164.4475,27.2141668 164.4125,27.1925 C164.3775,27.1708332 164.35,27.1466668 164.33,27.12 L163.995,26.65 L166.165,24.785 L167.04,24.785 L167.04,31.185 L168.395,31.185 Z M172.96,31.23 C173.176668,31.23 173.369999,31.199167 173.54,31.1375 C173.710001,31.075833 173.852499,30.9891672 173.9675,30.8775 C174.082501,30.7658328 174.17,30.6333341 174.23,30.48 C174.29,30.3266659 174.32,30.1600009 174.32,29.98 C174.32,29.7599989 174.285834,29.5700008 174.2175,29.41 C174.149166,29.2499992 174.054167,29.1175005 173.9325,29.0125 C173.810833,28.9074995 173.666668,28.8291669 173.5,28.7775 C173.333332,28.7258331 173.153334,28.7 172.96,28.7 C172.766666,28.7 172.586667,28.7258331 172.42,28.7775 C172.253332,28.8291669 172.109167,28.9074995 171.9875,29.0125 C171.865833,29.1175005 171.770834,29.2499992 171.7025,29.41 C171.634166,29.5700008 171.6,29.7599989 171.6,29.98 C171.6,30.1600009 171.63,30.3266659 171.69,30.48 C171.75,30.6333341 171.837499,30.7658328 171.9525,30.8775 C172.067501,30.9891672 172.209999,31.075833 172.38,31.1375 C172.550001,31.199167 172.743332,31.23 172.96,31.23 Z M172.96,25.545 C172.763332,25.545 172.590834,25.5749997 172.4425,25.635 C172.294166,25.6950003 172.171667,25.7749995 172.075,25.875 C171.978333,25.9750005 171.905834,26.0924993 171.8575,26.2275 C171.809166,26.3625007 171.785,26.5049992 171.785,26.655 C171.785,26.8050007 171.805833,26.9516659 171.8475,27.095 C171.889167,27.2383341 171.955833,27.3658328 172.0475,27.4775 C172.139167,27.5891672 172.259999,27.678333 172.41,27.745 C172.560001,27.811667 172.743332,27.845 172.96,27.845 C173.176668,27.845 173.359999,27.811667 173.51,27.745 C173.660001,27.678333 173.780833,27.5891672 173.8725,27.4775 C173.964167,27.3658328 174.030833,27.2383341 174.0725,27.095 C174.114167,26.9516659 174.135,26.8050007 174.135,26.655 C174.135,26.5049992 174.110834,26.3625007 174.0625,26.2275 C174.014166,26.0924993 173.940834,25.9750005 173.8425,25.875 C173.744166,25.7749995 173.621667,25.6950003 173.475,25.635 C173.328333,25.5749997 173.156668,25.545 172.96,25.545 Z M174.095,28.245 C174.538336,28.3816673 174.870832,28.5983319 175.0925,28.895 C175.314168,29.1916681 175.425,29.5599978 175.425,30 C175.425,30.3166682 175.365001,30.6033321 175.245,30.86 C175.124999,31.116668 174.956668,31.3349991 174.74,31.515 C174.523332,31.6950009 174.264168,31.8341662 173.9625,31.9325 C173.660832,32.0308338 173.326668,32.08 172.96,32.08 C172.593332,32.08 172.259168,32.0308338 171.9575,31.9325 C171.655832,31.8341662 171.396668,31.6950009 171.18,31.515 C170.963332,31.3349991 170.795001,31.116668 170.675,30.86 C170.554999,30.6033321 170.495,30.3166682 170.495,30 C170.495,29.5599978 170.605832,29.1916681 170.8275,28.895 C171.049168,28.5983319 171.381664,28.3816673 171.825,28.245 C171.464998,28.101666 171.194168,27.8933347 171.0125,27.62 C170.830832,27.3466653 170.74,27.0183352 170.74,26.635 C170.74,26.3649987 170.793333,26.1133345 170.9,25.88 C171.006667,25.6466655 171.157499,25.4441675 171.3525,25.2725 C171.547501,25.1008325 171.781665,24.9658338 172.055,24.8675 C172.328335,24.7691662 172.629998,24.72 172.96,24.72 C173.290002,24.72 173.590832,24.7691662 173.8625,24.8675 C174.134168,24.9658338 174.367499,25.1008325 174.5625,25.2725 C174.757501,25.4441675 174.909166,25.6466655 175.0175,25.88 C175.125834,26.1133345 175.18,26.3649987 175.18,26.635 C175.18,27.0183352 175.089168,27.3466653 174.9075,27.62 C174.725832,27.8933347 174.455002,28.101666 174.095,28.245 Z M177.435,31.38 C177.435,31.2833329 177.4525,31.1925004 177.4875,31.1075 C177.5225,31.0224996 177.570833,30.9483336 177.6325,30.885 C177.694167,30.8216663 177.7675,30.7716668 177.8525,30.735 C177.9375,30.6983331 178.028333,30.68 178.125,30.68 C178.221667,30.68 178.3125,30.6983331 178.3975,30.735 C178.4825,30.7716668 178.556666,30.8216663 178.62,30.885 C178.683334,30.9483336 178.733333,31.0224996 178.77,31.1075 C178.806667,31.1925004 178.825,31.2833329 178.825,31.38 C178.825,31.4800005 178.806667,31.5716662 178.77,31.655 C178.733333,31.7383337 178.683334,31.8116664 178.62,31.875 C178.556666,31.9383336 178.4825,31.9874998 178.3975,32.0225 C178.3125,32.0575002 178.221667,32.075 178.125,32.075 C178.028333,32.075 177.9375,32.0575002 177.8525,32.0225 C177.7675,31.9874998 177.694167,31.9383336 177.6325,31.875 C177.570833,31.8116664 177.5225,31.7383337 177.4875,31.655 C177.4525,31.5716662 177.435,31.4800005 177.435,31.38 Z M177.435,27.735 C177.435,27.6383328 177.4525,27.5475004 177.4875,27.4625 C177.5225,27.3774996 177.570833,27.3033337 177.6325,27.24 C177.694167,27.1766664 177.7675,27.1266669 177.8525,27.09 C177.9375,27.0533332 178.028333,27.035 178.125,27.035 C178.221667,27.035 178.3125,27.0533332 178.3975,27.09 C178.4825,27.1266669 178.556666,27.1766664 178.62,27.24 C178.683334,27.3033337 178.733333,27.3774996 178.77,27.4625 C178.806667,27.5475004 178.825,27.6383328 178.825,27.735 C178.825,27.8350005 178.806667,27.9266663 178.77,28.01 C178.733333,28.0933338 178.683334,28.1666664 178.62,28.23 C178.556666,28.2933337 178.4825,28.3424998 178.3975,28.3775 C178.3125,28.4125002 178.221667,28.43 178.125,28.43 C178.028333,28.43 177.9375,28.4125002 177.8525,28.3775 C177.7675,28.3424998 177.694167,28.2933337 177.6325,28.23 C177.570833,28.1666664 177.5225,28.0933338 177.4875,28.01 C177.4525,27.9266663 177.435,27.8350005 177.435,27.735 Z M185.925,28.4 C185.925,29.0300032 185.857501,29.5749977 185.7225,30.035 C185.587499,30.4950023 185.401668,30.8766652 185.165,31.18 C184.928332,31.4833348 184.650002,31.7083326 184.33,31.855 C184.009998,32.0016674 183.665002,32.075 183.295,32.075 C182.924998,32.075 182.580002,32.0016674 182.26,31.855 C181.939998,31.7083326 181.662501,31.4833348 181.4275,31.18 C181.192499,30.8766652 181.008334,30.4950023 180.875,30.035 C180.741666,29.5749977 180.675,29.0300032 180.675,28.4 C180.675,27.7699969 180.741666,27.224169 180.875,26.7625 C181.008334,26.300831 181.192499,25.9191682 181.4275,25.6175 C181.662501,25.3158318 181.939998,25.0908341 182.26,24.9425 C182.580002,24.7941659 182.924998,24.72 183.295,24.72 C183.665002,24.72 184.009998,24.7941659 184.33,24.9425 C184.650002,25.0908341 184.928332,25.3158318 185.165,25.6175 C185.401668,25.9191682 185.587499,26.300831 185.7225,26.7625 C185.857501,27.224169 185.925,27.7699969 185.925,28.4 Z M184.815,28.4 C184.815,27.866664 184.7725,27.4225018 184.6875,27.0675 C184.6025,26.7124982 184.490001,26.4283344 184.35,26.215 C184.209999,26.0016656 184.048334,25.8500005 183.865,25.76 C183.681666,25.6699996 183.491668,25.625 183.295,25.625 C183.094999,25.625 182.904168,25.6699996 182.7225,25.76 C182.540832,25.8500005 182.380001,26.0016656 182.24,26.215 C182.099999,26.4283344 181.988334,26.7124982 181.905,27.0675 C181.821666,27.4225018 181.78,27.866664 181.78,28.4 C181.78,28.933336 181.821666,29.3774982 181.905,29.7325 C181.988334,30.0875018 182.099999,30.3716656 182.24,30.585 C182.380001,30.7983344 182.540832,30.9499996 182.7225,31.04 C182.904168,31.1300004 183.094999,31.175 183.295,31.175 C183.491668,31.175 183.681666,31.1300004 183.865,31.04 C184.048334,30.9499996 184.209999,30.7983344 184.35,30.585 C184.490001,30.3716656 184.6025,30.0875018 184.6875,29.7325 C184.7725,29.3774982 184.815,28.933336 184.815,28.4 Z M192.725,28.4 C192.725,29.0300032 192.657501,29.5749977 192.5225,30.035 C192.387499,30.4950023 192.201668,30.8766652 191.965,31.18 C191.728332,31.4833348 191.450002,31.7083326 191.13,31.855 C190.809998,32.0016674 190.465002,32.075 190.095,32.075 C189.724998,32.075 189.380002,32.0016674 189.06,31.855 C188.739998,31.7083326 188.462501,31.4833348 188.2275,31.18 C187.992499,30.8766652 187.808334,30.4950023 187.675,30.035 C187.541666,29.5749977 187.475,29.0300032 187.475,28.4 C187.475,27.7699969 187.541666,27.224169 187.675,26.7625 C187.808334,26.300831 187.992499,25.9191682 188.2275,25.6175 C188.462501,25.3158318 188.739998,25.0908341 189.06,24.9425 C189.380002,24.7941659 189.724998,24.72 190.095,24.72 C190.465002,24.72 190.809998,24.7941659 191.13,24.9425 C191.450002,25.0908341 191.728332,25.3158318 191.965,25.6175 C192.201668,25.9191682 192.387499,26.300831 192.5225,26.7625 C192.657501,27.224169 192.725,27.7699969 192.725,28.4 Z M191.615,28.4 C191.615,27.866664 191.5725,27.4225018 191.4875,27.0675 C191.4025,26.7124982 191.290001,26.4283344 191.15,26.215 C191.009999,26.0016656 190.848334,25.8500005 190.665,25.76 C190.481666,25.6699996 190.291668,25.625 190.095,25.625 C189.894999,25.625 189.704168,25.6699996 189.5225,25.76 C189.340832,25.8500005 189.180001,26.0016656 189.04,26.215 C188.899999,26.4283344 188.788334,26.7124982 188.705,27.0675 C188.621666,27.4225018 188.58,27.866664 188.58,28.4 C188.58,28.933336 188.621666,29.3774982 188.705,29.7325 C188.788334,30.0875018 188.899999,30.3716656 189.04,30.585 C189.180001,30.7983344 189.340832,30.9499996 189.5225,31.04 C189.704168,31.1300004 189.894999,31.175 190.095,31.175 C190.291668,31.175 190.481666,31.1300004 190.665,31.04 C190.848334,30.9499996 191.009999,30.7983344 191.15,30.585 C191.290001,30.3716656 191.4025,30.0875018 191.4875,29.7325 C191.5725,29.3774982 191.615,28.933336 191.615,28.4 Z" id="Mon-Sat-9:00-22:00-S-Copy"></path>
            <path d="M18.8571653,15.0357096 C18.8571653,15.517853 18.6428794,16.4553541 18.4419863,16.8973189 C18.1607359,17.5535697 17.410735,17.9821416 16.8080558,18.3169635 C16.0178762,18.7455354 15.2143039,19 14.3169814,19 C13.0714442,19 11.9464428,18.4910708 10.8080486,18.0758918 C9.99108334,17.7812485 9.20090383,17.419641 8.4642958,16.9642833 C6.18750738,15.5580316 3.44196839,12.8124926 2.03571671,10.5357042 C1.58035903,9.79909617 1.21875145,9.00891666 0.924108244,8.1919514 C0.508929178,7.05355719 0,5.92855585 0,4.68301865 C0,3.78569615 0.254464589,2.98212376 0.683036529,2.19194425 C1.01785836,1.58926496 1.4464303,0.839264065 2.10268108,0.55801373 C2.54464589,0.357120633 3.48214701,0.142834663 3.96429044,0.142834663 C4.05804055,0.142834663 4.15179066,0.142834663 4.24554078,0.183013283 C4.52679111,0.276763394 4.82143432,0.933014177 4.95536305,1.20087164 C5.38393499,1.96426541 5.79911406,2.74105205 6.24107887,3.49105294 C6.45536484,3.83926764 6.85715103,4.26783958 6.85715103,4.68301865 C6.85715103,5.49998391 4.433041,6.69194961 4.433041,7.41516476 C4.433041,7.77677234 4.76786283,8.24552289 4.95536305,8.56695185 C6.30804323,11.0044548 7.99554525,12.6919568 10.4330482,14.0446369 C10.7544771,14.2321372 11.2232277,14.566959 11.5848352,14.566959 C12.3080504,14.566959 13.5000161,12.142849 14.3169814,12.142849 C14.7321604,12.142849 15.1607324,12.5446352 15.5089471,12.7589211 C16.258948,13.2008859 17.0357346,13.616065 17.7991284,14.0446369 C18.0669858,14.1785657 18.7232366,14.4732089 18.8169867,14.7544592 C18.8571653,14.8482093 18.8571653,14.9419594 18.8571653,15.0357096 Z" id="phone---FontAwesome"></path>
        </g>
    </g>
</svg>