<?xml version="1.0" encoding="utf-8"?>
<!-- Generator: Adobe Illustrator 16.0.0, SVG Export Plug-In . SVG Version: 6.00 Build 0)  -->
<!DOCTYPE svg PUBLIC "-//W3C//DTD SVG 1.1//EN" "http://www.w3.org/Graphics/SVG/1.1/DTD/svg11.dtd">
<svg version="1.1" id="圖層_1" xmlns="http://www.w3.org/2000/svg" xmlns:xlink="http://www.w3.org/1999/xlink" x="0px" y="0px"
	 width="38px" height="38px" viewBox="0 0 38 38" enable-background="new 0 0 38 38" xml:space="preserve">
<title>Group 76</title>
<desc>Created with Sketch.</desc>
<g id="Page-1">
	<g id="Group-76" transform="translate(1.000000, 1.000000)">
		<g id="Group-55-Copy-2">
			<circle id="Oval" fill="none" stroke="#F8F9FA" cx="18" cy="18" r="18"/>
		</g>
		<path id="_xE008_-copy" fill="#F8F9FA" d="M25.559,12.826c0.34,0.246,0.606,0.63,0.8,1.151s0.34,1.078,0.439,1.67
			s0.161,1.16,0.185,1.705s0.041,0.952,0.053,1.222c-0.012,0.34-0.032,0.779-0.062,1.318s-0.094,1.084-0.193,1.635
			s-0.246,1.066-0.439,1.547s-0.454,0.844-0.782,1.09c-0.129,0.082-0.325,0.17-0.589,0.264s-0.674,0.182-1.23,0.264
			s-1.295,0.149-2.215,0.202s-2.089,0.079-3.507,0.079c-3.059,0-5.004-0.097-5.836-0.29s-1.324-0.331-1.477-0.413
			c-0.375-0.234-0.674-0.609-0.896-1.125s-0.393-1.063-0.51-1.644s-0.193-1.143-0.229-1.688S9.012,18.861,9,18.592
			C9.012,18.381,9.032,18,9.062,17.449s0.103-1.137,0.22-1.758s0.29-1.216,0.519-1.784s0.536-0.964,0.923-1.187
			c0.141-0.094,0.627-0.237,1.459-0.431S14.959,12,18.018,12c1.418,0,2.587,0.026,3.507,0.079s1.658,0.12,2.215,0.202
			s0.967,0.17,1.23,0.264S25.43,12.732,25.559,12.826z M24.891,23.25c0.246-0.176,0.475-0.659,0.686-1.45s0.322-1.866,0.334-3.226
			c-0.012-1.336-0.123-2.435-0.334-3.296s-0.439-1.374-0.686-1.538c-0.094-0.07-0.568-0.19-1.424-0.36s-2.672-0.255-5.449-0.255
			c-2.684,0-4.447,0.076-5.291,0.229s-1.318,0.258-1.424,0.316c-0.27,0.164-0.527,0.694-0.773,1.591s-0.381,2.007-0.404,3.331
			c0.023,1.324,0.155,2.399,0.396,3.226s0.495,1.321,0.765,1.485c0.117,0.059,0.595,0.164,1.433,0.316s2.604,0.229,5.3,0.229
			c2.777,0,4.594-0.082,5.449-0.246S24.797,23.32,24.891,23.25z M21.674,18.047c0.094,0.047,0.164,0.114,0.211,0.202
			s0.07,0.179,0.07,0.272c0,0.105-0.023,0.199-0.07,0.281s-0.117,0.152-0.211,0.211l-5.063,3.094
			c-0.035,0.035-0.079,0.059-0.132,0.07s-0.103,0.018-0.149,0.018s-0.094-0.006-0.141-0.018s-0.094-0.029-0.141-0.053
			c-0.082-0.047-0.149-0.114-0.202-0.202s-0.079-0.185-0.079-0.29v-6.205c0-0.105,0.026-0.202,0.079-0.29s0.12-0.155,0.202-0.202
			c0.094-0.059,0.19-0.085,0.29-0.079s0.19,0.032,0.272,0.079L21.674,18.047z M16.893,20.631l3.41-2.109l-3.41-2.109V20.631z"/>
	</g>
</g>
</svg>
